SplineFontDB: 3.0
FontName: PassionOne-Regular
FullName: Passion One Regular
FamilyName: Passion One
Weight: Regular
Copyright: Copyright (c) 2011 Fontstage (info@fontstage.com), with Reserved Font Name "Passion"
Version: 001.001
ItalicAngle: 0
UnderlinePosition: -50
UnderlineWidth: 50
Ascent: 800
Descent: 200
sfntRevision: 0x00010042
LayerCount: 2
Layer: 0 1 "Back"  1
Layer: 1 1 "Fore"  0
NeedsXUIDChange: 1
XUID: [1021 288 713564382 1294335]
FSType: 0
OS2Version: 2
OS2_WeightWidthSlopeOnly: 0
OS2_UseTypoMetrics: 1
CreationTime: 1323105145
ModificationTime: 1323135611
PfmFamily: 17
TTFWeight: 400
TTFWidth: 5
LineGap: 0
VLineGap: 0
Panose: 2 0 5 6 8 0 0 2 0 4
OS2TypoAscent: 35
OS2TypoAOffset: 1
OS2TypoDescent: -66
OS2TypoDOffset: 1
OS2TypoLinegap: 0
OS2WinAscent: 0
OS2WinAOffset: 1
OS2WinDescent: 68
OS2WinDOffset: 1
HheadAscent: 0
HheadAOffset: 1
HheadDescent: -68
HheadDOffset: 1
OS2SubXSize: 700
OS2SubYSize: 650
OS2SubXOff: 0
OS2SubYOff: 140
OS2SupXSize: 700
OS2SupYSize: 650
OS2SupXOff: 0
OS2SupYOff: 477
OS2StrikeYSize: 50
OS2StrikeYPos: 250
OS2Vendor: 'PYRS'
OS2CodePages: 20000001.00000000
OS2UnicodeRanges: 800000ef.4000204a.00000000.00000000
MarkAttachClasses: 1
DEI: 91125
TtTable: prep
PUSHW_1
 511
SCANCTRL
PUSHB_1
 4
SCANTYPE
EndTTInstrs
LangName: 1033 "" "" "" "Fontstage: Passion One: 2011" "PassionOne-Regular" "Version 1.001" "" "Passion is a trademark of Fontstage." "Fontstage" "Alejandro Lo Celso" "" "www.fontstage.com" "www.fontstage.com" "This Font Software is licensed under the SIL Open Font License, Version 1.1. This license is available with a FAQ at: http://scripts.sil.org/OFL" "http://scripts.sil.org/OFL" "" "Passion" "Bold" "Passion Bold" 
GaspTable: 1 65535 15
Encoding: UnicodeBmp
UnicodeInterp: none
NameList: Adobe Glyph List
DisplaySize: -36
AntiAlias: 1
FitToEm: 1
WinInfo: 34 34 12
BeginPrivate: 7
BlueValues 23 [-10 0 479 491 621 631]
OtherBlues 11 [-147 -137]
BlueScale 8 0.045455
StdHW 5 [140]
StdVW 5 [168]
StemSnapH 13 [125 140 158]

StartChar: A
Encoding: 65 65 1
Width: 498
Flags: HMW
HStem: 0 21G<8 167 8 8 323 490 323 323> 98 117<208 285 208 304 186 285> 601 20G<122 376 376 376>
LayerCount: 2
Fore
SplineSet
490 0 m 1,0,-1
 323 0 l 1,1,-1
 304 98 l 1,2,-1
 186 98 l 1,3,-1
 167 0 l 1,4,-1
 8 0 l 1,5,-1
 122 621 l 1,6,-1
 376 621 l 1,7,-1
 490 0 l 1,0,-1
285 215 m 1,8,-1
 250 437 l 1,9,-1
 243 437 l 1,10,-1
 208 215 l 1,11,-1
 285 215 l 1,8,-1
EndSplineSet
EndChar

StartChar: B
Encoding: 66 66 2
Width: 495
Flags: HMW
HStem: 0 111<217 249 249 269 217 289> 483 138<217 249 217 217>
VStem: 44 173<111 258 111 355 355 483> 300 171
LayerCount: 2
Fore
SplineSet
481 179 m 0,0,1
 481 0 481 0 289 0 c 2,2,-1
 44 0 l 1,3,-1
 44 621 l 1,4,-1
 284 621 l 2,5,6
 379 621 379 621 425 582.5 c 128,-1,7
 471 544 471 544 471 460 c 128,-1,8
 471 376 471 376 402 332 c 1,9,-1
 402 326 l 1,10,11
 481 295 481 295 481 179 c 0,0,1
289.5 124.5 m 128,-1,13
 300 138 300 138 300 180.5 c 128,-1,14
 300 223 300 223 289 240.5 c 128,-1,15
 278 258 278 258 249 258 c 2,16,-1
 217 258 l 1,17,-1
 217 111 l 1,18,-1
 249 111 l 2,19,12
 279 111 279 111 289.5 124.5 c 128,-1,13
282 369 m 128,-1,21
 291 383 291 383 291 418.5 c 128,-1,22
 291 454 291 454 281.5 468.5 c 128,-1,23
 272 483 272 483 249 483 c 2,24,-1
 217 483 l 1,25,-1
 217 355 l 1,26,-1
 250 355 l 2,27,20
 273 355 273 355 282 369 c 128,-1,21
EndSplineSet
EndChar

StartChar: C
Encoding: 67 67 3
Width: 410
Flags: HMW
HStem: -10 151<247.5 283> 470 161<246 290.5>
VStem: 24 174<247.5 361.5 247.5 406.5>
LayerCount: 2
Fore
SplineSet
215.5 178.5 m 128,-1,1
 233 141 233 141 273 141 c 128,-1,2
 313 141 313 141 386 160 c 1,3,-1
 412 19 l 1,4,5
 333 -10 333 -10 253 -10 c 0,6,7
 133 -10 133 -10 78.5 69.5 c 128,-1,8
 24 149 24 149 24 306.5 c 128,-1,9
 24 464 24 464 81 547.5 c 128,-1,10
 138 631 138 631 267 631 c 0,11,12
 343 631 343 631 412 599 c 1,13,-1
 385 444 l 1,14,15
 307 470 307 470 276 470 c 0,16,17
 232 470 232 470 215 431.5 c 128,-1,18
 198 393 198 393 198 304.5 c 128,-1,0
 198 216 198 216 215.5 178.5 c 128,-1,1
EndSplineSet
EndChar

StartChar: D
Encoding: 68 68 4
Width: 526
Flags: HMW
HStem: 0 144<214 247 247 250> 470 151<214 244 214 214>
VStem: 44 170<144 470 144 621 144 621> 331 175<255 361>
LayerCount: 2
Fore
SplineSet
506 324 m 0,0,1
 506 0 506 0 250 0 c 2,2,-1
 44 0 l 1,3,-1
 44 621 l 1,4,-1
 254 621 l 2,5,6
 391 621 391 621 448.5 544.5 c 128,-1,7
 506 468 506 468 506 324 c 0,0,1
315.5 181.5 m 128,-1,9
 331 219 331 219 331 307.5 c 128,-1,10
 331 396 331 396 314.5 433 c 128,-1,11
 298 470 298 470 244 470 c 2,12,-1
 214 470 l 1,13,-1
 214 144 l 1,14,-1
 247 144 l 2,15,8
 300 144 300 144 315.5 181.5 c 128,-1,9
EndSplineSet
EndChar

StartChar: E
Encoding: 69 69 5
Width: 404
Flags: HMW
HStem: 0 140<215 380> 243 132<215 358 215 358> 468 153<215 380 215 215>
VStem: 44 171<140 243 375 468>
LayerCount: 2
Fore
SplineSet
380 0 m 1,0,-1
 44 0 l 1,1,-1
 44 621 l 1,2,-1
 390 621 l 1,3,-1
 380 468 l 1,4,-1
 215 468 l 1,5,-1
 215 375 l 1,6,-1
 358 375 l 1,7,-1
 358 243 l 1,8,-1
 215 243 l 1,9,-1
 215 140 l 1,10,-1
 390 140 l 1,11,-1
 380 0 l 1,0,-1
EndSplineSet
EndChar

StartChar: F
Encoding: 70 70 6
Width: 385
Flags: HMW
HStem: 0 21G<44 215 44 44> 243 132<215 348 215 348> 468 153<215 380 215 215>
VStem: 44 171<0 243 375 468>
LayerCount: 2
Fore
SplineSet
380 468 m 1,0,-1
 215 468 l 1,1,-1
 215 375 l 1,2,-1
 348 375 l 1,3,-1
 348 243 l 1,4,-1
 215 243 l 1,5,-1
 215 0 l 1,6,-1
 44 0 l 1,7,-1
 44 621 l 1,8,-1
 390 621 l 1,9,-1
 380 468 l 1,0,-1
EndSplineSet
EndChar

StartChar: G
Encoding: 71 71 7
Width: 519
Flags: HMW
HStem: -10 151<245 263.5> 0 21G<361 479 361 361> 465 166<246.5 301 175 301.5>
VStem: 26 174<253.5 354.5 253.5 404.5> 288 191<225 343 0 343> 333 146<149 225 225 225>
LayerCount: 2
Fore
SplineSet
418 436 m 1,0,1
 322 465 322 465 277.5 465 c 128,-1,2
 233 465 233 465 216.5 426 c 128,-1,3
 200 387 200 387 200 302.5 c 128,-1,4
 200 218 200 218 215.5 179.5 c 128,-1,5
 231 141 231 141 279 141 c 0,6,7
 293 141 293 141 333 149 c 1,8,-1
 333 225 l 1,9,-1
 288 225 l 1,10,-1
 288 343 l 1,11,-1
 479 343 l 1,12,-1
 479 0 l 1,13,-1
 361 0 l 1,14,-1
 345 32 l 1,15,-1
 341 32 l 1,16,17
 324 18 324 18 314.5 11 c 0,18,19
 286 -10 286 -10 235 -10 c 0,20,21
 26 -10 26 -10 26 306 c 0,22,23
 26 464 26 464 81 547.5 c 128,-1,24
 136 631 136 631 266 631 c 0,25,26
 370 631 370 631 445 599 c 1,27,-1
 418 436 l 1,0,1
EndSplineSet
EndChar

StartChar: H
Encoding: 72 72 8
Width: 543
Flags: HMW
HStem: 0 21G<44 216 44 44 333 503 333 333> 601 20G<44 216 216 216 333 503 503 503>
VStem: 44 172<0 235 0 377 377 621> 333 170<0 235 235 235 377 621>
LayerCount: 2
Fore
SplineSet
503 0 m 1,0,-1
 333 0 l 1,1,-1
 333 235 l 1,2,-1
 216 235 l 1,3,-1
 216 0 l 1,4,-1
 44 0 l 1,5,-1
 44 621 l 1,6,-1
 216 621 l 1,7,-1
 216 377 l 1,8,-1
 333 377 l 1,9,-1
 333 621 l 1,10,-1
 503 621 l 1,11,-1
 503 0 l 1,0,-1
EndSplineSet
EndChar

StartChar: I
Encoding: 73 73 9
Width: 278
Flags: HMW
HStem: 0 21G<54 224 54 54> 601 20G<54 224 224 224>
VStem: 54 170<0 621>
LayerCount: 2
Fore
SplineSet
224 0 m 1,0,-1
 54 0 l 1,1,-1
 54 621 l 1,2,-1
 224 621 l 1,3,-1
 224 0 l 1,0,-1
EndSplineSet
EndChar

StartChar: J
Encoding: 74 74 10
Width: 288
Flags: HMW
HStem: -10 21G<29 80 29 29> 601 20G<76 244 244 244>
VStem: 76 168<150 621>
LayerCount: 2
Fore
SplineSet
244 621 m 1,0,-1
 244 125 l 2,1,2
 244 48 244 48 209 19 c 128,-1,3
 174 -10 174 -10 80 -10 c 2,4,-1
 29 -10 l 1,5,-1
 16 126 l 1,6,-1
 50 126 l 2,7,8
 67 126 67 126 71.5 130.5 c 128,-1,9
 76 135 76 135 76 150 c 2,10,-1
 76 621 l 1,11,-1
 244 621 l 1,0,-1
EndSplineSet
EndChar

StartChar: K
Encoding: 75 75 11
Width: 485
Flags: HMW
HStem: 0 21G<44 210 44 44 295 484 295 295> 601 20G<44 210 210 210 310 494 494 494>
VStem: 44 166<0 234 0 361 361 621>
LayerCount: 2
Fore
SplineSet
484 0 m 1,0,-1
 295 0 l 1,1,-1
 220 234 l 1,2,-1
 210 234 l 1,3,-1
 210 0 l 1,4,-1
 44 0 l 1,5,-1
 44 621 l 1,6,-1
 210 621 l 1,7,-1
 210 361 l 1,8,-1
 220 361 l 1,9,-1
 310 621 l 1,10,-1
 494 621 l 1,11,-1
 373 300 l 1,12,-1
 484 0 l 1,0,-1
EndSplineSet
EndChar

StartChar: L
Encoding: 76 76 12
Width: 362
Flags: HMW
HStem: 0 139<215 360> 601 20G<44 215 215 215>
VStem: 44 171<139 621 139 621 139 621>
LayerCount: 2
Fore
SplineSet
360 0 m 1,0,-1
 44 0 l 1,1,-1
 44 621 l 1,2,-1
 215 621 l 1,3,-1
 215 139 l 1,4,-1
 370 139 l 1,5,-1
 360 0 l 1,0,-1
EndSplineSet
EndChar

StartChar: M
Encoding: 77 77 13
Width: 683
Flags: HMW
HStem: 0 21G<38 193 38 38 259 420 259 259 488 645 488 488> 601 20G<59 284 284 284 402 624 624 624>
VStem: 48 145 488 146
LayerCount: 2
Fore
SplineSet
645 0 m 1,0,-1
 488 0 l 1,1,-1
 488 324 l 1,2,-1
 479 324 l 1,3,-1
 420 0 l 1,4,-1
 259 0 l 1,5,-1
 203 324 l 1,6,-1
 193 324 l 1,7,-1
 193 0 l 1,8,-1
 38 0 l 1,9,-1
 59 621 l 1,10,-1
 284 621 l 1,11,-1
 340 285 l 1,12,-1
 348 285 l 1,13,-1
 402 621 l 1,14,-1
 624 621 l 1,15,-1
 645 0 l 1,0,-1
EndSplineSet
EndChar

StartChar: N
Encoding: 78 78 14
Width: 541
Flags: HMW
HStem: 0 21G<44 196 44 44 333 497 333 333> 601 20G<44 213 213 213 344 497 497 497>
VStem: 44 152<0 289 0 621> 344 153<323 621>
LayerCount: 2
Fore
SplineSet
497 0 m 1,0,-1
 333 0 l 1,1,-1
 204 289 l 1,2,-1
 196 289 l 1,3,-1
 196 0 l 1,4,-1
 44 0 l 1,5,-1
 44 621 l 1,6,-1
 213 621 l 1,7,-1
 336 323 l 1,8,-1
 344 323 l 1,9,-1
 344 621 l 1,10,-1
 497 621 l 1,11,-1
 497 0 l 1,0,-1
EndSplineSet
EndChar

StartChar: O
Encoding: 79 79 15
Width: 538
Flags: HMW
HStem: -10 145<242 302 242 355.5> 473 158<237 299>
VStem: 24 174<228.5 293 293 317 228.5 424.5> 342 172<284 316 316 375>
LayerCount: 2
Fore
SplineSet
270 631 m 128,-1,1
 401 631 401 631 457.5 557 c 128,-1,2
 514 483 514 483 514 316.5 c 128,-1,3
 514 150 514 150 456 70 c 128,-1,4
 398 -10 398 -10 268 -10 c 128,-1,5
 138 -10 138 -10 81 69 c 128,-1,6
 24 148 24 148 24 314.5 c 128,-1,7
 24 481 24 481 81.5 556 c 128,-1,0
 139 631 139 631 270 631 c 128,-1,1
327.5 440.5 m 128,-1,9
 313 473 313 473 268.5 473 c 128,-1,10
 224 473 224 473 211 440.5 c 128,-1,11
 198 408 198 408 198 317 c 2,12,-1
 198 293 l 2,13,14
 198 196 198 196 212.5 165.5 c 128,-1,15
 227 135 227 135 271.5 135 c 128,-1,16
 316 135 316 135 329 164 c 128,-1,17
 342 193 342 193 342 284 c 2,18,-1
 342 316 l 2,19,8
 342 408 342 408 327.5 440.5 c 128,-1,9
EndSplineSet
EndChar

StartChar: P
Encoding: 80 80 16
Width: 464
Flags: HMW
HStem: 0 21G<44 212 44 44> 203 118<212 240 240 258 212 240> 479 142<212 236 212 212>
VStem: 44 168<0 203 0 321 321 479> 286 172<371 427>
LayerCount: 2
Fore
SplineSet
258 203 m 2,0,-1
 212 203 l 1,1,-1
 212 0 l 1,2,-1
 44 0 l 1,3,-1
 44 621 l 1,4,-1
 247 621 l 2,5,6
 354 621 354 621 406 572 c 128,-1,7
 458 523 458 523 458 411 c 128,-1,8
 458 299 458 299 409 251 c 128,-1,9
 360 203 360 203 258 203 c 2,0,-1
286 399 m 128,-1,11
 286 443 286 443 276 461 c 128,-1,12
 266 479 266 479 236 479 c 2,13,-1
 212 479 l 1,14,-1
 212 321 l 1,15,-1
 240 321 l 2,16,17
 268 321 268 321 277 338 c 128,-1,10
 286 355 286 355 286 399 c 128,-1,11
EndSplineSet
EndChar

StartChar: Q
Encoding: 81 81 17
Width: 538
Flags: HMW
HStem: -106 21G<477.5 501 501 520> -10 145<242 263> 473 158<237 299>
VStem: 24 174<228.5 293 293 317 228.5 424.5> 342 172<284 316 316 375>
LayerCount: 2
Fore
SplineSet
270 631 m 128,-1,1
 401 631 401 631 457.5 557 c 128,-1,2
 514 483 514 483 514 320 c 0,3,4
 514 214 514 214 487.5 147.5 c 128,-1,5
 461 81 461 81 405 38 c 1,6,-1
 405 34 l 1,7,-1
 531 23 l 1,8,-1
 520 -106 l 1,9,-1
 501 -106 l 2,10,11
 428 -106 428 -106 370 -72 c 2,12,-1
 263 -10 l 1,13,14
 138 -10 138 -10 81 72.5 c 128,-1,15
 24 155 24 155 24 318 c 128,-1,16
 24 481 24 481 81.5 556 c 128,-1,0
 139 631 139 631 270 631 c 128,-1,1
327.5 440.5 m 128,-1,18
 313 473 313 473 268.5 473 c 128,-1,19
 224 473 224 473 211 440.5 c 128,-1,20
 198 408 198 408 198 317 c 2,21,-1
 198 293 l 2,22,23
 198 196 198 196 212.5 165.5 c 128,-1,24
 227 135 227 135 271.5 135 c 128,-1,25
 316 135 316 135 329 164 c 128,-1,26
 342 193 342 193 342 284 c 2,27,-1
 342 316 l 2,28,17
 342 408 342 408 327.5 440.5 c 128,-1,18
EndSplineSet
EndChar

StartChar: R
Encoding: 82 82 18
Width: 494
Flags: HMW
HStem: 0 21G<44 212 44 44 297 482 297 297> 601 20G<44 276 276 342>
VStem: 44 168<0 224 0 329 329 469> 286 183<385.5 426>
LayerCount: 2
Fore
SplineSet
469 424 m 0,0,1
 469 368 469 368 452 331 c 128,-1,2
 435 294 435 294 399 264 c 1,3,-1
 482 0 l 1,4,-1
 297 0 l 1,5,-1
 235 224 l 1,6,-1
 212 224 l 1,7,-1
 212 0 l 1,8,-1
 44 0 l 1,9,-1
 44 621 l 1,10,-1
 276 621 l 2,11,12
 376 621 376 621 422.5 574 c 128,-1,13
 469 527 469 527 469 424 c 0,0,1
275 344 m 128,-1,15
 286 359 286 359 286 398.5 c 128,-1,16
 286 438 286 438 275 453.5 c 128,-1,17
 264 469 264 469 239 469 c 2,18,-1
 212 469 l 1,19,-1
 212 329 l 1,20,-1
 238 329 l 2,21,14
 264 329 264 329 275 344 c 128,-1,15
EndSplineSet
EndChar

StartChar: S
Encoding: 83 83 19
Width: 427
Flags: HMW
HStem: -10 147<176.5 210 176 278> 476 155<225.5 242 149.5 256.5>
VStem: 16 177<410 451 410 492.5> 235 176<161.5 210>
LayerCount: 2
Fore
SplineSet
68 577 m 128,-1,1
 120 631 120 631 210.5 631 c 128,-1,2
 301 631 301 631 396 613 c 1,3,-1
 376 453 l 1,4,5
 277 476 277 476 240 476 c 0,6,7
 193 476 193 476 193 438 c 0,8,9
 193 423 193 423 215.5 409 c 128,-1,10
 238 395 238 395 270 379.5 c 128,-1,11
 302 364 302 364 334 342.5 c 128,-1,12
 366 321 366 321 388.5 281 c 128,-1,13
 411 241 411 241 411 189 c 0,14,15
 411 94 411 94 360 42 c 128,-1,16
 309 -10 309 -10 215.5 -10 c 128,-1,17
 122 -10 122 -10 33 19 c 1,18,-1
 44 168 l 1,19,20
 151 137 151 137 193 137 c 128,-1,21
 235 137 235 137 235 174 c 0,22,23
 235 193 235 193 212.5 209 c 128,-1,24
 190 225 190 225 158 241 c 128,-1,25
 126 257 126 257 93.5 278 c 128,-1,26
 61 299 61 299 38.5 339 c 128,-1,27
 16 379 16 379 16 434 c 0,28,0
 16 523 16 523 68 577 c 128,-1,1
EndSplineSet
EndChar

StartChar: T
Encoding: 84 84 20
Width: 410
Flags: HMW
HStem: 0 21G<118 289 118 118> 470 151<5 118 -5 415 289 405 289 289>
VStem: 118 171<0 470 0 470>
LayerCount: 2
Fore
SplineSet
405 470 m 1,0,-1
 289 470 l 1,1,-1
 289 0 l 1,2,-1
 118 0 l 1,3,-1
 118 470 l 1,4,-1
 -5 470 l 1,5,-1
 5 621 l 1,6,-1
 415 621 l 1,7,-1
 405 470 l 1,0,-1
EndSplineSet
EndChar

StartChar: U
Encoding: 85 85 21
Width: 543
Flags: HMW
HStem: -10 153<254 294.5 254 341> 601 20G<44 219 219 219 327 499 499 499>
VStem: 44 175<193 204 204 621> 327 172<205 621>
LayerCount: 2
Fore
SplineSet
232 158 m 128,-1,1
 245 143 245 143 274.5 143 c 128,-1,2
 304 143 304 143 315.5 157.5 c 128,-1,3
 327 172 327 172 327 205 c 2,4,-1
 327 621 l 1,5,-1
 499 621 l 1,6,-1
 499 195 l 2,7,8
 499 88 499 88 440.5 39 c 128,-1,9
 382 -10 382 -10 268.5 -10 c 128,-1,10
 155 -10 155 -10 99.5 38.5 c 128,-1,11
 44 87 44 87 44 193 c 2,12,-1
 44 621 l 1,13,-1
 219 621 l 1,14,-1
 219 204 l 2,15,0
 219 173 219 173 232 158 c 128,-1,1
EndSplineSet
EndChar

StartChar: V
Encoding: 86 86 22
Width: 505
Flags: HMW
HStem: 0 21G<124 388 124 124> 601 20G<12 201 201 201 313 493 493 493>
LayerCount: 2
Fore
SplineSet
493 621 m 1,0,-1
 388 0 l 1,1,-1
 124 0 l 1,2,-1
 12 621 l 1,3,-1
 201 621 l 1,4,-1
 255 214 l 1,5,-1
 272 214 l 1,6,-1
 313 621 l 1,7,-1
 493 621 l 1,0,-1
EndSplineSet
EndChar

StartChar: W
Encoding: 87 87 23
Width: 681
Flags: HMW
HStem: 0 21G<85 292 85 85 399 605 399 399> 601 20G<20 184 184 184 262 429 429 429 503 661 661 661>
LayerCount: 2
Fore
SplineSet
661 621 m 1,0,-1
 605 0 l 1,1,-1
 399 0 l 1,2,-1
 345 275 l 1,3,-1
 337 275 l 1,4,-1
 292 0 l 1,5,-1
 85 0 l 1,6,-1
 20 621 l 1,7,-1
 184 621 l 1,8,-1
 210 292 l 1,9,-1
 220 292 l 1,10,-1
 262 621 l 1,11,-1
 429 621 l 1,12,-1
 475 292 l 1,13,-1
 485 292 l 1,14,-1
 503 621 l 1,15,-1
 661 621 l 1,0,-1
EndSplineSet
EndChar

StartChar: X
Encoding: 88 88 24
Width: 488
Flags: HMW
HStem: 0 21G<6 190 6 6 287 482 287 287> 601 20G<14 216 216 216 295 471 471 471>
LayerCount: 2
Fore
SplineSet
482 0 m 1,0,-1
 287 0 l 1,1,-1
 245 198 l 1,2,-1
 237 198 l 1,3,-1
 190 0 l 1,4,-1
 6 0 l 1,5,-1
 103 322 l 1,6,-1
 14 621 l 1,7,-1
 216 621 l 1,8,-1
 250 437 l 1,9,-1
 258 437 l 1,10,-1
 295 621 l 1,11,-1
 471 621 l 1,12,-1
 390 322 l 1,13,-1
 482 0 l 1,0,-1
EndSplineSet
EndChar

StartChar: Y
Encoding: 89 89 25
Width: 464
Flags: HMW
HStem: 0 21G<146 316 146 146> 601 20G<0 188 188 188 284 464 464 464>
VStem: 146 170<0 192 0 192>
LayerCount: 2
Fore
SplineSet
464 621 m 1,0,-1
 316 192 l 1,1,-1
 316 0 l 1,2,-1
 146 0 l 1,3,-1
 146 192 l 1,4,-1
 0 621 l 1,5,-1
 188 621 l 1,6,-1
 233 419 l 1,7,-1
 241 419 l 1,8,-1
 284 621 l 1,9,-1
 464 621 l 1,0,-1
EndSplineSet
EndChar

StartChar: Z
Encoding: 90 90 26
Width: 452
Flags: HMW
HStem: 0 143<263 442 263 442> 466 155<20 213 20 20>
LayerCount: 2
Fore
SplineSet
442 0 m 1,0,-1
 34 0 l 1,1,-1
 30 92 l 1,2,-1
 213 466 l 1,3,-1
 20 466 l 1,4,-1
 10 621 l 1,5,-1
 432 621 l 1,6,-1
 437 523 l 1,7,-1
 263 143 l 1,8,-1
 442 143 l 1,9,-1
 442 0 l 1,0,-1
EndSplineSet
EndChar

StartChar: Eth
Encoding: 208 208 27
Width: 526
Flags: HMW
HStem: 0 144<214 247 247 250> 470 151<214 244 214 214>
VStem: 44 170<144 250 144 250 144 250 368 470> 331 175<255 361>
LayerCount: 2
Fore
SplineSet
506 324 m 0,0,1
 506 0 506 0 250 0 c 2,2,-1
 44 0 l 1,3,-1
 44 250 l 1,4,-1
 -11 250 l 1,5,-1
 -11 368 l 1,6,-1
 44 368 l 1,7,-1
 44 621 l 1,8,-1
 254 621 l 2,9,10
 391 621 391 621 448.5 544.5 c 128,-1,11
 506 468 506 468 506 324 c 0,0,1
269 250 m 1,12,-1
 214 250 l 1,13,-1
 214 144 l 1,14,-1
 247 144 l 2,15,16
 300 144 300 144 315.5 181.5 c 128,-1,17
 331 219 331 219 331 307.5 c 0,18,19
 331 396 331 396 314.5 433 c 128,-1,20
 298 470 298 470 244 470 c 2,21,-1
 214 470 l 1,22,-1
 214 368 l 1,23,-1
 269 368 l 1,24,-1
 269 250 l 1,12,-1
EndSplineSet
EndChar

StartChar: Thorn
Encoding: 222 222 28
Width: 462
Flags: HMW
HStem: 0 21G<44 212 44 44> 601 20G<44 212 212 212>
VStem: 44 168<0 114 0 232 232 390 532 621> 278 172<282 338>
LayerCount: 2
Fore
SplineSet
250 114 m 2,0,-1
 212 114 l 1,1,-1
 212 0 l 1,2,-1
 44 0 l 1,3,-1
 44 621 l 1,4,-1
 212 621 l 1,5,-1
 212 532 l 1,6,-1
 239 532 l 2,7,8
 350 532 350 532 400 483.5 c 128,-1,9
 450 435 450 435 450 323 c 0,10,11
 450 211 450 211 402 162.5 c 128,-1,12
 354 114 354 114 250 114 c 2,0,-1
278 310 m 128,-1,14
 278 354 278 354 268 372 c 128,-1,15
 258 390 258 390 228 390 c 2,16,-1
 212 390 l 1,17,-1
 212 232 l 1,18,-1
 232 232 l 2,19,20
 260 232 260 232 269 249 c 128,-1,13
 278 266 278 266 278 310 c 128,-1,14
EndSplineSet
EndChar

StartChar: AE
Encoding: 198 198 29
Width: 698
Flags: HMW
HStem: 0 140<509 674> 98 117<250 338 250 338 206 338> 243 132<509 652 509 652> 468 153<509 674 509 509>
VStem: 338 171<0 243 98 243 215 243 375 437 437 437>
LayerCount: 2
Fore
SplineSet
674 0 m 1,0,-1
 338 0 l 1,1,-1
 338 98 l 1,2,-1
 206 98 l 1,3,-1
 168 0 l 1,4,-1
 0 0 l 1,5,-1
 260 621 l 1,6,-1
 684 621 l 1,7,-1
 674 468 l 1,8,-1
 509 468 l 1,9,-1
 509 375 l 1,10,-1
 652 375 l 1,11,-1
 652 243 l 1,12,-1
 509 243 l 1,13,-1
 509 140 l 1,14,-1
 684 140 l 1,15,-1
 674 0 l 1,0,-1
338 215 m 1,16,-1
 338 437 l 1,17,-1
 331 437 l 1,18,-1
 250 215 l 1,19,-1
 338 215 l 1,16,-1
EndSplineSet
EndChar

StartChar: OE
Encoding: 338 338 30
Width: 692
Flags: HMW
HStem: -10 156 0 21G<351 667 351 351> 249 132<513 645 513 645 512 645> 459 20G<238 300> 474 147<498 667 498 498> 611 20G<183 287>
VStem: 25 174<234.5 299 299 323 234.5 424.5>
LayerCount: 2
Fore
SplineSet
271 631 m 0,0,1
 315 631 315 631 357 621 c 1,2,-1
 667 621 l 1,3,-1
 667 474 l 1,4,-1
 498 474 l 1,5,6
 508 434 508 434 513 381 c 1,7,-1
 645 381 l 1,8,-1
 645 249 l 1,9,-1
 512 249 l 1,10,11
 508 191 508 191 494 146 c 1,12,-1
 667 146 l 1,13,-1
 667 0 l 1,14,-1
 351 0 l 1,15,16
 311 -10 311 -10 268 -10 c 0,17,18
 139 -10 139 -10 82 69 c 128,-1,19
 25 148 25 148 25 314.5 c 128,-1,20
 25 481 25 481 82.5 556 c 128,-1,21
 140 631 140 631 271 631 c 0,0,1
328.5 446.5 m 128,-1,23
 314 479 314 479 269.5 479 c 128,-1,24
 225 479 225 479 212 446.5 c 128,-1,25
 199 414 199 414 199 323 c 2,26,-1
 199 299 l 2,27,28
 199 201 199 201 213.5 168 c 128,-1,29
 228 135 228 135 272 135 c 128,-1,30
 316 135 316 135 329.5 166.5 c 128,-1,31
 343 198 343 198 343 290 c 2,32,-1
 343 322 l 2,33,22
 343 414 343 414 328.5 446.5 c 128,-1,23
EndSplineSet
EndChar

StartChar: Agrave
Encoding: 192 192 31
Width: 498
Flags: HMW
HStem: 0 21G<8 167 8 8 323 490 323 323> 98 117<208 285 208 304 186 285> 601 20G<122 376 376 376> 664 133<215 215 215 262 112 324>
LayerCount: 2
Fore
SplineSet
490 0 m 1,0,-1
 323 0 l 1,1,-1
 304 98 l 1,2,-1
 186 98 l 1,3,-1
 167 0 l 1,4,-1
 8 0 l 1,5,-1
 122 621 l 1,6,-1
 376 621 l 1,7,-1
 490 0 l 1,0,-1
285 215 m 1,8,-1
 250 437 l 1,9,-1
 243 437 l 1,10,-1
 208 215 l 1,11,-1
 285 215 l 1,8,-1
215 664 m 1,12,-1
 112 797 l 1,13,-1
 262 797 l 1,14,-1
 324 664 l 1,15,-1
 215 664 l 1,12,-1
EndSplineSet
EndChar

StartChar: Acircumflex
Encoding: 194 194 32
Width: 498
Flags: HMW
HStem: 0 21G<8 167 8 8 323 490 323 323> 98 117<208 285 208 304 186 285> 601 20G<122 376 376 376> 664 128<175 214 112 318 280 318 175 381 280 280>
LayerCount: 2
Fore
SplineSet
490 0 m 1,0,-1
 323 0 l 1,1,-1
 304 98 l 1,2,-1
 186 98 l 1,3,-1
 167 0 l 1,4,-1
 8 0 l 1,5,-1
 122 621 l 1,6,-1
 376 621 l 1,7,-1
 490 0 l 1,0,-1
285 215 m 1,8,-1
 250 437 l 1,9,-1
 243 437 l 1,10,-1
 208 215 l 1,11,-1
 285 215 l 1,8,-1
318 792 m 1,12,-1
 381 664 l 1,13,-1
 280 664 l 1,14,-1
 247 717 l 1,15,-1
 214 664 l 1,16,-1
 112 664 l 1,17,-1
 175 792 l 1,18,-1
 318 792 l 1,12,-1
EndSplineSet
EndChar

StartChar: Aacute
Encoding: 193 193 33
Width: 498
Flags: HMW
HStem: 0 21G<8 167 8 8 323 490 323 323> 98 117<208 285 208 304 186 285> 601 20G<122 376 376 376> 664 133<231 281 171 383>
LayerCount: 2
Fore
SplineSet
490 0 m 1,0,-1
 323 0 l 1,1,-1
 304 98 l 1,2,-1
 186 98 l 1,3,-1
 167 0 l 1,4,-1
 8 0 l 1,5,-1
 122 621 l 1,6,-1
 376 621 l 1,7,-1
 490 0 l 1,0,-1
285 215 m 1,8,-1
 250 437 l 1,9,-1
 243 437 l 1,10,-1
 208 215 l 1,11,-1
 285 215 l 1,8,-1
383 797 m 1,12,-1
 281 664 l 1,13,-1
 171 664 l 1,14,-1
 231 797 l 1,15,-1
 383 797 l 1,12,-1
EndSplineSet
EndChar

StartChar: Adieresis
Encoding: 196 196 34
Width: 498
Flags: HMW
HStem: 0 21G<8 167 8 8 323 490 323 323> 98 117<208 285 208 304 186 285> 601 20G<122 376 376 376> 663 111<141.5 179.5 303.5 341.5>
VStem: 102 120<701.5 736> 262 121<701.5 736>
LayerCount: 2
Fore
SplineSet
490 0 m 1,0,-1
 323 0 l 1,1,-1
 304 98 l 1,2,-1
 186 98 l 1,3,-1
 167 0 l 1,4,-1
 8 0 l 1,5,-1
 122 621 l 1,6,-1
 376 621 l 1,7,-1
 490 0 l 1,0,-1
285 215 m 1,8,-1
 250 437 l 1,9,-1
 243 437 l 1,10,-1
 208 215 l 1,11,-1
 285 215 l 1,8,-1
117.5 678 m 128,-1,13
 102 693 102 693 102 718.5 c 128,-1,14
 102 744 102 744 117.5 759 c 128,-1,15
 133 774 133 774 161 774 c 128,-1,16
 189 774 189 774 205.5 759.5 c 128,-1,17
 222 745 222 745 222 719 c 0,18,19
 222 663 222 663 159 663 c 0,20,12
 133 663 133 663 117.5 678 c 128,-1,13
278 678 m 128,-1,22
 262 693 262 693 262 718.5 c 128,-1,23
 262 744 262 744 278 759 c 128,-1,24
 294 774 294 774 322.5 774 c 128,-1,25
 351 774 351 774 367 759.5 c 128,-1,26
 383 745 383 745 383 719 c 128,-1,27
 383 693 383 693 367 678 c 128,-1,28
 351 663 351 663 322.5 663 c 128,-1,21
 294 663 294 663 278 678 c 128,-1,22
EndSplineSet
EndChar

StartChar: Atilde
Encoding: 195 195 35
Width: 498
Flags: HMW
HStem: 0 21G<8 167 8 8 323 490 323 323> 98 117<208 285 208 304 186 285> 601 20G<122 376 376 376> 666 131<287.5 337.5>
LayerCount: 2
Fore
SplineSet
490 0 m 1,0,-1
 323 0 l 1,1,-1
 304 98 l 1,2,-1
 186 98 l 1,3,-1
 167 0 l 1,4,-1
 8 0 l 1,5,-1
 122 621 l 1,6,-1
 376 621 l 1,7,-1
 490 0 l 1,0,-1
285 215 m 1,8,-1
 250 437 l 1,9,-1
 243 437 l 1,10,-1
 208 215 l 1,11,-1
 285 215 l 1,8,-1
386 797 m 1,12,-1
 386 789 l 2,13,14
 386 729 386 729 369 697.5 c 128,-1,15
 352 666 352 666 300 666 c 0,16,17
 269 666 269 666 224 681 c 2,18,-1
 201 689 l 1,19,-1
 201 655 l 1,20,-1
 98 655 l 1,21,-1
 98 665 l 2,22,23
 98 727 98 727 116 757.5 c 128,-1,24
 134 788 134 788 179 788 c 0,25,26
 197 788 197 788 264 770 c 1,27,-1
 283 766 l 1,28,-1
 283 797 l 1,29,-1
 386 797 l 1,12,-1
EndSplineSet
EndChar

StartChar: Aring
Encoding: 197 197 36
Width: 498
Flags: HMW
HStem: 0 21G<8 167 8 8 323 490 323 323> 98 117<208 285 208 304 186 285> 601 20G<122 376 376 376> 657 150<223 271>
VStem: 164 164<710 755> 267 61<724 740.5>
LayerCount: 2
Fore
SplineSet
490 0 m 1,0,-1
 323 0 l 1,1,-1
 304 98 l 1,2,-1
 186 98 l 1,3,-1
 167 0 l 1,4,-1
 8 0 l 1,5,-1
 122 621 l 1,6,-1
 376 621 l 1,7,-1
 490 0 l 1,0,-1
285 215 m 1,8,-1
 250 437 l 1,9,-1
 243 437 l 1,10,-1
 208 215 l 1,11,-1
 285 215 l 1,8,-1
187 786.5 m 128,-1,13
 210 807 210 807 247 807 c 128,-1,14
 284 807 284 807 306 787.5 c 128,-1,15
 328 768 328 768 328 733 c 128,-1,16
 328 698 328 698 306 677.5 c 128,-1,17
 284 657 284 657 247 657 c 128,-1,18
 210 657 210 657 187 677 c 128,-1,19
 164 697 164 697 164 731.5 c 128,-1,12
 164 766 164 766 187 786.5 c 128,-1,13
246 761 m 128,-1,21
 225 761 225 761 225 733 c 128,-1,22
 225 705 225 705 246 705 c 128,-1,23
 267 705 267 705 267 733 c 128,-1,20
 267 761 267 761 246 761 c 128,-1,21
EndSplineSet
EndChar

StartChar: Ccedilla
Encoding: 199 199 37
Width: 466
Flags: HMW
HStem: -169 21G<253.5 300.5> -9 144 493 151<266.5 319.5>
VStem: 25 176<262.5 364 262.5 405.5>
LayerCount: 2
Fore
SplineSet
350.5 -56 m 128,-1,1
 366 -71 366 -71 366 -99 c 128,-1,2
 366 -127 366 -127 340.5 -148 c 128,-1,3
 315 -169 315 -169 264.5 -169 c 128,-1,4
 214 -169 214 -169 171 -137 c 1,5,-1
 207 -67 l 1,6,7
 242 -100 242 -100 270 -100 c 0,8,9
 278 -100 278 -100 278 -92.5 c 128,-1,10
 278 -85 278 -85 267 -79 c 2,11,-1
 246 -67 l 2,12,13
 225 -54 225 -54 225 -36 c 128,-1,14
 225 -18 225 -18 237 -6 c 1,15,16
 142 9 142 9 83.5 89 c 128,-1,17
 25 169 25 169 25 312.5 c 128,-1,18
 25 456 25 456 100.5 550 c 128,-1,19
 176 644 176 644 289 644 c 128,-1,20
 402 644 402 644 458 585 c 1,21,-1
 402 435 l 1,22,23
 383 454 383 454 371 464.5 c 0,24,25
 338.428571429 493 338.428571429 493 295.714285714 493 c 128,-1,26
 253 493 253 493 227 442 c 128,-1,27
 201 391 201 391 201 313 c 128,-1,28
 201 235 201 235 227.5 185 c 128,-1,29
 254 135 254 135 298 135 c 0,30,31
 357 135 357 135 403 186 c 1,32,-1
 459 44 l 1,33,34
 399 -3 399 -3 309 -9 c 1,35,36
 304 -16 304 -16 304 -21 c 128,-1,37
 304 -26 304 -26 319.5 -33.5 c 128,-1,0
 335 -41 335 -41 350.5 -56 c 128,-1,1
EndSplineSet
EndChar

StartChar: Egrave
Encoding: 200 200 38
Width: 404
Flags: HMW
HStem: 0 140<215 380> 243 132<215 358 215 358> 468 153<215 380 215 215> 664 133<182 182 182 229 79 291>
VStem: 44 171<140 243 375 468>
LayerCount: 2
Fore
SplineSet
380 0 m 1,0,-1
 44 0 l 1,1,-1
 44 621 l 1,2,-1
 390 621 l 1,3,-1
 380 468 l 1,4,-1
 215 468 l 1,5,-1
 215 375 l 1,6,-1
 358 375 l 1,7,-1
 358 243 l 1,8,-1
 215 243 l 1,9,-1
 215 140 l 1,10,-1
 390 140 l 1,11,-1
 380 0 l 1,0,-1
182 664 m 1,12,-1
 79 797 l 1,13,-1
 229 797 l 1,14,-1
 291 664 l 1,15,-1
 182 664 l 1,12,-1
EndSplineSet
EndChar

StartChar: Ecircumflex
Encoding: 202 202 39
Width: 404
Flags: HMW
HStem: 0 140<215 380> 243 132<215 358 215 358> 468 153<215 380 215 215> 664 128<140 179 77 283 245 283 140 346 245 245>
VStem: 44 171<140 243 375 468>
LayerCount: 2
Fore
SplineSet
380 0 m 1,0,-1
 44 0 l 1,1,-1
 44 621 l 1,2,-1
 390 621 l 1,3,-1
 380 468 l 1,4,-1
 215 468 l 1,5,-1
 215 375 l 1,6,-1
 358 375 l 1,7,-1
 358 243 l 1,8,-1
 215 243 l 1,9,-1
 215 140 l 1,10,-1
 390 140 l 1,11,-1
 380 0 l 1,0,-1
283 792 m 1,12,-1
 346 664 l 1,13,-1
 245 664 l 1,14,-1
 212 717 l 1,15,-1
 179 664 l 1,16,-1
 77 664 l 1,17,-1
 140 792 l 1,18,-1
 283 792 l 1,12,-1
EndSplineSet
EndChar

StartChar: Eacute
Encoding: 201 201 40
Width: 404
Flags: HMW
HStem: 0 140<215 380> 243 132<215 358 215 358> 468 153<215 380 215 215> 664 133<208 258 148 360>
VStem: 44 171<140 243 375 468>
LayerCount: 2
Fore
SplineSet
380 0 m 1,0,-1
 44 0 l 1,1,-1
 44 621 l 1,2,-1
 390 621 l 1,3,-1
 380 468 l 1,4,-1
 215 468 l 1,5,-1
 215 375 l 1,6,-1
 358 375 l 1,7,-1
 358 243 l 1,8,-1
 215 243 l 1,9,-1
 215 140 l 1,10,-1
 390 140 l 1,11,-1
 380 0 l 1,0,-1
360 797 m 1,12,-1
 258 664 l 1,13,-1
 148 664 l 1,14,-1
 208 797 l 1,15,-1
 360 797 l 1,12,-1
EndSplineSet
EndChar

StartChar: Edieresis
Encoding: 203 203 41
Width: 404
Flags: HMW
HStem: 0 140<215 380> 243 132<215 358 215 358> 468 153<215 380 215 215> 663 111<113.5 151.5 275.5 313.5>
VStem: 44 171<140 243 375 468> 74 120<701.5 736> 234 124
LayerCount: 2
Fore
SplineSet
380 0 m 1,0,-1
 44 0 l 1,1,-1
 44 621 l 1,2,-1
 390 621 l 1,3,-1
 380 468 l 1,4,-1
 215 468 l 1,5,-1
 215 375 l 1,6,-1
 358 375 l 1,7,-1
 358 243 l 1,8,-1
 215 243 l 1,9,-1
 215 140 l 1,10,-1
 390 140 l 1,11,-1
 380 0 l 1,0,-1
89.5 678 m 128,-1,13
 74 693 74 693 74 718.5 c 128,-1,14
 74 744 74 744 89.5 759 c 128,-1,15
 105 774 105 774 133 774 c 128,-1,16
 161 774 161 774 177.5 759.5 c 128,-1,17
 194 745 194 745 194 719 c 0,18,19
 194 663 194 663 131 663 c 0,20,12
 105 663 105 663 89.5 678 c 128,-1,13
250 678 m 128,-1,22
 234 693 234 693 234 718.5 c 128,-1,23
 234 744 234 744 250 759 c 128,-1,24
 266 774 266 774 294.5 774 c 128,-1,25
 323 774 323 774 339 759.5 c 128,-1,26
 355 745 355 745 355 719 c 128,-1,27
 355 693 355 693 339 678 c 128,-1,28
 323 663 323 663 294.5 663 c 128,-1,21
 266 663 266 663 250 678 c 128,-1,22
EndSplineSet
EndChar

StartChar: Igrave
Encoding: 204 204 42
Width: 272
Flags: HMW
HStem: 0 21G<39 209 39 39> 601 20G<39 209 209 209> 664 133<82 82 82 129 -21 191>
VStem: 39 170<0 621>
LayerCount: 2
Fore
SplineSet
209 0 m 1,0,-1
 39 0 l 1,1,-1
 39 621 l 1,2,-1
 209 621 l 1,3,-1
 209 0 l 1,0,-1
82 664 m 1,4,-1
 -21 797 l 1,5,-1
 129 797 l 1,6,-1
 191 664 l 1,7,-1
 82 664 l 1,4,-1
EndSplineSet
EndChar

StartChar: Icircumflex
Encoding: 206 206 43
Width: 272
Flags: HMW
HStem: 0 21G<39 209 39 39> 601 20G<39 209 209 209> 664 128<53 92 -10 196 158 196 53 259 158 158>
VStem: 39 170<0 621>
LayerCount: 2
Fore
SplineSet
209 0 m 1,0,-1
 39 0 l 1,1,-1
 39 621 l 1,2,-1
 209 621 l 1,3,-1
 209 0 l 1,0,-1
196 792 m 1,4,-1
 259 664 l 1,5,-1
 158 664 l 1,6,-1
 125 717 l 1,7,-1
 92 664 l 1,8,-1
 -10 664 l 1,9,-1
 53 792 l 1,10,-1
 196 792 l 1,4,-1
EndSplineSet
EndChar

StartChar: Iacute
Encoding: 205 205 44
Width: 272
Flags: HMW
HStem: 0 21G<43 213 43 43> 601 20G<43 213 213 213> 664 133<106 156 46 258>
VStem: 43 170<0 621>
LayerCount: 2
Fore
SplineSet
213 0 m 1,0,-1
 43 0 l 1,1,-1
 43 621 l 1,2,-1
 213 621 l 1,3,-1
 213 0 l 1,0,-1
258 797 m 1,4,-1
 156 664 l 1,5,-1
 46 664 l 1,6,-1
 106 797 l 1,7,-1
 258 797 l 1,4,-1
EndSplineSet
EndChar

StartChar: Idieresis
Encoding: 207 207 45
Width: 272
Flags: HMW
HStem: 0 21G<39 209 39 39> 601 20G<39 209 209 209> 663 111<23.5 61.5 185.5 223.5>
VStem: -16 120<701.5 736> 39 170<0 621> 144 121<701.5 736>
LayerCount: 2
Fore
SplineSet
209 0 m 1,0,-1
 39 0 l 1,1,-1
 39 621 l 1,2,-1
 209 621 l 1,3,-1
 209 0 l 1,0,-1
-0.5 678 m 128,-1,5
 -16 693 -16 693 -16 718.5 c 128,-1,6
 -16 744 -16 744 -0.5 759 c 128,-1,7
 15 774 15 774 43 774 c 128,-1,8
 71 774 71 774 87.5 759.5 c 128,-1,9
 104 745 104 745 104 719 c 0,10,11
 104 663 104 663 41 663 c 0,12,4
 15 663 15 663 -0.5 678 c 128,-1,5
160 678 m 128,-1,14
 144 693 144 693 144 718.5 c 128,-1,15
 144 744 144 744 160 759 c 128,-1,16
 176 774 176 774 204.5 774 c 128,-1,17
 233 774 233 774 249 759.5 c 128,-1,18
 265 745 265 745 265 719 c 128,-1,19
 265 693 265 693 249 678 c 128,-1,20
 233 663 233 663 204.5 663 c 128,-1,13
 176 663 176 663 160 678 c 128,-1,14
EndSplineSet
EndChar

StartChar: Itilde
Encoding: 296 296 46
Width: 278
Flags: HMW
HStem: 0 21G<54 224 54 54> 601 20G<54 224 224 224> 666 131<177.5 227.5>
VStem: 54 170<0 621>
LayerCount: 2
Fore
SplineSet
224 0 m 1,0,-1
 54 0 l 1,1,-1
 54 621 l 1,2,-1
 224 621 l 1,3,-1
 224 0 l 1,0,-1
276 797 m 1,4,-1
 276 789 l 2,5,6
 276 729 276 729 259 697.5 c 128,-1,7
 242 666 242 666 190 666 c 0,8,9
 159 666 159 666 114 681 c 2,10,-1
 91 689 l 1,11,-1
 91 655 l 1,12,-1
 -12 655 l 1,13,-1
 -12 665 l 2,14,15
 -12 727 -12 727 6 757.5 c 128,-1,16
 24 788 24 788 69 788 c 0,17,18
 87 788 87 788 154 770 c 1,19,-1
 173 766 l 1,20,-1
 173 797 l 1,21,-1
 276 797 l 1,4,-1
EndSplineSet
EndChar

StartChar: IJ
Encoding: 306 306 47
Width: 562
Flags: HMW
HStem: -10 21G<303 354 303 303> 0 21G<54 224 54 54> 601 20G<54 224 224 224 350 518 518 518>
VStem: 54 170<0 621> 350 168<150 621>
LayerCount: 2
Fore
SplineSet
224 0 m 1,0,-1
 54 0 l 1,1,-1
 54 621 l 1,2,-1
 224 621 l 1,3,-1
 224 0 l 1,0,-1
518 621 m 1,4,-1
 518 125 l 2,5,6
 518 48 518 48 483 19 c 128,-1,7
 448 -10 448 -10 354 -10 c 2,8,-1
 303 -10 l 1,9,-1
 290 126 l 1,10,-1
 324 126 l 2,11,12
 341 126 341 126 345.5 130.5 c 128,-1,13
 350 135 350 135 350 150 c 2,14,-1
 350 621 l 1,15,-1
 518 621 l 1,4,-1
EndSplineSet
EndChar

StartChar: Jcircumflex
Encoding: 308 308 48
Width: 288
Flags: HMW
HStem: -10 21G<29 80 29 29> 601 20G<76 244 244 244> 664 128<83 122 20 226 188 226 83 289 188 188>
VStem: 76 168<150 621>
LayerCount: 2
Fore
SplineSet
244 621 m 1,0,-1
 244 125 l 2,1,2
 244 48 244 48 209 19 c 128,-1,3
 174 -10 174 -10 80 -10 c 2,4,-1
 29 -10 l 1,5,-1
 16 126 l 1,6,-1
 50 126 l 2,7,8
 67 126 67 126 71.5 130.5 c 128,-1,9
 76 135 76 135 76 150 c 2,10,-1
 76 621 l 1,11,-1
 244 621 l 1,0,-1
226 792 m 1,12,-1
 289 664 l 1,13,-1
 188 664 l 1,14,-1
 155 717 l 1,15,-1
 122 664 l 1,16,-1
 20 664 l 1,17,-1
 83 792 l 1,18,-1
 226 792 l 1,12,-1
EndSplineSet
EndChar

StartChar: Ldotaccent
Encoding: 319 319 49
Width: 424
Flags: HMW
HStem: 0 139<215 360> 216 179<308 372.5> 601 20G<44 215 215 215>
VStem: 44 171<139 621 139 621 139 621> 244 192<275.5 335 275.5 335.5>
LayerCount: 2
Fore
SplineSet
360 0 m 1,0,-1
 44 0 l 1,1,-1
 44 621 l 1,2,-1
 215 621 l 1,3,-1
 215 139 l 1,4,-1
 370 139 l 1,5,-1
 360 0 l 1,0,-1
340 216 m 128,-1,7
 244 216 244 216 244 305.5 c 128,-1,8
 244 395 244 395 340 395 c 128,-1,9
 436 395 436 395 436 305.5 c 128,-1,6
 436 216 436 216 340 216 c 128,-1,7
EndSplineSet
EndChar

StartChar: Lslash
Encoding: 321 321 50
Width: 362
Flags: HMW
HStem: 0 139<215 360> 601 20G<44 215 215 215>
VStem: 44 171<139 179 179 179 436 621>
LayerCount: 2
Fore
SplineSet
360 0 m 1,0,-1
 44 0 l 1,1,-1
 44 179 l 1,2,-1
 1 152 l 1,3,-1
 1 300 l 1,4,-1
 44 327 l 1,5,-1
 44 621 l 1,6,-1
 215 621 l 1,7,-1
 215 436 l 1,8,-1
 268 470 l 1,9,-1
 268 322 l 1,10,-1
 215 288 l 1,11,-1
 215 139 l 1,12,-1
 370 139 l 1,13,-1
 360 0 l 1,0,-1
EndSplineSet
EndChar

StartChar: Nacute
Encoding: 323 323 51
Width: 541
Flags: HMW
HStem: 0 21G<44 196 44 44 333 497 333 333> 601 20G<44 213 213 213 344 497 497 497> 664 133<266 316 206 418>
VStem: 44 152<0 289 0 621> 344 153<323 621>
LayerCount: 2
Fore
SplineSet
497 0 m 1,0,-1
 333 0 l 1,1,-1
 204 289 l 1,2,-1
 196 289 l 1,3,-1
 196 0 l 1,4,-1
 44 0 l 1,5,-1
 44 621 l 1,6,-1
 213 621 l 1,7,-1
 336 323 l 1,8,-1
 344 323 l 1,9,-1
 344 621 l 1,10,-1
 497 621 l 1,11,-1
 497 0 l 1,0,-1
418 797 m 1,12,-1
 316 664 l 1,13,-1
 206 664 l 1,14,-1
 266 797 l 1,15,-1
 418 797 l 1,12,-1
EndSplineSet
EndChar

StartChar: Ntilde
Encoding: 209 209 52
Width: 543
Flags: HMW
HStem: 0 21G<45 197 45 45 334 498 334 334> 601 20G<45 214 214 214 345 498 498 498> 666 131<320.5 370.5>
VStem: 45 152<0 289 0 621> 345 153<323 621>
LayerCount: 2
Fore
SplineSet
498 0 m 1,0,-1
 334 0 l 1,1,-1
 205 289 l 1,2,-1
 197 289 l 1,3,-1
 197 0 l 1,4,-1
 45 0 l 1,5,-1
 45 621 l 1,6,-1
 214 621 l 1,7,-1
 337 323 l 1,8,-1
 345 323 l 1,9,-1
 345 621 l 1,10,-1
 498 621 l 1,11,-1
 498 0 l 1,0,-1
419 797 m 1,12,-1
 419 789 l 2,13,14
 419 729 419 729 402 697.5 c 128,-1,15
 385 666 385 666 333 666 c 0,16,17
 302 666 302 666 257 681 c 2,18,-1
 234 689 l 1,19,-1
 234 655 l 1,20,-1
 131 655 l 1,21,-1
 131 665 l 2,22,23
 131 727 131 727 149 757.5 c 128,-1,24
 167 788 167 788 212 788 c 0,25,26
 230 788 230 788 297 770 c 1,27,-1
 316 766 l 1,28,-1
 316 797 l 1,29,-1
 419 797 l 1,12,-1
EndSplineSet
EndChar

StartChar: Ograve
Encoding: 210 210 53
Width: 538
Flags: HMW
HStem: -10 145<242 302 242 355.5> 473 158<237 299> 664 133<229 229 229 276 126 338>
VStem: 24 174<228.5 293 293 317 228.5 424.5> 342 172<284 316 316 375>
LayerCount: 2
Fore
SplineSet
270 631 m 128,-1,1
 401 631 401 631 457.5 557 c 128,-1,2
 514 483 514 483 514 316.5 c 128,-1,3
 514 150 514 150 456 70 c 128,-1,4
 398 -10 398 -10 268 -10 c 128,-1,5
 138 -10 138 -10 81 69 c 128,-1,6
 24 148 24 148 24 314.5 c 128,-1,7
 24 481 24 481 81.5 556 c 128,-1,0
 139 631 139 631 270 631 c 128,-1,1
327.5 440.5 m 128,-1,9
 313 473 313 473 268.5 473 c 128,-1,10
 224 473 224 473 211 440.5 c 128,-1,11
 198 408 198 408 198 317 c 2,12,-1
 198 293 l 2,13,14
 198 196 198 196 212.5 165.5 c 128,-1,15
 227 135 227 135 271.5 135 c 128,-1,16
 316 135 316 135 329 164 c 128,-1,17
 342 193 342 193 342 284 c 2,18,-1
 342 316 l 2,19,8
 342 408 342 408 327.5 440.5 c 128,-1,9
229 664 m 1,20,-1
 126 797 l 1,21,-1
 276 797 l 1,22,-1
 338 664 l 1,23,-1
 229 664 l 1,20,-1
EndSplineSet
EndChar

StartChar: Ocircumflex
Encoding: 212 212 54
Width: 538
Flags: HMW
HStem: -10 145<242 302 242 355.5> 473 158<237 299> 664 128<197 236 134 340 302 340 197 403 302 302>
VStem: 24 174<228.5 293 293 317 228.5 424.5> 342 172<284 316 316 375>
LayerCount: 2
Fore
SplineSet
270 631 m 128,-1,1
 401 631 401 631 457.5 557 c 128,-1,2
 514 483 514 483 514 316.5 c 128,-1,3
 514 150 514 150 456 70 c 128,-1,4
 398 -10 398 -10 268 -10 c 128,-1,5
 138 -10 138 -10 81 69 c 128,-1,6
 24 148 24 148 24 314.5 c 128,-1,7
 24 481 24 481 81.5 556 c 128,-1,0
 139 631 139 631 270 631 c 128,-1,1
327.5 440.5 m 128,-1,9
 313 473 313 473 268.5 473 c 128,-1,10
 224 473 224 473 211 440.5 c 128,-1,11
 198 408 198 408 198 317 c 2,12,-1
 198 293 l 2,13,14
 198 196 198 196 212.5 165.5 c 128,-1,15
 227 135 227 135 271.5 135 c 128,-1,16
 316 135 316 135 329 164 c 128,-1,17
 342 193 342 193 342 284 c 2,18,-1
 342 316 l 2,19,8
 342 408 342 408 327.5 440.5 c 128,-1,9
340 792 m 1,20,-1
 403 664 l 1,21,-1
 302 664 l 1,22,-1
 269 717 l 1,23,-1
 236 664 l 1,24,-1
 134 664 l 1,25,-1
 197 792 l 1,26,-1
 340 792 l 1,20,-1
EndSplineSet
EndChar

StartChar: Oacute
Encoding: 211 211 55
Width: 538
Flags: HMW
HStem: -10 145<242 302 242 355.5> 473 158<237 299> 664 133<260 310 200 412>
VStem: 24 174<228.5 293 293 317 228.5 424.5> 342 172<284 316 316 375>
LayerCount: 2
Fore
SplineSet
270 631 m 128,-1,1
 401 631 401 631 457.5 557 c 128,-1,2
 514 483 514 483 514 316.5 c 128,-1,3
 514 150 514 150 456 70 c 128,-1,4
 398 -10 398 -10 268 -10 c 128,-1,5
 138 -10 138 -10 81 69 c 128,-1,6
 24 148 24 148 24 314.5 c 128,-1,7
 24 481 24 481 81.5 556 c 128,-1,0
 139 631 139 631 270 631 c 128,-1,1
327.5 440.5 m 128,-1,9
 313 473 313 473 268.5 473 c 128,-1,10
 224 473 224 473 211 440.5 c 128,-1,11
 198 408 198 408 198 317 c 2,12,-1
 198 293 l 2,13,14
 198 196 198 196 212.5 165.5 c 128,-1,15
 227 135 227 135 271.5 135 c 128,-1,16
 316 135 316 135 329 164 c 128,-1,17
 342 193 342 193 342 284 c 2,18,-1
 342 316 l 2,19,8
 342 408 342 408 327.5 440.5 c 128,-1,9
412 797 m 1,20,-1
 310 664 l 1,21,-1
 200 664 l 1,22,-1
 260 797 l 1,23,-1
 412 797 l 1,20,-1
EndSplineSet
EndChar

StartChar: Odieresis
Encoding: 214 214 56
Width: 538
Flags: HMW
HStem: -10 145<242 302 242 355.5> 473 158<237 299> 663 111<168.5 206.5 330.5 368.5>
VStem: 24 174<228.5 293 293 317 228.5 424.5> 129 120<701.5 736> 289 121<701.5 736> 342 172<284 316 316 375>
LayerCount: 2
Fore
SplineSet
270 631 m 128,-1,1
 401 631 401 631 457.5 557 c 128,-1,2
 514 483 514 483 514 316.5 c 128,-1,3
 514 150 514 150 456 70 c 128,-1,4
 398 -10 398 -10 268 -10 c 128,-1,5
 138 -10 138 -10 81 69 c 128,-1,6
 24 148 24 148 24 314.5 c 128,-1,7
 24 481 24 481 81.5 556 c 128,-1,0
 139 631 139 631 270 631 c 128,-1,1
327.5 440.5 m 128,-1,9
 313 473 313 473 268.5 473 c 128,-1,10
 224 473 224 473 211 440.5 c 128,-1,11
 198 408 198 408 198 317 c 2,12,-1
 198 293 l 2,13,14
 198 196 198 196 212.5 165.5 c 128,-1,15
 227 135 227 135 271.5 135 c 128,-1,16
 316 135 316 135 329 164 c 128,-1,17
 342 193 342 193 342 284 c 2,18,-1
 342 316 l 2,19,8
 342 408 342 408 327.5 440.5 c 128,-1,9
144.5 678 m 128,-1,21
 129 693 129 693 129 718.5 c 128,-1,22
 129 744 129 744 144.5 759 c 128,-1,23
 160 774 160 774 188 774 c 128,-1,24
 216 774 216 774 232.5 759.5 c 128,-1,25
 249 745 249 745 249 719 c 0,26,27
 249 663 249 663 186 663 c 0,28,20
 160 663 160 663 144.5 678 c 128,-1,21
305 678 m 128,-1,30
 289 693 289 693 289 718.5 c 128,-1,31
 289 744 289 744 305 759 c 128,-1,32
 321 774 321 774 349.5 774 c 128,-1,33
 378 774 378 774 394 759.5 c 128,-1,34
 410 745 410 745 410 719 c 128,-1,35
 410 693 410 693 394 678 c 128,-1,36
 378 663 378 663 349.5 663 c 128,-1,29
 321 663 321 663 305 678 c 128,-1,30
EndSplineSet
EndChar

StartChar: Otilde
Encoding: 213 213 57
Width: 538
Flags: HMW
HStem: -10 145<242 302 242 355.5> 473 158<237 299> 666 131<307.5 357.5>
VStem: 24 174<228.5 293 293 317 228.5 424.5> 342 172<284 316 316 375>
LayerCount: 2
Fore
SplineSet
270 631 m 128,-1,1
 401 631 401 631 457.5 557 c 128,-1,2
 514 483 514 483 514 316.5 c 128,-1,3
 514 150 514 150 456 70 c 128,-1,4
 398 -10 398 -10 268 -10 c 128,-1,5
 138 -10 138 -10 81 69 c 128,-1,6
 24 148 24 148 24 314.5 c 128,-1,7
 24 481 24 481 81.5 556 c 128,-1,0
 139 631 139 631 270 631 c 128,-1,1
327.5 440.5 m 128,-1,9
 313 473 313 473 268.5 473 c 128,-1,10
 224 473 224 473 211 440.5 c 128,-1,11
 198 408 198 408 198 317 c 2,12,-1
 198 293 l 2,13,14
 198 196 198 196 212.5 165.5 c 128,-1,15
 227 135 227 135 271.5 135 c 128,-1,16
 316 135 316 135 329 164 c 128,-1,17
 342 193 342 193 342 284 c 2,18,-1
 342 316 l 2,19,8
 342 408 342 408 327.5 440.5 c 128,-1,9
406 797 m 1,20,-1
 406 789 l 2,21,22
 406 729 406 729 389 697.5 c 128,-1,23
 372 666 372 666 320 666 c 0,24,25
 289 666 289 666 244 681 c 2,26,-1
 221 689 l 1,27,-1
 221 655 l 1,28,-1
 118 655 l 1,29,-1
 118 665 l 2,30,31
 118 727 118 727 136 757.5 c 128,-1,32
 154 788 154 788 199 788 c 0,33,34
 217 788 217 788 284 770 c 1,35,-1
 303 766 l 1,36,-1
 303 797 l 1,37,-1
 406 797 l 1,20,-1
EndSplineSet
EndChar

StartChar: Oslash
Encoding: 216 216 58
Width: 538
Flags: HMW
HStem: -71 21G<42 210 42 42> -10 145<261.5 302 242 355.5> 479 152<237 278.5 182 299> 663 20G<342 508 508 508>
VStem: 24 174<253.5 299 299 323 234.5 424.5> 342 172<290 322 322 373.5 208 381>
LayerCount: 2
Fore
SplineSet
270 631 m 0,0,1
 296 631 296 631 320 628 c 1,2,-1
 342 683 l 1,3,-1
 508 683 l 1,4,-1
 458 556 l 1,5,6
 514 483 514 483 514 316.5 c 128,-1,7
 514 150 514 150 456 70 c 128,-1,8
 398 -10 398 -10 267 -10 c 0,9,10
 255 -10 255 -10 235 -8 c 1,11,-1
 210 -71 l 1,12,-1
 42 -71 l 1,13,-1
 92 55 l 1,14,15
 24 132 24 132 24 306.5 c 128,-1,16
 24 481 24 481 81.5 556 c 128,-1,17
 139 631 139 631 270 631 c 0,0,1
327.5 446.5 m 128,-1,19
 313 479 313 479 268.5 479 c 128,-1,20
 224 479 224 479 211 446.5 c 128,-1,21
 198 414 198 414 198 323 c 2,22,-1
 198 299 l 2,23,24
 198 201 198 201 212.5 168 c 128,-1,25
 227 135 227 135 271 135 c 128,-1,26
 315 135 315 135 328.5 166.5 c 128,-1,27
 342 198 342 198 342 290 c 2,28,-1
 342 322 l 2,29,18
 342 414 342 414 327.5 446.5 c 128,-1,19
EndSplineSet
EndChar

StartChar: Racute
Encoding: 340 340 59
Width: 494
Flags: HMW
HStem: 0 21G<44 212 44 44 297 482 297 297> 601 20G<44 276 276 342> 664 133<231 281 171 383>
VStem: 44 168<0 224 0 329 329 469> 286 183<385.5 426>
LayerCount: 2
Fore
SplineSet
469 424 m 0,0,1
 469 368 469 368 452 331 c 128,-1,2
 435 294 435 294 399 264 c 1,3,-1
 482 0 l 1,4,-1
 297 0 l 1,5,-1
 235 224 l 1,6,-1
 212 224 l 1,7,-1
 212 0 l 1,8,-1
 44 0 l 1,9,-1
 44 621 l 1,10,-1
 276 621 l 2,11,12
 376 621 376 621 422.5 574 c 128,-1,13
 469 527 469 527 469 424 c 0,0,1
275 344 m 128,-1,15
 286 359 286 359 286 398.5 c 128,-1,16
 286 438 286 438 275 453.5 c 128,-1,17
 264 469 264 469 239 469 c 2,18,-1
 212 469 l 1,19,-1
 212 329 l 1,20,-1
 238 329 l 2,21,14
 264 329 264 329 275 344 c 128,-1,15
383 797 m 1,22,-1
 281 664 l 1,23,-1
 171 664 l 1,24,-1
 231 797 l 1,25,-1
 383 797 l 1,22,-1
EndSplineSet
EndChar

StartChar: Rcaron
Encoding: 344 344 60
Width: 494
Flags: HMW
HStem: 0 21G<44 212 44 44 297 482 297 297> 601 20G<44 276 276 342> 652 129<172 172 172 210 263 302>
VStem: 44 168<0 224 0 329 329 469> 286 183<385.5 426>
LayerCount: 2
Fore
SplineSet
469 424 m 0,0,1
 469 368 469 368 452 331 c 128,-1,2
 435 294 435 294 399 264 c 1,3,-1
 482 0 l 1,4,-1
 297 0 l 1,5,-1
 235 224 l 1,6,-1
 212 224 l 1,7,-1
 212 0 l 1,8,-1
 44 0 l 1,9,-1
 44 621 l 1,10,-1
 276 621 l 2,11,12
 376 621 376 621 422.5 574 c 128,-1,13
 469 527 469 527 469 424 c 0,0,1
275 344 m 128,-1,15
 286 359 286 359 286 398.5 c 128,-1,16
 286 438 286 438 275 453.5 c 128,-1,17
 264 469 264 469 239 469 c 2,18,-1
 212 469 l 1,19,-1
 212 329 l 1,20,-1
 238 329 l 2,21,14
 264 329 264 329 275 344 c 128,-1,15
172 652 m 1,22,-1
 117 781 l 1,23,-1
 210 781 l 1,24,-1
 236 733 l 1,25,-1
 263 781 l 1,26,-1
 356 781 l 1,27,-1
 302 652 l 1,28,-1
 172 652 l 1,22,-1
EndSplineSet
EndChar

StartChar: Rcommaaccent
Encoding: 342 342 61
Width: 494
Flags: HMW
HStem: -175 21G<272 272> -128 119<224.5 228> 0 21G<44 212 44 44 297 482 297 297> 601 20G<44 276 276 342>
VStem: 44 168<0 224 0 329 329 469> 165 184<-93.5 -53.5> 286 183<385.5 426>
LayerCount: 2
Fore
SplineSet
469 424 m 0,0,1
 469 368 469 368 452 331 c 128,-1,2
 435 294 435 294 399 264 c 1,3,-1
 482 0 l 1,4,-1
 297 0 l 1,5,-1
 235 224 l 1,6,-1
 212 224 l 1,7,-1
 212 0 l 1,8,-1
 44 0 l 1,9,-1
 44 621 l 1,10,-1
 276 621 l 2,11,12
 376 621 376 621 422.5 574 c 128,-1,13
 469 527 469 527 469 424 c 0,0,1
275 344 m 128,-1,15
 286 359 286 359 286 398.5 c 128,-1,16
 286 438 286 438 275 453.5 c 128,-1,17
 264 469 264 469 239 469 c 2,18,-1
 212 469 l 1,19,-1
 212 329 l 1,20,-1
 238 329 l 2,21,14
 264 329 264 329 275 344 c 128,-1,15
165 -76 m 0,22,23
 165 -9 165 -9 257 -9 c 128,-1,24
 349 -9 349 -9 349 -78 c 0,25,26
 349 -132 349 -132 272 -175 c 1,27,-1
 192 -169 l 1,28,-1
 228 -128 l 1,29,30
 200 -128 200 -128 182.5 -114.5 c 128,-1,31
 165 -101 165 -101 165 -76 c 0,22,23
EndSplineSet
EndChar

StartChar: Scaron
Encoding: 352 352 62
Width: 427
Flags: HMW
HStem: -10 147<176.5 210 176 278> 476 155<225.5 242 149.5 256.5> 652 129<146 146 146 184 237 276>
VStem: 16 177<410 451 410 492.5> 235 176<161.5 210>
LayerCount: 2
Fore
SplineSet
68 577 m 128,-1,1
 120 631 120 631 210.5 631 c 128,-1,2
 301 631 301 631 396 613 c 1,3,-1
 376 453 l 1,4,5
 277 476 277 476 240 476 c 0,6,7
 193 476 193 476 193 438 c 0,8,9
 193 423 193 423 215.5 409 c 128,-1,10
 238 395 238 395 270 379.5 c 128,-1,11
 302 364 302 364 334 342.5 c 128,-1,12
 366 321 366 321 388.5 281 c 128,-1,13
 411 241 411 241 411 189 c 0,14,15
 411 94 411 94 360 42 c 128,-1,16
 309 -10 309 -10 215.5 -10 c 128,-1,17
 122 -10 122 -10 33 19 c 1,18,-1
 44 168 l 1,19,20
 151 137 151 137 193 137 c 128,-1,21
 235 137 235 137 235 174 c 0,22,23
 235 193 235 193 212.5 209 c 128,-1,24
 190 225 190 225 158 241 c 128,-1,25
 126 257 126 257 93.5 278 c 128,-1,26
 61 299 61 299 38.5 339 c 128,-1,27
 16 379 16 379 16 434 c 0,28,0
 16 523 16 523 68 577 c 128,-1,1
146 652 m 1,29,-1
 91 781 l 1,30,-1
 184 781 l 1,31,-1
 210 733 l 1,32,-1
 237 781 l 1,33,-1
 330 781 l 1,34,-1
 276 652 l 1,35,-1
 146 652 l 1,29,-1
EndSplineSet
EndChar

StartChar: Ugrave
Encoding: 217 217 63
Width: 543
Flags: HMW
HStem: -10 153<254 294.5 254 341> 601 20G<44 219 219 219 327 499 499 499> 664 133<226 226 226 273 123 335>
VStem: 44 175<193 204 204 621> 327 172<205 621>
LayerCount: 2
Fore
SplineSet
232 158 m 128,-1,1
 245 143 245 143 274.5 143 c 128,-1,2
 304 143 304 143 315.5 157.5 c 128,-1,3
 327 172 327 172 327 205 c 2,4,-1
 327 621 l 1,5,-1
 499 621 l 1,6,-1
 499 195 l 2,7,8
 499 88 499 88 440.5 39 c 128,-1,9
 382 -10 382 -10 268.5 -10 c 128,-1,10
 155 -10 155 -10 99.5 38.5 c 128,-1,11
 44 87 44 87 44 193 c 2,12,-1
 44 621 l 1,13,-1
 219 621 l 1,14,-1
 219 204 l 2,15,0
 219 173 219 173 232 158 c 128,-1,1
226 664 m 1,16,-1
 123 797 l 1,17,-1
 273 797 l 1,18,-1
 335 664 l 1,19,-1
 226 664 l 1,16,-1
EndSplineSet
EndChar

StartChar: Ucircumflex
Encoding: 219 219 64
Width: 543
Flags: HMW
HStem: -10 153<254 294.5 254 341> 601 20G<44 219 219 219 327 499 499 499> 664 128<202 241 139 345 307 345 202 408 307 307>
VStem: 44 175<193 204 204 621> 327 172<205 621>
LayerCount: 2
Fore
SplineSet
232 158 m 128,-1,1
 245 143 245 143 274.5 143 c 128,-1,2
 304 143 304 143 315.5 157.5 c 128,-1,3
 327 172 327 172 327 205 c 2,4,-1
 327 621 l 1,5,-1
 499 621 l 1,6,-1
 499 195 l 2,7,8
 499 88 499 88 440.5 39 c 128,-1,9
 382 -10 382 -10 268.5 -10 c 128,-1,10
 155 -10 155 -10 99.5 38.5 c 128,-1,11
 44 87 44 87 44 193 c 2,12,-1
 44 621 l 1,13,-1
 219 621 l 1,14,-1
 219 204 l 2,15,0
 219 173 219 173 232 158 c 128,-1,1
345 792 m 1,16,-1
 408 664 l 1,17,-1
 307 664 l 1,18,-1
 274 717 l 1,19,-1
 241 664 l 1,20,-1
 139 664 l 1,21,-1
 202 792 l 1,22,-1
 345 792 l 1,16,-1
EndSplineSet
EndChar

StartChar: Uacute
Encoding: 218 218 65
Width: 543
Flags: HMW
HStem: -10 153<254 294.5 254 341> 601 20G<44 219 219 219 327 499 499 499> 664 133<273 323 213 425>
VStem: 44 175<193 204 204 621> 327 172<205 621>
LayerCount: 2
Fore
SplineSet
232 158 m 128,-1,1
 245 143 245 143 274.5 143 c 128,-1,2
 304 143 304 143 315.5 157.5 c 128,-1,3
 327 172 327 172 327 205 c 2,4,-1
 327 621 l 1,5,-1
 499 621 l 1,6,-1
 499 195 l 2,7,8
 499 88 499 88 440.5 39 c 128,-1,9
 382 -10 382 -10 268.5 -10 c 128,-1,10
 155 -10 155 -10 99.5 38.5 c 128,-1,11
 44 87 44 87 44 193 c 2,12,-1
 44 621 l 1,13,-1
 219 621 l 1,14,-1
 219 204 l 2,15,0
 219 173 219 173 232 158 c 128,-1,1
425 797 m 1,16,-1
 323 664 l 1,17,-1
 213 664 l 1,18,-1
 273 797 l 1,19,-1
 425 797 l 1,16,-1
EndSplineSet
EndChar

StartChar: Udieresis
Encoding: 220 220 66
Width: 543
Flags: HMW
HStem: -10 153<254 294.5 254 341> 601 20G<44 219 219 219 327 499 499 499> 663 111<171.5 209.5 333.5 371.5>
VStem: 44 175<193 204 204 621> 132 120<701.5 736> 292 121<701.5 736> 327 172<205 621>
LayerCount: 2
Fore
SplineSet
232 158 m 128,-1,1
 245 143 245 143 274.5 143 c 128,-1,2
 304 143 304 143 315.5 157.5 c 128,-1,3
 327 172 327 172 327 205 c 2,4,-1
 327 621 l 1,5,-1
 499 621 l 1,6,-1
 499 195 l 2,7,8
 499 88 499 88 440.5 39 c 128,-1,9
 382 -10 382 -10 268.5 -10 c 128,-1,10
 155 -10 155 -10 99.5 38.5 c 128,-1,11
 44 87 44 87 44 193 c 2,12,-1
 44 621 l 1,13,-1
 219 621 l 1,14,-1
 219 204 l 2,15,0
 219 173 219 173 232 158 c 128,-1,1
147.5 678 m 128,-1,17
 132 693 132 693 132 718.5 c 128,-1,18
 132 744 132 744 147.5 759 c 128,-1,19
 163 774 163 774 191 774 c 128,-1,20
 219 774 219 774 235.5 759.5 c 128,-1,21
 252 745 252 745 252 719 c 0,22,23
 252 663 252 663 189 663 c 0,24,16
 163 663 163 663 147.5 678 c 128,-1,17
308 678 m 128,-1,26
 292 693 292 693 292 718.5 c 128,-1,27
 292 744 292 744 308 759 c 128,-1,28
 324 774 324 774 352.5 774 c 128,-1,29
 381 774 381 774 397 759.5 c 128,-1,30
 413 745 413 745 413 719 c 128,-1,31
 413 693 413 693 397 678 c 128,-1,32
 381 663 381 663 352.5 663 c 128,-1,25
 324 663 324 663 308 678 c 128,-1,26
EndSplineSet
EndChar

StartChar: Yacute
Encoding: 221 221 67
Width: 464
Flags: HMW
HStem: 0 21G<146 316 146 146> 601 20G<0 188 188 188 284 464 464 464> 654 133<237 287 177 389>
VStem: 146 170<0 192 0 192>
LayerCount: 2
Fore
SplineSet
464 621 m 1,0,-1
 316 192 l 1,1,-1
 316 0 l 1,2,-1
 146 0 l 1,3,-1
 146 192 l 1,4,-1
 0 621 l 1,5,-1
 188 621 l 1,6,-1
 233 419 l 1,7,-1
 241 419 l 1,8,-1
 284 621 l 1,9,-1
 464 621 l 1,0,-1
389 787 m 1,10,-1
 287 654 l 1,11,-1
 177 654 l 1,12,-1
 237 787 l 1,13,-1
 389 787 l 1,10,-1
EndSplineSet
EndChar

StartChar: Ydieresis
Encoding: 376 376 68
Width: 464
Flags: HMW
HStem: 0 21G<146 316 146 146> 601 20G<0 188 188 188 284 464 464 464> 663 111<134.5 172.5 296.5 334.5>
VStem: 95 120<701.5 736> 146 170<0 192 0 192> 255 121<701.5 736>
LayerCount: 2
Fore
SplineSet
464 621 m 1,0,-1
 316 192 l 1,1,-1
 316 0 l 1,2,-1
 146 0 l 1,3,-1
 146 192 l 1,4,-1
 0 621 l 1,5,-1
 188 621 l 1,6,-1
 233 419 l 1,7,-1
 241 419 l 1,8,-1
 284 621 l 1,9,-1
 464 621 l 1,0,-1
110.5 678 m 128,-1,11
 95 693 95 693 95 718.5 c 128,-1,12
 95 744 95 744 110.5 759 c 128,-1,13
 126 774 126 774 154 774 c 128,-1,14
 182 774 182 774 198.5 759.5 c 128,-1,15
 215 745 215 745 215 719 c 0,16,17
 215 663 215 663 152 663 c 0,18,10
 126 663 126 663 110.5 678 c 128,-1,11
271 678 m 128,-1,20
 255 693 255 693 255 718.5 c 128,-1,21
 255 744 255 744 271 759 c 128,-1,22
 287 774 287 774 315.5 774 c 128,-1,23
 344 774 344 774 360 759.5 c 128,-1,24
 376 745 376 745 376 719 c 128,-1,25
 376 693 376 693 360 678 c 128,-1,26
 344 663 344 663 315.5 663 c 128,-1,19
 287 663 287 663 271 678 c 128,-1,20
EndSplineSet
EndChar

StartChar: Zcaron
Encoding: 381 381 69
Width: 452
Flags: HMW
HStem: 0 143<263 442 263 442> 466 155<20 213 20 20> 652 129<172 172 172 210 263 302>
LayerCount: 2
Fore
SplineSet
442 0 m 1,0,-1
 34 0 l 1,1,-1
 30 92 l 1,2,-1
 213 466 l 1,3,-1
 20 466 l 1,4,-1
 10 621 l 1,5,-1
 432 621 l 1,6,-1
 437 523 l 1,7,-1
 263 143 l 1,8,-1
 442 143 l 1,9,-1
 442 0 l 1,0,-1
172 652 m 1,10,-1
 117 781 l 1,11,-1
 210 781 l 1,12,-1
 236 733 l 1,13,-1
 263 781 l 1,14,-1
 356 781 l 1,15,-1
 302 652 l 1,16,-1
 172 652 l 1,10,-1
EndSplineSet
EndChar

StartChar: ampersand
Encoding: 38 38 70
Width: 609
Flags: HMW
HStem: -10 125<510 531 531 582> 496 148<266.5 290.5>
VStem: 32 159<166 199.5 166 230> 89 155<453.5 473 448 535> 313 145<446 472.5> 437 132<284 293 293 327 255 327>
LayerCount: 2
Fore
SplineSet
389 25 m 1,0,1
 324 -10 324 -10 230.5 -10 c 128,-1,2
 137 -10 137 -10 84.5 39 c 128,-1,3
 32 88 32 88 32 182 c 0,4,5
 32 249 32 249 59 286.5 c 128,-1,6
 86 324 86 324 138 351 c 1,7,8
 89 412 89 412 89 487.5 c 0,9,10
 89 644 89 644 273.5 644 c 128,-1,11
 458 644 458 644 458 488 c 0,12,13
 458 422 458 422 433 384 c 128,-1,14
 408 346 408 346 345 310 c 1,15,-1
 421 215 l 1,16,-1
 425 215 l 1,17,18
 437 240 437 240 437 284 c 2,19,-1
 437 327 l 1,20,-1
 569 327 l 1,21,-1
 569 293 l 2,22,23
 569 182 569 182 510 122 c 1,24,-1
 510 115 l 1,25,-1
 592 115 l 1,26,-1
 582 -10 l 1,27,-1
 531 -10 l 2,28,29
 477 -10 477 -10 449 -3 c 128,-1,30
 421 4 421 4 389 25 c 1,0,1
249 123 m 2,31,-1
 310 123 l 1,32,-1
 310 127 l 1,33,-1
 216 241 l 1,34,35
 191 220 191 220 191 188 c 0,36,37
 191 123 191 123 249 123 c 2,31,-1
313 459 m 0,38,39
 313 496 313 496 278.5 496 c 128,-1,40
 244 496 244 496 244 461 c 0,41,42
 244 435 244 435 277 402 c 1,43,44
 293 416 293 416 298.5 421.5 c 0,45,46
 313 436 313 436 313 459 c 0,38,39
EndSplineSet
EndChar

StartChar: a
Encoding: 97 97 71
Width: 436
Flags: HMW
HStem: -10 125<327 428> 341 150<209 210>
VStem: 14 153<132 161.5 132 191> 228 158<134 313 134 321>
LayerCount: 2
Fore
SplineSet
391 354 m 1,0,-1
 386 147 l 2,1,2
 386 128 386 128 395.5 121.5 c 128,-1,3
 405 115 405 115 428 115 c 1,4,-1
 413 -6 l 1,5,6
 355 -10 355 -10 349 -10 c 0,7,8
 275 -10 275 -10 255 41 c 1,9,-1
 250 41 l 1,10,11
 213 -10 213 -10 136 -10 c 0,12,13
 77 -10 77 -10 45.5 28 c 128,-1,14
 14 66 14 66 14 132 c 0,15,16
 14 215 14 215 65.5 247 c 128,-1,17
 117 279 117 279 228 289 c 1,18,-1
 228 313 l 2,19,20
 228 341 228 341 200 341 c 0,21,22
 152 341 152 341 50 312 c 1,23,-1
 25 458 l 1,24,25
 153 491 153 491 238 491 c 128,-1,26
 323 491 323 491 357 458 c 128,-1,27
 391 425 391 425 391 354 c 1,0,-1
198 107 m 0,28,29
 235 107 235 107 235 146 c 2,30,-1
 235 195 l 1,31,32
 198 190 198 190 182.5 179.5 c 128,-1,33
 167 169 167 169 167 144 c 0,34,35
 167 107 167 107 198 107 c 0,28,29
EndSplineSet
EndChar

StartChar: b
Encoding: 98 98 72
Width: 466
Flags: HMW
HStem: -10 130<229.5 348> 0 21G<30 161 30 30> 348 142<227.5 352> 621 20G<30 197 197 197>
VStem: 30 166<129 336 129 641> 274 168<198.5 271.5>
LayerCount: 2
Fore
SplineSet
411 435.5 m 128,-1,1
 442 381 442 381 442 248.5 c 128,-1,2
 442 116 442 116 409 53 c 128,-1,3
 376 -10 376 -10 280 -10 c 0,4,5
 205 -10 205 -10 175 29 c 1,6,-1
 171 29 l 1,7,-1
 161 0 l 1,8,-1
 30 0 l 1,9,-1
 30 641 l 1,10,-1
 197 641 l 1,11,-1
 197 468 l 1,12,-1
 201 468 l 1,13,14
 234 490 234 490 286 490 c 0,15,0
 380 490 380 490 411 435.5 c 128,-1,1
273 185 m 128,-1,17
 274 202 274 202 274 249.5 c 128,-1,18
 274 297 274 297 267 322.5 c 128,-1,19
 260 348 260 348 238.5 348 c 128,-1,20
 217 348 217 348 196 336 c 1,21,-1
 196 129 l 1,22,23
 215 120 215 120 232.5 120 c 128,-1,24
 250 120 250 120 257.5 126.5 c 128,-1,25
 265 133 265 133 268.5 150.5 c 128,-1,16
 272 168 272 168 273 185 c 128,-1,17
EndSplineSet
EndChar

StartChar: c
Encoding: 99 99 73
Width: 345
Flags: HMW
HStem: -10 140<217.5 237.5> 345 146<218 245 151 250>
VStem: 22 168<202 271.5 202 305.5>
LayerCount: 2
Fore
SplineSet
200 318.5 m 128,-1,1
 190 292 190 292 190 236 c 128,-1,2
 190 180 190 180 199.5 155 c 128,-1,3
 209 130 209 130 239.5 130 c 128,-1,4
 270 130 270 130 319 141 c 1,5,-1
 337 13 l 1,6,7
 268 -10 268 -10 214 -10 c 0,8,9
 119 -10 119 -10 70.5 54 c 128,-1,10
 22 118 22 118 22 233 c 128,-1,11
 22 348 22 348 72 419.5 c 128,-1,12
 122 491 122 491 217 491 c 0,13,14
 288 491 288 491 345 467 c 1,15,-1
 327 320 l 1,16,17
 269 345 269 345 239.5 345 c 128,-1,0
 210 345 210 345 200 318.5 c 128,-1,1
EndSplineSet
EndChar

StartChar: d
Encoding: 100 100 74
Width: 477
Flags: HMW
HStem: -10 132<124.5 236.5 211.5 399.5> 350 141<131.5 238.5> 621 20G<265 432 432 432>
VStem: 24 168<200.5 273.5 200.5 324.5> 270 162<134.5 147 147 338 338 338>
LayerCount: 2
Fore
SplineSet
454 -6 m 1,0,-1
 387 -10 l 1,1,2
 310 -10 310 -10 293 41 c 1,3,-1
 288 41 l 1,4,5
 255 -10 255 -10 187 -10 c 0,6,7
 97 -10 97 -10 60.5 53 c 128,-1,8
 24 116 24 116 24 240.5 c 128,-1,9
 24 365 24 365 65 428 c 128,-1,10
 106 491 106 491 183 491 c 0,11,12
 236 491 236 491 265 466 c 1,13,-1
 265 641 l 1,14,-1
 432 641 l 1,15,-1
 432 147 l 2,16,17
 432 128 432 128 440 121.5 c 128,-1,18
 448 115 448 115 469 115 c 1,19,-1
 454 -6 l 1,0,-1
199 324.5 m 128,-1,21
 192 299 192 299 192 251.5 c 128,-1,22
 192 204 192 204 193 187 c 128,-1,23
 194 170 194 170 197.5 152.5 c 128,-1,24
 201 135 201 135 208.5 128.5 c 128,-1,25
 216 122 216 122 233.5 122 c 128,-1,26
 251 122 251 122 270 131 c 1,27,-1
 270 338 l 1,28,29
 249 350 249 350 227.5 350 c 128,-1,20
 206 350 206 350 199 324.5 c 128,-1,21
EndSplineSet
EndChar

StartChar: e
Encoding: 101 101 75
Width: 442
Flags: HMW
HStem: -10 127<237.5 266.5> 192 85<191 275 188 419 191 191> 348 143<211.5 247>
VStem: 22 169<166 192 166 322>
LayerCount: 2
Fore
SplineSet
230 348 m 0,0,1
 204 348 204 348 196 330.5 c 128,-1,2
 188 313 188 313 188 277 c 1,3,-1
 275 277 l 1,4,-1
 275 301 l 2,5,6
 275 348 275 348 230 348 c 0,0,1
234 491 m 0,7,8
 337 491 337 491 381.5 441.5 c 128,-1,9
 426 392 426 392 426 300 c 0,10,11
 426 288 426 288 419 192 c 1,12,-1
 191 192 l 1,13,14
 191 117 191 117 260 117 c 0,15,16
 293 117 293 117 389 140 c 1,17,-1
 403 16 l 1,18,19
 319 -10 319 -10 235 -10 c 0,20,21
 132 -10 132 -10 77 57.5 c 128,-1,22
 22 125 22 125 22 241 c 0,23,24
 22 491 22 491 234 491 c 0,7,8
EndSplineSet
EndChar

StartChar: f
Encoding: 102 102 76
Width: 293
Flags: HMW
HStem: 0 21G<53 220 53 53> 341 124<9 53 9 53 220 292 220 220> 628 20G<142 210>
VStem: 53 167<0 341 0 341 0 515>
LayerCount: 2
Fore
SplineSet
188 648 m 0,0,1
 250 648 250 648 318 642 c 1,2,-1
 304 496 l 1,3,4
 259 501 259 501 238.5 501 c 0,5,6
 218 501 218 501 218 483 c 2,7,-1
 218 465 l 1,8,-1
 300 465 l 1,9,-1
 292 341 l 1,10,-1
 220 341 l 1,11,-1
 220 0 l 1,12,-1
 53 0 l 1,13,-1
 53 341 l 1,14,-1
 9 341 l 1,15,-1
 9 465 l 1,16,-1
 53 465 l 1,17,-1
 53 515 l 2,18,19
 53 648 53 648 188 648 c 0,0,1
EndSplineSet
EndChar

StartChar: g
Encoding: 103 103 77
Width: 450
Flags: HMW
HStem: -147 103<175 278 278 283> -9 117<169.5 317 181 278> 141 99<176 238.5 211.5 230> 360 131<215 237.5> 379 112<379 451 379 379>
VStem: 25 134 25 164<287.5 320 281.5 381> 259 152<280.5 316 248.5 319.5>
LayerCount: 2
Fore
SplineSet
175 -44 m 2,0,-1
 278 -44 l 2,1,2
 296 -44 296 -44 296 -28 c 2,3,-1
 296 -24 l 2,4,5
 296 -9 296 -9 278 -9 c 2,6,-1
 175 -9 l 2,7,8
 159 -9 159 -9 159 -25 c 2,9,-1
 159 -29 l 2,10,11
 159 -44 159 -44 175 -44 c 2,0,-1
215 491 m 2,12,-1
 451 491 l 1,13,-1
 451 379 l 1,14,-1
 379 379 l 1,15,-1
 379 374 l 1,16,17
 411 346 411 346 411 301 c 0,18,19
 411 141 411 141 230 141 c 2,20,-1
 182 141 l 2,21,22
 164 141 164 141 164 124.5 c 128,-1,23
 164 108 164 108 181 108 c 2,24,-1
 317 108 l 2,25,26
 432 108 432 108 432 8 c 0,27,28
 432 -74 432 -74 377 -110.5 c 128,-1,29
 322 -147 322 -147 225 -147 c 128,-1,30
 128 -147 128 -147 78.5 -126.5 c 128,-1,31
 29 -106 29 -106 29 -50 c 0,32,33
 29 -19 29 -19 68 2 c 1,34,-1
 68 6 l 1,35,36
 19 33 19 33 19 84 c 0,37,38
 19 144 19 144 96 175 c 1,39,40
 60 201 60 201 42.5 235.5 c 128,-1,41
 25 270 25 270 25 327 c 0,42,43
 25 406 25 406 76.5 448.5 c 128,-1,44
 128 491 128 491 215 491 c 2,12,-1
251.5 345.5 m 128,-1,46
 244 360 244 360 224 360 c 128,-1,47
 204 360 204 360 196.5 345.5 c 128,-1,48
 189 331 189 331 189 301 c 0,49,50
 189 240 189 240 225 240 c 0,51,52
 259 240 259 240 259 299 c 0,53,45
 259 331 259 331 251.5 345.5 c 128,-1,46
EndSplineSet
EndChar

StartChar: h
Encoding: 104 104 78
Width: 467
Flags: HMW
HStem: 0 21G<30 198 30 30 267 437 267 267> 337 154<236.5 365> 621 20G<30 197 197 197>
VStem: 30 168<0 323 0 641> 267 170<0 312 312 319.5>
LayerCount: 2
Fore
SplineSet
201 444 m 1,0,1
 256 491 256 491 320 491 c 128,-1,2
 384 491 384 491 410.5 460.5 c 128,-1,3
 437 430 437 430 437 369 c 2,4,-1
 437 0 l 1,5,-1
 267 0 l 1,6,-1
 267 312 l 2,7,8
 267 337 267 337 245 337 c 0,9,10
 217 337 217 337 198 323 c 1,11,-1
 198 0 l 1,12,-1
 30 0 l 1,13,-1
 30 641 l 1,14,-1
 197 641 l 1,15,-1
 197 444 l 1,16,-1
 201 444 l 1,0,1
EndSplineSet
EndChar

StartChar: i
Encoding: 105 105 79
Width: 232
Flags: HMW
HStem: 0 21G<34 199 34 34> 494 154<84 149>
VStem: 34 165<0 474>
LayerCount: 2
Fore
SplineSet
199 0 m 1,0,-1
 34 0 l 1,1,-1
 34 474 l 1,2,-1
 199 474 l 1,3,-1
 199 0 l 1,0,-1
26 570 m 128,-1,5
 26 610 26 610 47 629 c 128,-1,6
 68 648 68 648 116 648 c 0,7,8
 164 648 164 648 185 629 c 128,-1,9
 206 610 206 610 206 570.5 c 0,10,11
 206 531 206 531 185 512.5 c 128,-1,12
 164 494 164 494 116 494 c 0,13,14
 68 494 68 494 47 512 c 128,-1,4
 26 530 26 530 26 570 c 128,-1,5
EndSplineSet
EndChar

StartChar: j
Encoding: 106 106 80
Width: 248
Flags: HMW
HStem: -147 21G<-4 46 -4 -4> -9 21G<-18 16 16 27.5> 494 154<91 156>
VStem: 42 167<15 474>
LayerCount: 2
Fore
SplineSet
209 474 m 1,0,-1
 209 -12 l 2,1,2
 209 -90 209 -90 174.5 -118.5 c 128,-1,3
 140 -147 140 -147 46 -147 c 2,4,-1
 -4 -147 l 1,5,-1
 -18 -9 l 1,6,-1
 16 -9 l 2,7,8
 33 -9 33 -9 37.5 -4.5 c 128,-1,9
 42 0 42 0 42 15 c 2,10,-1
 42 474 l 1,11,-1
 209 474 l 1,0,-1
33 570 m 128,-1,13
 33 610 33 610 54 629 c 128,-1,14
 75 648 75 648 123 648 c 0,15,16
 171 648 171 648 192 629 c 128,-1,17
 213 610 213 610 213 570.5 c 0,18,19
 213 531 213 531 192 512.5 c 128,-1,20
 171 494 171 494 123 494 c 0,21,22
 75 494 75 494 54 512 c 128,-1,12
 33 530 33 530 33 570 c 128,-1,13
EndSplineSet
EndChar

StartChar: k
Encoding: 107 107 81
Width: 442
Flags: HMW
HStem: 0 21G<30 193 30 30 258 443 258 258> 459 20G<272 447 447 447> 621 20G<30 195 195 195>
VStem: 30 165<288 641 288 641 288 641>
LayerCount: 2
Fore
SplineSet
443 0 m 1,0,-1
 258 0 l 1,1,-1
 197 184 l 1,2,-1
 193 184 l 1,3,-1
 193 0 l 1,4,-1
 30 0 l 1,5,-1
 30 641 l 1,6,-1
 195 641 l 1,7,-1
 195 288 l 1,8,-1
 199 288 l 1,9,-1
 272 479 l 1,10,-1
 447 479 l 1,11,-1
 346 240 l 1,12,-1
 443 0 l 1,0,-1
EndSplineSet
EndChar

StartChar: l
Encoding: 108 108 82
Width: 233
Flags: HMW
HStem: -10 21G<118.5 161 161 216> 621 20G<30 195 195 195>
VStem: 30 165<152 163 163 641>
LayerCount: 2
Fore
SplineSet
30 110 m 2,0,-1
 30 641 l 1,1,-1
 195 641 l 1,2,-1
 195 163 l 2,3,4
 195 146 195 146 202.5 139 c 128,-1,5
 210 132 210 132 229 132 c 1,6,-1
 216 -10 l 1,7,-1
 161 -10 l 2,8,9
 95 -10 95 -10 62.5 17.5 c 128,-1,10
 30 45 30 45 30 110 c 2,0,-1
EndSplineSet
EndChar

StartChar: m
Encoding: 109 109 83
Width: 706
Flags: HMW
HStem: 0 21G<30 198 30 30 267 437 267 267 506 676 506 506> 337 154<236.5 350.5 291.5 491.5> 459 20G<30 183 183 183>
VStem: 30 168<0 323 0 479 0 479> 267 170<0 312 312 319.5> 506 170<0 312 312 319.5>
LayerCount: 2
Fore
SplineSet
436 444 m 1,0,1
 491 491 491 491 557 491 c 128,-1,2
 623 491 623 491 649.5 460.5 c 128,-1,3
 676 430 676 430 676 369 c 2,4,-1
 676 0 l 1,5,-1
 506 0 l 1,6,-1
 506 312 l 2,7,8
 506 337 506 337 484 337 c 0,9,10
 456 337 456 337 437 323 c 1,11,-1
 437 0 l 1,12,-1
 267 0 l 1,13,-1
 267 312 l 2,14,15
 267 337 267 337 245 337 c 0,16,17
 217 337 217 337 198 323 c 1,18,-1
 198 0 l 1,19,-1
 30 0 l 1,20,-1
 30 479 l 1,21,-1
 183 479 l 1,22,-1
 193 444 l 1,23,-1
 197 444 l 1,24,25
 252 491 252 491 327.5 491 c 128,-1,26
 403 491 403 491 426 435 c 1,27,-1
 436 444 l 1,0,1
EndSplineSet
EndChar

StartChar: n
Encoding: 110 110 84
Width: 467
Flags: HMW
HStem: 0 21G<30 198 30 30 267 437 267 267> 337 154<236.5 365> 459 20G<30 183 183 183>
VStem: 30 168<0 323 0 479 0 479> 267 170<0 312 312 319.5>
LayerCount: 2
Fore
SplineSet
197 444 m 1,0,1
 252 491 252 491 318 491 c 128,-1,2
 384 491 384 491 410.5 460.5 c 128,-1,3
 437 430 437 430 437 369 c 2,4,-1
 437 0 l 1,5,-1
 267 0 l 1,6,-1
 267 312 l 2,7,8
 267 337 267 337 245 337 c 0,9,10
 217 337 217 337 198 323 c 1,11,-1
 198 0 l 1,12,-1
 30 0 l 1,13,-1
 30 479 l 1,14,-1
 183 479 l 1,15,-1
 193 444 l 1,16,-1
 197 444 l 1,0,1
EndSplineSet
EndChar

StartChar: o
Encoding: 111 111 85
Width: 458
Flags: HMW
HStem: -10 125<212.5 248 212.5 303.5> 356 135<212 248>
VStem: 22 168<183 228 228 252 183 329.5> 269 167<222 251 251 292>
LayerCount: 2
Fore
SplineSet
72.5 432 m 128,-1,1
 123 491 123 491 230.5 491 c 128,-1,2
 338 491 338 491 387 433 c 128,-1,3
 436 375 436 375 436 242.5 c 128,-1,4
 436 110 436 110 388 50 c 128,-1,5
 340 -10 340 -10 231 -10 c 128,-1,6
 122 -10 122 -10 72 50 c 128,-1,7
 22 110 22 110 22 241.5 c 128,-1,0
 22 373 22 373 72.5 432 c 128,-1,1
230 356 m 128,-1,9
 204 356 204 356 197 336 c 128,-1,10
 190 316 190 316 190 252 c 2,11,-1
 190 228 l 2,12,13
 190 157 190 157 197 136 c 128,-1,14
 204 115 204 115 229.5 115 c 128,-1,15
 255 115 255 115 262 136 c 128,-1,16
 269 157 269 157 269 222 c 2,17,-1
 269 251 l 2,18,19
 269 316 269 316 262.5 336 c 128,-1,8
 256 356 256 356 230 356 c 128,-1,9
EndSplineSet
EndChar

StartChar: p
Encoding: 112 112 86
Width: 466
Flags: HMW
HStem: -137 21G<30 198 30 30> -11 131<229.5 343> 348 142<227.5 347.5> 459 20G<30 168 168 168>
VStem: 30 166<129 336 129 479 129 479> 274 168<198.5 271.5>
LayerCount: 2
Fore
SplineSet
198 11 m 1,0,-1
 198 -137 l 1,1,-1
 30 -137 l 1,2,-1
 30 479 l 1,3,-1
 168 479 l 1,4,-1
 178 449 l 1,5,-1
 183 449 l 1,6,7
 211 490 211 490 293 490 c 128,-1,8
 375 490 375 490 408.5 433 c 128,-1,9
 442 376 442 376 442 246 c 128,-1,10
 442 116 442 116 406.5 52.5 c 128,-1,11
 371 -11 371 -11 276 -11 c 0,12,13
 232 -11 232 -11 202 11 c 1,14,-1
 198 11 l 1,0,-1
273 185 m 128,-1,16
 274 202 274 202 274 249.5 c 128,-1,17
 274 297 274 297 267 322.5 c 128,-1,18
 260 348 260 348 238.5 348 c 128,-1,19
 217 348 217 348 196 336 c 1,20,-1
 196 129 l 1,21,22
 215 120 215 120 232.5 120 c 128,-1,23
 250 120 250 120 257.5 126.5 c 128,-1,24
 265 133 265 133 268.5 150.5 c 128,-1,15
 272 168 272 168 273 185 c 128,-1,16
EndSplineSet
EndChar

StartChar: q
Encoding: 113 113 87
Width: 466
Flags: HMW
HStem: -137 21G<268 268 268 436> -10 132<125.5 236.5> 350 141<131.5 238.5> 459 20G<298 436 436 436>
VStem: 24 168<200.5 273.5 200.5 322> 270 166<131 338 338 338>
LayerCount: 2
Fore
SplineSet
268 -137 m 1,0,-1
 268 15 l 1,1,-1
 264 15 l 1,2,3
 229 -10 229 -10 188 -10 c 0,4,5
 98 -10 98 -10 61 53.5 c 128,-1,6
 24 117 24 117 24 239.5 c 128,-1,7
 24 362 24 362 65 426.5 c 128,-1,8
 106 491 106 491 179 491 c 128,-1,9
 252 491 252 491 283 449 c 1,10,-1
 288 449 l 1,11,-1
 298 479 l 1,12,-1
 436 479 l 1,13,-1
 436 -137 l 1,14,-1
 268 -137 l 1,0,-1
199 324.5 m 128,-1,16
 192 299 192 299 192 251.5 c 128,-1,17
 192 204 192 204 193 187 c 128,-1,18
 194 170 194 170 197.5 152.5 c 128,-1,19
 201 135 201 135 208.5 128.5 c 128,-1,20
 216 122 216 122 233.5 122 c 128,-1,21
 251 122 251 122 270 131 c 1,22,-1
 270 338 l 1,23,24
 249 350 249 350 227.5 350 c 128,-1,15
 206 350 206 350 199 324.5 c 128,-1,16
EndSplineSet
EndChar

StartChar: r
Encoding: 114 114 88
Width: 313
Flags: HMW
HStem: 0 21G<30 196 30 30> 459 20G<30 176 176 176> 471 20G<278.5 313>
VStem: 30 166<0 269 0 479>
LayerCount: 2
Fore
SplineSet
196 269 m 2,0,-1
 196 0 l 1,1,-1
 30 0 l 1,2,-1
 30 479 l 1,3,-1
 176 479 l 1,4,-1
 186 450 l 1,5,-1
 190 450 l 1,6,7
 213 476 213 476 236.5 483.5 c 128,-1,8
 260 491 260 491 313 491 c 1,9,-1
 306 331 l 1,10,-1
 260 331 l 2,11,12
 221 331 221 331 208.5 319 c 128,-1,13
 196 307 196 307 196 269 c 2,0,-1
EndSplineSet
EndChar

StartChar: s
Encoding: 115 115 89
Width: 342
Flags: HMW
HStem: -10 128<159 181 159 234> 355 136<168 188.5>
LayerCount: 2
Fore
SplineSet
48.5 450.5 m 128,-1,1
 93 491 93 491 171 491 c 128,-1,2
 249 491 249 491 329 471 c 1,3,-1
 312 332 l 1,4,5
 210 355 210 355 175 355 c 0,6,7
 154 355 154 355 154 338 c 0,8,9
 154 327 154 327 177 318 c 0,10,11
 257 289 257 289 297.5 252 c 128,-1,12
 338 215 338 215 338 141 c 128,-1,13
 338 67 338 67 300 28.5 c 128,-1,14
 262 -10 262 -10 183.5 -10 c 128,-1,15
 105 -10 105 -10 27 10 c 1,16,-1
 38 145 l 1,17,18
 138 118 138 118 167.5 118 c 128,-1,19
 197 118 197 118 197 132 c 128,-1,20
 197 146 197 146 175 154 c 0,21,22
 86 188 86 188 45 226.5 c 128,-1,23
 4 265 4 265 4 337.5 c 128,-1,0
 4 410 4 410 48.5 450.5 c 128,-1,1
EndSplineSet
EndChar

StartChar: t
Encoding: 116 116 90
Width: 317
Flags: HMW
HStem: -10 139<140 250> 349 124<8 56 8 64 224 306> 545 20G<73 224 224 224>
VStem: 56 167<142.5 150 150 349>
LayerCount: 2
Fore
SplineSet
300 -1 m 1,0,1
 226 -10 226 -10 171.5 -10 c 128,-1,2
 117 -10 117 -10 86.5 18.5 c 128,-1,3
 56 47 56 47 56 117 c 2,4,-1
 56 349 l 1,5,-1
 8 349 l 1,6,-1
 8 473 l 1,7,-1
 64 473 l 1,8,-1
 73 565 l 1,9,-1
 224 565 l 1,10,-1
 224 473 l 1,11,-1
 313 473 l 1,12,-1
 306 349 l 1,13,-1
 223 349 l 1,14,-1
 223 150 l 2,15,16
 223 129 223 129 243 129 c 0,17,18
 245 129 245 129 305 132 c 1,19,-1
 300 -1 l 1,0,1
EndSplineSet
EndChar

StartChar: u
Encoding: 117 117 91
Width: 467
Flags: HMW
HStem: -10 148<106 230.5> 459 20G<30 200 200 200 269 437 437 437>
VStem: 30 170<155.5 163 163 479> 269 168<152 479 2 479>
LayerCount: 2
Fore
SplineSet
149 -10 m 0,0,1
 30 -10 30 -10 30 122 c 2,2,-1
 30 479 l 1,3,-1
 200 479 l 1,4,-1
 200 163 l 2,5,6
 200 138 200 138 222 138 c 0,7,8
 250 138 250 138 269 152 c 1,9,-1
 269 479 l 1,10,-1
 437 479 l 1,11,-1
 437 2 l 1,12,-1
 278 2 l 1,13,-1
 278 37 l 1,14,-1
 274 37 l 1,15,16
 219 -10 219 -10 149 -10 c 0,0,1
EndSplineSet
EndChar

StartChar: v
Encoding: 118 118 92
Width: 441
Flags: HMW
HStem: 0 21G<103 339 103 103> 459 20G<0 176 176 176 278 441 441 441>
LayerCount: 2
Fore
SplineSet
441 479 m 1,0,-1
 339 0 l 1,1,-1
 103 0 l 1,2,-1
 0 479 l 1,3,-1
 176 479 l 1,4,-1
 219 172 l 1,5,-1
 232 172 l 1,6,-1
 278 479 l 1,7,-1
 441 479 l 1,0,-1
EndSplineSet
EndChar

StartChar: w
Encoding: 119 119 93
Width: 578
Flags: HMW
HStem: 0 21G<66 245 66 66 329 512 329 329> 459 20G<5 159 159 159 222 361 361 361 425 573 573 573>
LayerCount: 2
Fore
SplineSet
573 479 m 1,0,-1
 512 0 l 1,1,-1
 329 0 l 1,2,-1
 290 202 l 1,3,-1
 283 202 l 1,4,-1
 245 0 l 1,5,-1
 66 0 l 1,6,-1
 5 479 l 1,7,-1
 159 479 l 1,8,-1
 180 237 l 1,9,-1
 188 237 l 1,10,-1
 222 479 l 1,11,-1
 361 479 l 1,12,-1
 394 237 l 1,13,-1
 403 237 l 1,14,-1
 425 479 l 1,15,-1
 573 479 l 1,0,-1
EndSplineSet
EndChar

StartChar: x
Encoding: 120 120 94
Width: 433
Flags: HMW
HStem: 0 21G<6 178 6 6 250 427 250 250> 459 20G<6 188 188 188 254 425 425 425>
LayerCount: 2
Fore
SplineSet
427 0 m 1,0,-1
 250 0 l 1,1,-1
 216 141 l 1,2,-1
 210 141 l 1,3,-1
 178 0 l 1,4,-1
 6 0 l 1,5,-1
 87 233 l 1,6,-1
 6 479 l 1,7,-1
 188 479 l 1,8,-1
 217 326 l 1,9,-1
 223 326 l 1,10,-1
 254 479 l 1,11,-1
 425 479 l 1,12,-1
 345 236 l 1,13,-1
 427 0 l 1,0,-1
EndSplineSet
EndChar

StartChar: y
Encoding: 121 121 95
Width: 445
Flags: HMW
HStem: -147 129<44 85 85 98 29 144 44 44> 459 20G<0 178 178 178 281 445 445 445>
LayerCount: 2
Fore
SplineSet
445 479 m 1,0,-1
 321 -14 l 2,1,2
 302 -88 302 -88 265 -117.5 c 128,-1,3
 228 -147 228 -147 144 -147 c 2,4,-1
 44 -147 l 1,5,-1
 29 -18 l 1,6,-1
 85 -18 l 2,7,8
 119 -18 119 -18 119 9 c 0,9,10
 119 15 119 15 115 35 c 1,11,-1
 0 479 l 1,12,-1
 178 479 l 1,13,-1
 223 180 l 1,14,-1
 232 180 l 1,15,-1
 281 479 l 1,16,-1
 445 479 l 1,0,-1
EndSplineSet
EndChar

StartChar: z
Encoding: 122 122 96
Width: 393
Flags: HMW
HStem: 0 138<234 381 234 381> 339 140<12 166 12 371>
LayerCount: 2
Fore
SplineSet
381 0 m 1,0,-1
 22 0 l 1,1,-1
 18 96 l 1,2,-1
 166 339 l 1,3,-1
 12 339 l 1,4,-1
 12 479 l 1,5,-1
 371 479 l 1,6,-1
 377 390 l 1,7,-1
 234 138 l 1,8,-1
 381 138 l 1,9,-1
 381 0 l 1,0,-1
EndSplineSet
EndChar

StartChar: eth
Encoding: 240 240 97
Width: 472
Flags: HMW
HStem: -10 132<215.5 252 215.5 306.5> 281 119<135 249.5> 639 20G<372 372>
VStem: 22 168<172.5 221.5 172.5 272.5> 275 175<184.5 230.5>
LayerCount: 2
Fore
SplineSet
183 400 m 0,0,1
 221 400 221 400 257 394 c 1,2,-1
 260 397 l 1,3,4
 247 434 247 434 220 457 c 1,5,-1
 114 402 l 1,6,-1
 114 494 l 1,7,-1
 136 506 l 1,8,9
 103 512 103 512 63 512 c 1,10,-1
 63 643 l 1,11,12
 205 643 205 643 279 613 c 1,13,-1
 372 659 l 1,14,-1
 372 548 l 1,15,-1
 356 539 l 1,16,17
 450 445 450 445 450 265 c 0,18,19
 450 126 450 126 397 58 c 128,-1,20
 344 -10 344 -10 228 -10 c 0,21,22
 22 -10 22 -10 22 208 c 0,23,24
 22 302 22 302 65.5 351 c 128,-1,25
 109 400 109 400 183 400 c 0,0,1
233 281 m 0,26,27
 208 281 208 281 199 260 c 128,-1,28
 190 239 190 239 190 198.5 c 0,29,30
 190 158 190 158 199 140 c 128,-1,31
 208 122 208 122 233.5 122 c 0,32,33
 259 122 259 122 267 144 c 128,-1,34
 275 166 275 166 275 208 c 0,35,36
 275 281 275 281 233 281 c 0,26,27
EndSplineSet
EndChar

StartChar: thorn
Encoding: 254 254 98
Width: 466
Flags: HMW
HStem: -137 21G<30 198 30 30> -11 131<229.5 344.5> 348 142<227.5 352> 621 20G<30 197 197 197>
VStem: 30 167<468 641 468 641 468 641> 274 168<198.5 271.5>
LayerCount: 2
Fore
SplineSet
411 435.5 m 128,-1,1
 442 381 442 381 442 248.5 c 128,-1,2
 442 116 442 116 407.5 52.5 c 128,-1,3
 373 -11 373 -11 276 -11 c 0,4,5
 231 -11 231 -11 198 8 c 1,6,-1
 198 -137 l 1,7,-1
 30 -137 l 1,8,-1
 30 641 l 1,9,-1
 197 641 l 1,10,-1
 197 468 l 1,11,-1
 201 468 l 1,12,13
 230 490 230 490 286 490 c 0,14,0
 380 490 380 490 411 435.5 c 128,-1,1
273 185 m 128,-1,16
 274 202 274 202 274 249.5 c 128,-1,17
 274 297 274 297 267 322.5 c 128,-1,18
 260 348 260 348 238.5 348 c 128,-1,19
 217 348 217 348 196 336 c 1,20,-1
 196 129 l 1,21,22
 215 120 215 120 232.5 120 c 128,-1,23
 250 120 250 120 257.5 126.5 c 128,-1,24
 265 133 265 133 268.5 150.5 c 128,-1,15
 272 168 272 168 273 185 c 128,-1,16
EndSplineSet
EndChar

StartChar: germandbls
Encoding: 223 223 99
Width: 504
Flags: HMW
HStem: -10 142<276 386.5> 0 21G<53 220 53 53 241 241> 508 147<245 275>
VStem: 53 167<0 341 341 341 465 469 0 481 0 542> 305 174<447 466.5> 327 173<172 216.5>
LayerCount: 2
Fore
SplineSet
246 135 m 1,0,-1
 282 132 l 1,1,2
 327 132 327 132 327 191 c 0,3,4
 327 261 327 261 241 261 c 1,5,-1
 241 386 l 1,6,7
 275 386 275 386 290 401.5 c 128,-1,8
 305 417 305 417 305 449 c 0,9,10
 305 508 305 508 257 508 c 0,11,12
 220 508 220 508 220 469 c 2,13,-1
 220 0 l 1,14,-1
 53 0 l 1,15,-1
 53 341 l 1,16,-1
 9 341 l 1,17,-1
 9 465 l 1,18,-1
 53 465 l 1,19,-1
 53 481 l 2,20,21
 53 571 53 571 104.5 613 c 128,-1,22
 156 655 156 655 261.5 655 c 128,-1,23
 367 655 367 655 423 608.5 c 128,-1,24
 479 562 479 562 479 473.5 c 128,-1,25
 479 385 479 385 418 341 c 1,26,-1
 418 337 l 1,27,28
 500 295 500 295 500 179 c 0,29,30
 500 88 500 88 457 39 c 128,-1,31
 414 -10 414 -10 328 -10 c 0,32,33
 297 -10 297 -10 241 0 c 1,34,-1
 246 135 l 1,0,-1
EndSplineSet
EndChar

StartChar: ae
Encoding: 230 230 100
Width: 643
Flags: HMW
HStem: -10 127<439.5 468.5> 196 83<393 477 390 622 393 393> 341 150<209 210>
VStem: 14 153<132 161.5 132 191> 228 165<170 313 170 321>
LayerCount: 2
Fore
SplineSet
47.5 27.5 m 128,-1,1
 14 65 14 65 14 140 c 128,-1,2
 14 215 14 215 65.5 247 c 128,-1,3
 117 279 117 279 228 289 c 1,4,-1
 228 313 l 2,5,6
 228 341 228 341 200 341 c 0,7,8
 152 341 152 341 50 312 c 1,9,-1
 25 458 l 1,10,11
 153 491 153 491 245 491 c 0,12,13
 298 491 298 491 335 466 c 1,14,15
 377 491 377 491 436 491 c 0,16,17
 539 491 539 491 583.5 441.5 c 128,-1,18
 628 392 628 392 628 300 c 0,19,20
 628 242 628 242 622 196 c 1,21,-1
 393 196 l 1,22,23
 393 117 393 117 462 117 c 0,24,25
 495 117 495 117 591 140 c 1,26,-1
 609 18 l 1,27,28
 518 -10 518 -10 429.5 -10 c 128,-1,29
 341 -10 341 -10 293 52 c 1,30,-1
 289 52 l 1,31,32
 235 -10 235 -10 141 -10 c 0,33,0
 81 -10 81 -10 47.5 27.5 c 128,-1,1
432 350 m 0,34,35
 406 350 406 350 398 332.5 c 128,-1,36
 390 315 390 315 390 279 c 1,37,-1
 477 279 l 1,38,-1
 477 303 l 2,39,40
 477 350 477 350 432 350 c 0,34,35
198 107 m 0,41,42
 235 107 235 107 235 146 c 2,43,-1
 235 195 l 1,44,45
 198 190 198 190 182.5 179.5 c 128,-1,46
 167 169 167 169 167 144 c 0,47,48
 167 107 167 107 198 107 c 0,41,42
EndSplineSet
EndChar

StartChar: oe
Encoding: 339 339 101
Width: 684
Flags: HMW
HStem: -10 127<480.5 509.5> 196 83<434 518 431 663 434 434> 356 135<207 243>
VStem: 17 168<183 228 228 252 183 329.5> 264 170<170 251 170 292>
LayerCount: 2
Fore
SplineSet
352 451 m 1,0,1
 395 491 395 491 487.5 491 c 0,2,3
 669 491 669 491 669 300 c 0,4,5
 669 242 669 242 663 196 c 1,6,-1
 434 196 l 1,7,8
 434 117 434 117 503 117 c 0,9,10
 536 117 536 117 632 140 c 1,11,-1
 650 18 l 1,12,13
 559 -10 559 -10 478.5 -10 c 128,-1,14
 398 -10 398 -10 355 33 c 1,15,16
 316 -10 316 -10 216.5 -10 c 128,-1,17
 117 -10 117 -10 67 50 c 128,-1,18
 17 110 17 110 17 241.5 c 128,-1,19
 17 373 17 373 67.5 432 c 128,-1,20
 118 491 118 491 226 491 c 0,21,22
 312 491 312 491 352 451 c 1,0,1
225 356 m 128,-1,24
 199 356 199 356 192 336 c 128,-1,25
 185 316 185 316 185 252 c 2,26,-1
 185 228 l 2,27,28
 185 157 185 157 192 136 c 128,-1,29
 199 115 199 115 224.5 115 c 128,-1,30
 250 115 250 115 257 136 c 128,-1,31
 264 157 264 157 264 222 c 2,32,-1
 264 251 l 2,33,34
 264 316 264 316 257.5 336 c 128,-1,23
 251 356 251 356 225 356 c 128,-1,24
473 350 m 0,35,36
 447 350 447 350 439 332.5 c 128,-1,37
 431 315 431 315 431 279 c 1,38,-1
 518 279 l 1,39,-1
 518 303 l 2,40,41
 518 350 518 350 473 350 c 0,35,36
EndSplineSet
EndChar

StartChar: ff
Encoding: 64256 64256 102
Width: 553
Flags: HMW
HStem: 0 21G<53 220 53 53 313 480 313 313> 341 124<9 53 9 53 220 313 220 220 480 552 480 480> 508 147<142 239.5>
VStem: 53 167<0 341 0 341 0 522> 313 167<0 341 0 341 0 522>
LayerCount: 2
Fore
SplineSet
448 655 m 0,0,1
 510 655 510 655 578 649 c 1,2,-1
 564 503 l 1,3,4
 519 508 519 508 498.5 508 c 0,5,6
 478 508 478 508 478 490 c 2,7,-1
 478 465 l 1,8,-1
 560 465 l 1,9,-1
 552 341 l 1,10,-1
 480 341 l 1,11,-1
 480 0 l 1,12,-1
 313 0 l 1,13,-1
 313 341 l 1,14,-1
 220 341 l 1,15,-1
 220 0 l 1,16,-1
 53 0 l 1,17,-1
 53 341 l 1,18,-1
 9 341 l 1,19,-1
 9 465 l 1,20,-1
 53 465 l 1,21,-1
 53 522 l 2,22,23
 53 655 53 655 188 655 c 0,24,25
 224 655 224 655 290 651 c 1,26,-1
 278 505 l 1,27,28
 245 508 245 508 236 508 c 0,29,30
 218 508 218 508 218 490 c 2,31,-1
 218 465 l 1,32,-1
 313 465 l 1,33,-1
 313 522 l 2,34,35
 313 655 313 655 448 655 c 0,0,1
EndSplineSet
EndChar

StartChar: fi
Encoding: 64257 64257 103
Width: 511
Flags: HMW
HStem: 0 21G<53 220 53 53 313 478 313 313> 341 124<9 53 9 53 220 313 220 220> 494 154<363 428>
VStem: 53 167<0 341 0 341 0 515> 313 165<0 341 341 341>
LayerCount: 2
Fore
SplineSet
188 648 m 0,0,1
 234 648 234 648 290 644 c 1,2,-1
 278 498 l 1,3,4
 243 501 243 501 236 501 c 0,5,6
 218 501 218 501 218 483 c 2,7,-1
 218 465 l 1,8,-1
 478 465 l 1,9,-1
 478 0 l 1,10,-1
 313 0 l 1,11,-1
 313 341 l 1,12,-1
 220 341 l 1,13,-1
 220 0 l 1,14,-1
 53 0 l 1,15,-1
 53 341 l 1,16,-1
 9 341 l 1,17,-1
 9 465 l 1,18,-1
 53 465 l 1,19,-1
 53 515 l 2,20,21
 53 648 53 648 188 648 c 0,0,1
305 570 m 128,-1,23
 305 610 305 610 326 629 c 128,-1,24
 347 648 347 648 395 648 c 0,25,26
 443 648 443 648 464 629 c 128,-1,27
 485 610 485 610 485 570.5 c 0,28,29
 485 531 485 531 464 512.5 c 128,-1,30
 443 494 443 494 395 494 c 0,31,32
 347 494 347 494 326 512 c 128,-1,22
 305 530 305 530 305 570 c 128,-1,23
EndSplineSet
EndChar

StartChar: fj
Encoding: 65537 -1 104
Width: 517
Flags: HMW
HStem: -147 21G<265 315 265 265> -9 21G<251 285 285 296.5> 0 21G<53 220 53 53> 341 124<9 53 9 53 220 311 220 220> 510 145 644 20G<363 428>
VStem: 53 167<0 341 0 341 0 522> 311 167<15 341 341 341>
LayerCount: 2
Fore
SplineSet
478 465 m 1,0,-1
 478 -12 l 2,1,2
 478 -90 478 -90 443.5 -118.5 c 128,-1,3
 409 -147 409 -147 315 -147 c 2,4,-1
 265 -147 l 1,5,-1
 251 -9 l 1,6,-1
 285 -9 l 2,7,8
 302 -9 302 -9 306.5 -4.5 c 128,-1,9
 311 0 311 0 311 15 c 2,10,-1
 311 341 l 1,11,-1
 220 341 l 1,12,-1
 220 0 l 1,13,-1
 53 0 l 1,14,-1
 53 341 l 1,15,-1
 9 341 l 1,16,-1
 9 465 l 1,17,-1
 53 465 l 1,18,-1
 53 522 l 2,19,20
 53 655 53 655 188 655 c 0,21,22
 224 655 224 655 290 651 c 1,23,-1
 278 505 l 1,24,25
 243 508 243 508 236 508 c 0,26,27
 218 508 218 508 218 490 c 2,28,-1
 218 465 l 1,29,-1
 478 465 l 1,0,-1
305 586 m 128,-1,31
 305 626 305 626 326 645 c 128,-1,32
 347 664 347 664 395 664 c 0,33,34
 443 664 443 664 464 645 c 128,-1,35
 485 626 485 626 485 586.5 c 0,36,37
 485 547 485 547 464 528.5 c 128,-1,38
 443 510 443 510 395 510 c 0,39,40
 347 510 347 510 326 528 c 128,-1,30
 305 546 305 546 305 586 c 128,-1,31
EndSplineSet
EndChar

StartChar: fl
Encoding: 64258 64258 105
Width: 516
Flags: HMW
HStem: -10 21G<401.5 444 444 499> 0 21G<53 220 53 53> 341 124<9 53 9 53 220 313 220 220> 635 20G<142 210>
VStem: 53 167<0 341 0 341 0 522> 313 165<152 163 163 341 341 341 465 641>
LayerCount: 2
Fore
SplineSet
188 655 m 0,0,1
 242 655 242 655 290 651 c 1,2,-1
 278 505 l 1,3,4
 243 508 243 508 236 508 c 0,5,6
 218 508 218 508 218 490 c 2,7,-1
 218 465 l 1,8,-1
 313 465 l 1,9,-1
 313 641 l 1,10,-1
 478 641 l 1,11,-1
 478 163 l 2,12,13
 478 146 478 146 485.5 139 c 128,-1,14
 493 132 493 132 512 132 c 1,15,-1
 499 -10 l 1,16,-1
 444 -10 l 2,17,18
 378 -10 378 -10 345.5 17.5 c 128,-1,19
 313 45 313 45 313 110 c 2,20,-1
 313 341 l 1,21,-1
 220 341 l 1,22,-1
 220 0 l 1,23,-1
 53 0 l 1,24,-1
 53 341 l 1,25,-1
 9 341 l 1,26,-1
 9 465 l 1,27,-1
 53 465 l 1,28,-1
 53 522 l 2,29,30
 53 655 53 655 188 655 c 0,0,1
EndSplineSet
EndChar

StartChar: ffi
Encoding: 64259 64259 106
Width: 765
Flags: HMW
HStem: 0 21G<53 220 53 53 313 480 313 313 573 738 573 573> 341 124<9 53 9 53 220 313 220 220 480 573 480 480> 500 155 634 20G<617 682>
VStem: 53 167<0 341 0 341 0 522> 313 167<0 341 0 341 0 522> 559 179<0 602.5> 573 165<0 341 341 341>
LayerCount: 2
Fore
SplineSet
448 655 m 0,0,1
 494 655 494 655 550 651 c 1,2,-1
 538 505 l 1,3,4
 503 508 503 508 496 508 c 0,5,6
 478 508 478 508 478 490 c 2,7,-1
 478 465 l 1,8,-1
 738 465 l 1,9,-1
 738 0 l 1,10,-1
 573 0 l 1,11,-1
 573 341 l 1,12,-1
 480 341 l 1,13,-1
 480 0 l 1,14,-1
 313 0 l 1,15,-1
 313 341 l 1,16,-1
 220 341 l 1,17,-1
 220 0 l 1,18,-1
 53 0 l 1,19,-1
 53 341 l 1,20,-1
 9 341 l 1,21,-1
 9 465 l 1,22,-1
 53 465 l 1,23,-1
 53 522 l 2,24,25
 53 655 53 655 188 655 c 0,26,27
 224 655 224 655 290 651 c 1,28,-1
 278 505 l 1,29,30
 245 508 245 508 236 508 c 0,31,32
 218 508 218 508 218 490 c 2,33,-1
 218 465 l 1,34,-1
 313 465 l 1,35,-1
 313 522 l 2,36,37
 313 655 313 655 448 655 c 0,0,1
559 576 m 128,-1,39
 559 616 559 616 580 635 c 128,-1,40
 601 654 601 654 649 654 c 0,41,42
 697 654 697 654 718 635 c 128,-1,43
 739 616 739 616 739 576.5 c 0,44,45
 739 537 739 537 718 518.5 c 128,-1,46
 697 500 697 500 649 500 c 0,47,48
 601 500 601 500 580 518 c 128,-1,38
 559 536 559 536 559 576 c 128,-1,39
EndSplineSet
EndChar

StartChar: ffl
Encoding: 64260 64260 107
Width: 776
Flags: HMW
HStem: -10 21G<661.5 704 704 759> 0 21G<53 220 53 53 313 480 313 313> 341 124<9 53 9 53 220 313 220 220 480 573 480 480> 508 147<142 239.5>
VStem: 53 167<0 341 0 341 0 522> 313 167<0 341 0 341 0 522> 573 165<152 163 163 341 341 341 465 641>
LayerCount: 2
Fore
SplineSet
448 655 m 0,0,1
 502 655 502 655 550 651 c 1,2,-1
 538 505 l 1,3,4
 503 508 503 508 496 508 c 0,5,6
 478 508 478 508 478 490 c 2,7,-1
 478 465 l 1,8,-1
 573 465 l 1,9,-1
 573 641 l 1,10,-1
 738 641 l 1,11,-1
 738 163 l 2,12,13
 738 146 738 146 745.5 139 c 128,-1,14
 753 132 753 132 772 132 c 1,15,-1
 759 -10 l 1,16,-1
 704 -10 l 2,17,18
 638 -10 638 -10 605.5 17.5 c 128,-1,19
 573 45 573 45 573 110 c 2,20,-1
 573 341 l 1,21,-1
 480 341 l 1,22,-1
 480 0 l 1,23,-1
 313 0 l 1,24,-1
 313 341 l 1,25,-1
 220 341 l 1,26,-1
 220 0 l 1,27,-1
 53 0 l 1,28,-1
 53 341 l 1,29,-1
 9 341 l 1,30,-1
 9 465 l 1,31,-1
 53 465 l 1,32,-1
 53 522 l 2,33,34
 53 655 53 655 188 655 c 0,35,36
 224 655 224 655 290 651 c 1,37,-1
 278 505 l 1,38,39
 245 508 245 508 236 508 c 0,40,41
 218 508 218 508 218 490 c 2,42,-1
 218 465 l 1,43,-1
 313 465 l 1,44,-1
 313 522 l 2,45,46
 313 655 313 655 448 655 c 0,0,1
EndSplineSet
EndChar

StartChar: agrave
Encoding: 224 224 108
Width: 436
Flags: HMW
HStem: -10 125<327 428> 341 150<209 210> 520 140<180 180 180 230 72 295>
VStem: 14 153<132 161.5 132 191> 228 158<134 313 134 321>
LayerCount: 2
Fore
SplineSet
391 354 m 1,0,-1
 386 147 l 2,1,2
 386 128 386 128 395.5 121.5 c 128,-1,3
 405 115 405 115 428 115 c 1,4,-1
 413 -6 l 1,5,6
 355 -10 355 -10 349 -10 c 0,7,8
 275 -10 275 -10 255 41 c 1,9,-1
 250 41 l 1,10,11
 213 -10 213 -10 136 -10 c 0,12,13
 77 -10 77 -10 45.5 28 c 128,-1,14
 14 66 14 66 14 132 c 0,15,16
 14 215 14 215 65.5 247 c 128,-1,17
 117 279 117 279 228 289 c 1,18,-1
 228 313 l 2,19,20
 228 341 228 341 200 341 c 0,21,22
 152 341 152 341 50 312 c 1,23,-1
 25 458 l 1,24,25
 153 491 153 491 238 491 c 128,-1,26
 323 491 323 491 357 458 c 128,-1,27
 391 425 391 425 391 354 c 1,0,-1
198 107 m 0,28,29
 235 107 235 107 235 146 c 2,30,-1
 235 195 l 1,31,32
 198 190 198 190 182.5 179.5 c 128,-1,33
 167 169 167 169 167 144 c 0,34,35
 167 107 167 107 198 107 c 0,28,29
180 520 m 1,36,-1
 72 660 l 1,37,-1
 230 660 l 1,38,-1
 295 520 l 1,39,-1
 180 520 l 1,36,-1
EndSplineSet
EndChar

StartChar: acircumflex
Encoding: 226 226 109
Width: 436
Flags: HMW
HStem: -10 125<327 428> 341 150<209 210> 520 135<140 181 74 291 251 291 140 357 251 251>
VStem: 14 153<132 161.5 132 191> 228 158<134 313 134 321>
LayerCount: 2
Fore
SplineSet
391 354 m 1,0,-1
 386 147 l 2,1,2
 386 128 386 128 395.5 121.5 c 128,-1,3
 405 115 405 115 428 115 c 1,4,-1
 413 -6 l 1,5,6
 355 -10 355 -10 349 -10 c 0,7,8
 275 -10 275 -10 255 41 c 1,9,-1
 250 41 l 1,10,11
 213 -10 213 -10 136 -10 c 0,12,13
 77 -10 77 -10 45.5 28 c 128,-1,14
 14 66 14 66 14 132 c 0,15,16
 14 215 14 215 65.5 247 c 128,-1,17
 117 279 117 279 228 289 c 1,18,-1
 228 313 l 2,19,20
 228 341 228 341 200 341 c 0,21,22
 152 341 152 341 50 312 c 1,23,-1
 25 458 l 1,24,25
 153 491 153 491 238 491 c 128,-1,26
 323 491 323 491 357 458 c 128,-1,27
 391 425 391 425 391 354 c 1,0,-1
198 107 m 0,28,29
 235 107 235 107 235 146 c 2,30,-1
 235 195 l 1,31,32
 198 190 198 190 182.5 179.5 c 128,-1,33
 167 169 167 169 167 144 c 0,34,35
 167 107 167 107 198 107 c 0,28,29
291 655 m 1,36,-1
 357 520 l 1,37,-1
 251 520 l 1,38,-1
 216 576 l 1,39,-1
 181 520 l 1,40,-1
 74 520 l 1,41,-1
 140 655 l 1,42,-1
 291 655 l 1,36,-1
EndSplineSet
EndChar

StartChar: aacute
Encoding: 225 225 110
Width: 436
Flags: HMW
HStem: -10 125<327 428> 341 150<209 210> 520 140<203 255 140 363>
VStem: 14 153<132 161.5 132 191> 228 158<134 313 134 321>
LayerCount: 2
Fore
SplineSet
391 354 m 1,0,-1
 386 147 l 2,1,2
 386 128 386 128 395.5 121.5 c 128,-1,3
 405 115 405 115 428 115 c 1,4,-1
 413 -6 l 1,5,6
 355 -10 355 -10 349 -10 c 0,7,8
 275 -10 275 -10 255 41 c 1,9,-1
 250 41 l 1,10,11
 213 -10 213 -10 136 -10 c 0,12,13
 77 -10 77 -10 45.5 28 c 128,-1,14
 14 66 14 66 14 132 c 0,15,16
 14 215 14 215 65.5 247 c 128,-1,17
 117 279 117 279 228 289 c 1,18,-1
 228 313 l 2,19,20
 228 341 228 341 200 341 c 0,21,22
 152 341 152 341 50 312 c 1,23,-1
 25 458 l 1,24,25
 153 491 153 491 238 491 c 128,-1,26
 323 491 323 491 357 458 c 128,-1,27
 391 425 391 425 391 354 c 1,0,-1
198 107 m 0,28,29
 235 107 235 107 235 146 c 2,30,-1
 235 195 l 1,31,32
 198 190 198 190 182.5 179.5 c 128,-1,33
 167 169 167 169 167 144 c 0,34,35
 167 107 167 107 198 107 c 0,28,29
363 660 m 1,36,-1
 255 520 l 1,37,-1
 140 520 l 1,38,-1
 203 660 l 1,39,-1
 363 660 l 1,36,-1
EndSplineSet
EndChar

StartChar: adieresis
Encoding: 228 228 111
Width: 436
Flags: HMW
HStem: -10 125<327 428> 341 150<209 210> 519 117<105.5 145.5 275.5 315.5>
VStem: 14 153<132 161.5 132 191> 63 127<559.5 596> 228 131 228 158<134 313 134 321>
LayerCount: 2
Fore
SplineSet
391 354 m 1,0,-1
 386 147 l 2,1,2
 386 128 386 128 395.5 121.5 c 128,-1,3
 405 115 405 115 428 115 c 1,4,-1
 413 -6 l 1,5,6
 355 -10 355 -10 349 -10 c 0,7,8
 275 -10 275 -10 255 41 c 1,9,-1
 250 41 l 1,10,11
 213 -10 213 -10 136 -10 c 0,12,13
 77 -10 77 -10 45.5 28 c 128,-1,14
 14 66 14 66 14 132 c 0,15,16
 14 215 14 215 65.5 247 c 128,-1,17
 117 279 117 279 228 289 c 1,18,-1
 228 313 l 2,19,20
 228 341 228 341 200 341 c 0,21,22
 152 341 152 341 50 312 c 1,23,-1
 25 458 l 1,24,25
 153 491 153 491 238 491 c 128,-1,26
 323 491 323 491 357 458 c 128,-1,27
 391 425 391 425 391 354 c 1,0,-1
198 107 m 0,28,29
 235 107 235 107 235 146 c 2,30,-1
 235 195 l 1,31,32
 198 190 198 190 182.5 179.5 c 128,-1,33
 167 169 167 169 167 144 c 0,34,35
 167 107 167 107 198 107 c 0,28,29
79.5 534.5 m 128,-1,37
 63 550 63 550 63 577.5 c 128,-1,38
 63 605 63 605 79.5 620.5 c 128,-1,39
 96 636 96 636 126 636 c 128,-1,40
 156 636 156 636 173 620.5 c 128,-1,41
 190 605 190 605 190 578 c 0,42,43
 190 519 190 519 124 519 c 0,44,36
 96 519 96 519 79.5 534.5 c 128,-1,37
248.5 534.5 m 128,-1,46
 232 550 232 550 232 577.5 c 128,-1,47
 232 605 232 605 249 620.5 c 128,-1,48
 266 636 266 636 296 636 c 128,-1,49
 326 636 326 636 342.5 620.5 c 128,-1,50
 359 605 359 605 359 577.5 c 128,-1,51
 359 550 359 550 342.5 534.5 c 128,-1,52
 326 519 326 519 295.5 519 c 128,-1,45
 265 519 265 519 248.5 534.5 c 128,-1,46
EndSplineSet
EndChar

StartChar: atilde
Encoding: 227 227 112
Width: 436
Flags: HMW
HStem: -10 125<327 428> 341 150<209 210> 522 138<256 308.5>
VStem: 14 153<132 161.5 132 191> 56 111 228 158<134 313 134 321>
LayerCount: 2
Fore
SplineSet
391 354 m 1,0,-1
 386 147 l 2,1,2
 386 128 386 128 395.5 121.5 c 128,-1,3
 405 115 405 115 428 115 c 1,4,-1
 413 -6 l 1,5,6
 355 -10 355 -10 349 -10 c 0,7,8
 275 -10 275 -10 255 41 c 1,9,-1
 250 41 l 1,10,11
 213 -10 213 -10 136 -10 c 0,12,13
 77 -10 77 -10 45.5 28 c 128,-1,14
 14 66 14 66 14 132 c 0,15,16
 14 215 14 215 65.5 247 c 128,-1,17
 117 279 117 279 228 289 c 1,18,-1
 228 313 l 2,19,20
 228 341 228 341 200 341 c 0,21,22
 152 341 152 341 50 312 c 1,23,-1
 25 458 l 1,24,25
 153 491 153 491 238 491 c 128,-1,26
 323 491 323 491 357 458 c 128,-1,27
 391 425 391 425 391 354 c 1,0,-1
198 107 m 0,28,29
 235 107 235 107 235 146 c 2,30,-1
 235 195 l 1,31,32
 198 190 198 190 182.5 179.5 c 128,-1,33
 167 169 167 169 167 144 c 0,34,35
 167 107 167 107 198 107 c 0,28,29
359 660 m 1,36,-1
 359 652 l 2,37,38
 359 588 359 588 341 555 c 128,-1,39
 323 522 323 522 269 522 c 0,40,41
 233 522 233 522 189 538 c 1,42,-1
 165 546 l 1,43,-1
 165 511 l 1,44,-1
 56 511 l 1,45,-1
 56 521 l 2,46,47
 56 586 56 586 75 618.5 c 128,-1,48
 94 651 94 651 142 651 c 0,49,50
 158 651 158 651 231 632 c 2,51,-1
 251 627 l 1,52,-1
 251 660 l 1,53,-1
 359 660 l 1,36,-1
EndSplineSet
EndChar

StartChar: aring
Encoding: 229 229 113
Width: 436
Flags: HMW
HStem: -10 125<327 428> 341 150<209 210> 513 50<203.5 218.5 203.5 237.5> 513 158<186.5 237.5> 602 20G<203.5 218.5>
VStem: 14 153<132 161.5 132 191> 125 172<568.5 616> 228 69 228 158<134 313 134 321>
LayerCount: 2
Fore
SplineSet
391 354 m 1,0,-1
 386 147 l 2,1,2
 386 128 386 128 395.5 121.5 c 128,-1,3
 405 115 405 115 428 115 c 1,4,-1
 413 -6 l 1,5,6
 355 -10 355 -10 349 -10 c 0,7,8
 275 -10 275 -10 255 41 c 1,9,-1
 250 41 l 1,10,11
 213 -10 213 -10 136 -10 c 0,12,13
 77 -10 77 -10 45.5 28 c 128,-1,14
 14 66 14 66 14 132 c 0,15,16
 14 215 14 215 65.5 247 c 128,-1,17
 117 279 117 279 228 289 c 1,18,-1
 228 313 l 2,19,20
 228 341 228 341 200 341 c 0,21,22
 152 341 152 341 50 312 c 1,23,-1
 25 458 l 1,24,25
 153 491 153 491 238 491 c 128,-1,26
 323 491 323 491 357 458 c 128,-1,27
 391 425 391 425 391 354 c 1,0,-1
198 107 m 0,28,29
 235 107 235 107 235 146 c 2,30,-1
 235 195 l 1,31,32
 198 190 198 190 182.5 179.5 c 128,-1,33
 167 169 167 169 167 144 c 0,34,35
 167 107 167 107 198 107 c 0,28,29
149 649.5 m 128,-1,37
 173 671 173 671 212 671 c 128,-1,38
 251 671 251 671 274 650.5 c 128,-1,39
 297 630 297 630 297 593 c 128,-1,40
 297 556 297 556 274 534.5 c 128,-1,41
 251 513 251 513 212 513 c 128,-1,42
 173 513 173 513 149 534 c 128,-1,43
 125 555 125 555 125 591.5 c 128,-1,36
 125 628 125 628 149 649.5 c 128,-1,37
211 622 m 128,-1,45
 189 622 189 622 189 592.5 c 128,-1,46
 189 563 189 563 211 563 c 128,-1,47
 233 563 233 563 233 592.5 c 128,-1,44
 233 622 233 622 211 622 c 128,-1,45
EndSplineSet
EndChar

StartChar: ccedilla
Encoding: 231 231 114
Width: 345
Flags: HMW
HStem: -171 21G<175.5 221.5> 349 142<211 238 144 243>
VStem: 15 168<202 271.5 202 305.5>
LayerCount: 2
Fore
SplineSet
320 324 m 1,0,1
 262 349 262 349 232.5 349 c 128,-1,2
 203 349 203 349 193 321 c 128,-1,3
 183 293 183 293 183 236.5 c 128,-1,4
 183 180 183 180 192.5 155 c 128,-1,5
 202 130 202 130 235.5 130 c 128,-1,6
 269 130 269 130 318 141 c 1,7,-1
 336 13 l 1,8,9
 278 -6 278 -6 228 -9 c 1,10,11
 221 -18 221 -18 221 -25 c 128,-1,12
 221 -32 221 -32 237 -40 c 0,13,14
 285 -64 285 -64 285 -98 c 128,-1,15
 285 -132 285 -132 260.5 -151.5 c 128,-1,16
 236 -171 236 -171 188 -171 c 128,-1,17
 140 -171 140 -171 96 -142 c 1,18,-1
 130 -79 l 1,19,20
 171 -110 171 -110 187 -110 c 128,-1,21
 203 -110 203 -110 203 -100.5 c 128,-1,22
 203 -91 203 -91 190 -84 c 2,23,-1
 173 -74 l 1,24,25
 150 -62 150 -62 150 -42.5 c 128,-1,26
 150 -23 150 -23 165 -6 c 1,27,28
 91 7 91 7 53 69 c 128,-1,29
 15 131 15 131 15 239.5 c 128,-1,30
 15 348 15 348 65 419.5 c 128,-1,31
 115 491 115 491 210 491 c 0,32,33
 281 491 281 491 338 467 c 1,34,-1
 320 324 l 1,0,1
EndSplineSet
EndChar

StartChar: egrave
Encoding: 232 232 115
Width: 444
Flags: HMW
HStem: -10 127<239.5 268.5> 192 85<193 277 190 421 193 193> 348 143<213.5 249> 520 140<204 204 204 254 96 319>
VStem: 24 169<166 192 166 322>
LayerCount: 2
Fore
SplineSet
232 348 m 0,0,1
 206 348 206 348 198 330.5 c 128,-1,2
 190 313 190 313 190 277 c 1,3,-1
 277 277 l 1,4,-1
 277 301 l 2,5,6
 277 348 277 348 232 348 c 0,0,1
236 491 m 0,7,8
 339 491 339 491 383.5 441.5 c 128,-1,9
 428 392 428 392 428 300 c 0,10,11
 428 288 428 288 421 192 c 1,12,-1
 193 192 l 1,13,14
 193 117 193 117 262 117 c 0,15,16
 295 117 295 117 391 140 c 1,17,-1
 405 16 l 1,18,19
 321 -10 321 -10 237 -10 c 0,20,21
 134 -10 134 -10 79 57.5 c 128,-1,22
 24 125 24 125 24 241 c 0,23,24
 24 491 24 491 236 491 c 0,7,8
204 520 m 1,25,-1
 96 660 l 1,26,-1
 254 660 l 1,27,-1
 319 520 l 1,28,-1
 204 520 l 1,25,-1
EndSplineSet
EndChar

StartChar: ecircumflex
Encoding: 234 234 116
Width: 444
Flags: HMW
HStem: -10 127<239.5 268.5> 192 85<193 277 190 421 193 193> 348 143<213.5 249> 520 135<162 203 96 313 273 313 162 379 273 273>
VStem: 24 169<166 192 166 322>
LayerCount: 2
Fore
SplineSet
232 348 m 0,0,1
 206 348 206 348 198 330.5 c 128,-1,2
 190 313 190 313 190 277 c 1,3,-1
 277 277 l 1,4,-1
 277 301 l 2,5,6
 277 348 277 348 232 348 c 0,0,1
236 491 m 0,7,8
 339 491 339 491 383.5 441.5 c 128,-1,9
 428 392 428 392 428 300 c 0,10,11
 428 288 428 288 421 192 c 1,12,-1
 193 192 l 1,13,14
 193 117 193 117 262 117 c 0,15,16
 295 117 295 117 391 140 c 1,17,-1
 405 16 l 1,18,19
 321 -10 321 -10 237 -10 c 0,20,21
 134 -10 134 -10 79 57.5 c 128,-1,22
 24 125 24 125 24 241 c 0,23,24
 24 491 24 491 236 491 c 0,7,8
313 655 m 1,25,-1
 379 520 l 1,26,-1
 273 520 l 1,27,-1
 238 576 l 1,28,-1
 203 520 l 1,29,-1
 96 520 l 1,30,-1
 162 655 l 1,31,-1
 313 655 l 1,25,-1
EndSplineSet
EndChar

StartChar: eacute
Encoding: 233 233 117
Width: 444
Flags: HMW
HStem: -10 127<239.5 268.5> 192 85<193 277 190 421 193 193> 348 143<213.5 249> 520 140<232 284 169 392>
VStem: 24 169<166 192 166 322>
LayerCount: 2
Fore
SplineSet
232 348 m 0,0,1
 206 348 206 348 198 330.5 c 128,-1,2
 190 313 190 313 190 277 c 1,3,-1
 277 277 l 1,4,-1
 277 301 l 2,5,6
 277 348 277 348 232 348 c 0,0,1
236 491 m 0,7,8
 339 491 339 491 383.5 441.5 c 128,-1,9
 428 392 428 392 428 300 c 0,10,11
 428 288 428 288 421 192 c 1,12,-1
 193 192 l 1,13,14
 193 117 193 117 262 117 c 0,15,16
 295 117 295 117 391 140 c 1,17,-1
 405 16 l 1,18,19
 321 -10 321 -10 237 -10 c 0,20,21
 134 -10 134 -10 79 57.5 c 128,-1,22
 24 125 24 125 24 241 c 0,23,24
 24 491 24 491 236 491 c 0,7,8
392 660 m 1,25,-1
 284 520 l 1,26,-1
 169 520 l 1,27,-1
 232 660 l 1,28,-1
 392 660 l 1,25,-1
EndSplineSet
EndChar

StartChar: edieresis
Encoding: 235 235 118
Width: 444
Flags: HMW
HStem: -10 127<239.5 268.5> 192 85<193 277 190 421 193 193> 348 143<213.5 249> 519 117<126.5 166.5 296.5 336.5>
VStem: 24 169<166 192 166 322> 84 127<559.5 596> 253 127<559.5 596> 253 175
LayerCount: 2
Fore
SplineSet
232 348 m 0,0,1
 206 348 206 348 198 330.5 c 128,-1,2
 190 313 190 313 190 277 c 1,3,-1
 277 277 l 1,4,-1
 277 301 l 2,5,6
 277 348 277 348 232 348 c 0,0,1
236 491 m 0,7,8
 339 491 339 491 383.5 441.5 c 128,-1,9
 428 392 428 392 428 300 c 0,10,11
 428 288 428 288 421 192 c 1,12,-1
 193 192 l 1,13,14
 193 117 193 117 262 117 c 0,15,16
 295 117 295 117 391 140 c 1,17,-1
 405 16 l 1,18,19
 321 -10 321 -10 237 -10 c 0,20,21
 134 -10 134 -10 79 57.5 c 128,-1,22
 24 125 24 125 24 241 c 0,23,24
 24 491 24 491 236 491 c 0,7,8
100.5 534.5 m 128,-1,26
 84 550 84 550 84 577.5 c 128,-1,27
 84 605 84 605 100.5 620.5 c 128,-1,28
 117 636 117 636 147 636 c 128,-1,29
 177 636 177 636 194 620.5 c 128,-1,30
 211 605 211 605 211 578 c 0,31,32
 211 519 211 519 145 519 c 0,33,25
 117 519 117 519 100.5 534.5 c 128,-1,26
269.5 534.5 m 128,-1,35
 253 550 253 550 253 577.5 c 128,-1,36
 253 605 253 605 270 620.5 c 128,-1,37
 287 636 287 636 317 636 c 128,-1,38
 347 636 347 636 363.5 620.5 c 128,-1,39
 380 605 380 605 380 577.5 c 128,-1,40
 380 550 380 550 363.5 534.5 c 128,-1,41
 347 519 347 519 316.5 519 c 128,-1,34
 286 519 286 519 269.5 534.5 c 128,-1,35
EndSplineSet
EndChar

StartChar: hbar
Encoding: 295 295 119
Width: 467
Flags: HMW
HStem: 0 21G<30 198 30 30 267 437 267 267> 337 154<236.5 365> 506 95<0 30 0 30 197 270> 621 20G<30 197 197 197>
VStem: 30 168<0 323 0 506> 267 170<0 312 312 319.5>
LayerCount: 2
Fore
SplineSet
201 444 m 1,0,1
 256 491 256 491 320 491 c 128,-1,2
 384 491 384 491 410.5 460.5 c 128,-1,3
 437 430 437 430 437 369 c 2,4,-1
 437 0 l 1,5,-1
 267 0 l 1,6,-1
 267 312 l 2,7,8
 267 337 267 337 245 337 c 0,9,10
 217 337 217 337 198 323 c 1,11,-1
 198 0 l 1,12,-1
 30 0 l 1,13,-1
 30 506 l 1,14,-1
 0 506 l 1,15,-1
 0 601 l 1,16,-1
 30 601 l 1,17,-1
 30 641 l 1,18,-1
 197 641 l 1,19,-1
 197 601 l 1,20,-1
 270 601 l 1,21,-1
 270 506 l 1,22,-1
 197 506 l 1,23,-1
 197 444 l 1,24,-1
 201 444 l 1,0,1
EndSplineSet
EndChar

StartChar: dotlessi
Encoding: 305 305 120
Width: 232
Flags: HMW
HStem: 0 21G<34 199 34 34> 454 20G<34 199 199 199>
VStem: 34 165<0 474>
LayerCount: 2
Fore
SplineSet
199 0 m 1,0,-1
 34 0 l 1,1,-1
 34 474 l 1,2,-1
 199 474 l 1,3,-1
 199 0 l 1,0,-1
EndSplineSet
EndChar

StartChar: igrave
Encoding: 236 236 121
Width: 232
Flags: HMW
HStem: 0 21G<34 199 34 34> 520 140<83 83 83 133 -25 198>
VStem: 34 165<0 474>
LayerCount: 2
Fore
SplineSet
199 0 m 1,0,-1
 34 0 l 1,1,-1
 34 474 l 1,2,-1
 199 474 l 1,3,-1
 199 0 l 1,0,-1
83 520 m 1,4,-1
 -25 660 l 1,5,-1
 133 660 l 1,6,-1
 198 520 l 1,7,-1
 83 520 l 1,4,-1
EndSplineSet
EndChar

StartChar: icircumflex
Encoding: 238 238 122
Width: 232
Flags: HMW
HStem: 0 21G<33 198 33 33> 520 135<41 82 -25 192 152 192 41 258 152 152>
VStem: 33 165<0 474>
LayerCount: 2
Fore
SplineSet
198 0 m 1,0,-1
 33 0 l 1,1,-1
 33 474 l 1,2,-1
 198 474 l 1,3,-1
 198 0 l 1,0,-1
192 655 m 1,4,-1
 258 520 l 1,5,-1
 152 520 l 1,6,-1
 117 576 l 1,7,-1
 82 520 l 1,8,-1
 -25 520 l 1,9,-1
 41 655 l 1,10,-1
 192 655 l 1,4,-1
EndSplineSet
EndChar

StartChar: iacute
Encoding: 237 237 123
Width: 232
Flags: HMW
HStem: 0 21G<33 198 33 33> 520 140<102 154 39 262>
VStem: 33 165<0 474>
LayerCount: 2
Fore
SplineSet
198 0 m 1,0,-1
 33 0 l 1,1,-1
 33 474 l 1,2,-1
 198 474 l 1,3,-1
 198 0 l 1,0,-1
262 660 m 1,4,-1
 154 520 l 1,5,-1
 39 520 l 1,6,-1
 102 660 l 1,7,-1
 262 660 l 1,4,-1
EndSplineSet
EndChar

StartChar: idieresis
Encoding: 239 239 124
Width: 232
Flags: HMW
HStem: 0 21G<33 198 33 33> 519 117<10.5 50.5 180.5 220.5>
VStem: -32 127<559.5 596> 33 165<0 474> 137 127<559.5 596>
LayerCount: 2
Fore
SplineSet
198 0 m 1,0,-1
 33 0 l 1,1,-1
 33 474 l 1,2,-1
 198 474 l 1,3,-1
 198 0 l 1,0,-1
-15.5 534.5 m 128,-1,5
 -32 550 -32 550 -32 577.5 c 128,-1,6
 -32 605 -32 605 -15.5 620.5 c 128,-1,7
 1 636 1 636 31 636 c 128,-1,8
 61 636 61 636 78 620.5 c 128,-1,9
 95 605 95 605 95 578 c 0,10,11
 95 519 95 519 29 519 c 0,12,4
 1 519 1 519 -15.5 534.5 c 128,-1,5
153.5 534.5 m 128,-1,14
 137 550 137 550 137 577.5 c 128,-1,15
 137 605 137 605 154 620.5 c 128,-1,16
 171 636 171 636 201 636 c 128,-1,17
 231 636 231 636 247.5 620.5 c 128,-1,18
 264 605 264 605 264 577.5 c 128,-1,19
 264 550 264 550 247.5 534.5 c 128,-1,20
 231 519 231 519 200.5 519 c 128,-1,13
 170 519 170 519 153.5 534.5 c 128,-1,14
EndSplineSet
EndChar

StartChar: itilde
Encoding: 297 297 125
Width: 232
Flags: HMW
HStem: 0 21G<34 199 34 34> 522 138<165 217.5>
VStem: 34 165<0 474>
LayerCount: 2
Fore
SplineSet
199 0 m 1,0,-1
 34 0 l 1,1,-1
 34 474 l 1,2,-1
 199 474 l 1,3,-1
 199 0 l 1,0,-1
268 660 m 1,4,-1
 268 652 l 2,5,6
 268 588 268 588 250 555 c 128,-1,7
 232 522 232 522 178 522 c 0,8,9
 142 522 142 522 98 538 c 1,10,-1
 74 546 l 1,11,-1
 74 511 l 1,12,-1
 -35 511 l 1,13,-1
 -35 521 l 2,14,15
 -35 586 -35 586 -16 618.5 c 128,-1,16
 3 651 3 651 51 651 c 0,17,18
 67 651 67 651 140 632 c 2,19,-1
 160 627 l 1,20,-1
 160 660 l 1,21,-1
 268 660 l 1,4,-1
EndSplineSet
EndChar

StartChar: ij
Encoding: 307 307 126
Width: 480
Flags: HMW
HStem: -147 21G<226 276 226 226> -9 21G<212 246 246 257.5> 0 21G<34 199 34 34> 494 154<84 149 323 388>
VStem: 34 165<0 474> 272 167<15 474>
LayerCount: 2
Fore
SplineSet
439 474 m 1,0,-1
 439 -12 l 2,1,2
 439 -90 439 -90 404.5 -118.5 c 128,-1,3
 370 -147 370 -147 276 -147 c 2,4,-1
 226 -147 l 1,5,-1
 212 -9 l 1,6,-1
 246 -9 l 2,7,8
 263 -9 263 -9 267.5 -4.5 c 128,-1,9
 272 0 272 0 272 15 c 2,10,-1
 272 474 l 1,11,-1
 439 474 l 1,0,-1
199 0 m 1,12,-1
 34 0 l 1,13,-1
 34 474 l 1,14,-1
 199 474 l 1,15,-1
 199 0 l 1,12,-1
26 570 m 128,-1,17
 26 610 26 610 47 629 c 128,-1,18
 68 648 68 648 116 648 c 0,19,20
 164 648 164 648 185 629 c 128,-1,21
 206 610 206 610 206 570.5 c 0,22,23
 206 531 206 531 185 512.5 c 128,-1,24
 164 494 164 494 116 494 c 0,25,26
 68 494 68 494 47 512 c 128,-1,16
 26 530 26 530 26 570 c 128,-1,17
265 570 m 128,-1,28
 265 610 265 610 286 629 c 128,-1,29
 307 648 307 648 355 648 c 0,30,31
 403 648 403 648 424 629 c 128,-1,32
 445 610 445 610 445 570.5 c 0,33,34
 445 531 445 531 424 512.5 c 128,-1,35
 403 494 403 494 355 494 c 0,36,37
 307 494 307 494 286 512 c 128,-1,27
 265 530 265 530 265 570 c 128,-1,28
EndSplineSet
EndChar

StartChar: jcircumflex
Encoding: 309 309 127
Width: 248
Flags: HMW
HStem: -147 21G<-4 46 -4 -4> -9 21G<-18 16 16 27.5> 520 135<49 90 -17 200 160 200 49 266 160 160>
VStem: 42 167<15 474>
LayerCount: 2
Fore
SplineSet
209 474 m 1,0,-1
 209 -12 l 2,1,2
 209 -90 209 -90 174.5 -118.5 c 128,-1,3
 140 -147 140 -147 46 -147 c 2,4,-1
 -4 -147 l 1,5,-1
 -18 -9 l 1,6,-1
 16 -9 l 2,7,8
 33 -9 33 -9 37.5 -4.5 c 128,-1,9
 42 0 42 0 42 15 c 2,10,-1
 42 474 l 1,11,-1
 209 474 l 1,0,-1
200 655 m 1,12,-1
 266 520 l 1,13,-1
 160 520 l 1,14,-1
 125 576 l 1,15,-1
 90 520 l 1,16,-1
 -17 520 l 1,17,-1
 49 655 l 1,18,-1
 200 655 l 1,12,-1
EndSplineSet
EndChar

StartChar: kcommaaccent
Encoding: 311 311 128
Width: 442
Flags: HMW
HStem: -175 21G<236 236> -128 119<188.5 192> 0 21G<30 193 30 30 258 443 258 258> 459 20G<272 447 447 447> 621 20G<30 195 195 195>
VStem: 30 165<288 641 288 641 288 641> 129 184<-93.5 -53.5>
LayerCount: 2
Fore
SplineSet
443 0 m 1,0,-1
 258 0 l 1,1,-1
 197 184 l 1,2,-1
 193 184 l 1,3,-1
 193 0 l 1,4,-1
 30 0 l 1,5,-1
 30 641 l 1,6,-1
 195 641 l 1,7,-1
 195 288 l 1,8,-1
 199 288 l 1,9,-1
 272 479 l 1,10,-1
 447 479 l 1,11,-1
 346 240 l 1,12,-1
 443 0 l 1,0,-1
129 -76 m 0,13,14
 129 -9 129 -9 221 -9 c 128,-1,15
 313 -9 313 -9 313 -78 c 0,16,17
 313 -132 313 -132 236 -175 c 1,18,-1
 156 -169 l 1,19,-1
 192 -128 l 1,20,21
 164 -128 164 -128 146.5 -114.5 c 128,-1,22
 129 -101 129 -101 129 -76 c 0,13,14
EndSplineSet
EndChar

StartChar: kgreenlandic
Encoding: 312 312 129
Width: 446
Flags: HMW
HStem: 0 21G<30 196 30 30 262 447 262 262> 460 20G<30 198 198 198> 471 20G<353.5 428>
VStem: 30 168<288 480 288 480 288 480>
LayerCount: 2
Fore
SplineSet
447 0 m 1,0,-1
 262 0 l 1,1,-1
 200 170 l 1,2,-1
 196 170 l 1,3,-1
 196 0 l 1,4,-1
 30 0 l 1,5,-1
 30 480 l 1,6,-1
 198 480 l 1,7,-1
 198 288 l 1,8,-1
 202 288 l 1,9,10
 248.219008264 408.169421488 248.219008264 408.169421488 276.5 434.5 c 0,11,12
 321.168765743 476.088161209 321.168765743 476.088161209 356.584382872 483.544080605 c 128,-1,13
 392 491 392 491 428 491 c 1,14,-1
 421 325 l 1,15,16
 403 325 403 325 389.5 314 c 128,-1,17
 376 303 376 303 369.5 290 c 128,-1,18
 363 277 363 277 348 244 c 1,19,-1
 447 0 l 1,0,-1
EndSplineSet
EndChar

StartChar: ldot
Encoding: 320 320 130
Width: 420
Flags: HMW
HStem: -10 21G<118.5 161 161 216> 216 179<288 352.5> 621 20G<30 195 195 195>
VStem: 30 165<152 163 163 641> 224 192<275.5 335 275.5 335.5>
LayerCount: 2
Fore
SplineSet
30 110 m 2,0,-1
 30 641 l 1,1,-1
 195 641 l 1,2,-1
 195 163 l 2,3,4
 195 146 195 146 202.5 139 c 128,-1,5
 210 132 210 132 229 132 c 1,6,-1
 216 -10 l 1,7,-1
 161 -10 l 2,8,9
 95 -10 95 -10 62.5 17.5 c 128,-1,10
 30 45 30 45 30 110 c 2,0,-1
320 216 m 128,-1,12
 224 216 224 216 224 305.5 c 128,-1,13
 224 395 224 395 320 395 c 128,-1,14
 416 395 416 395 416 305.5 c 128,-1,11
 416 216 416 216 320 216 c 128,-1,12
EndSplineSet
EndChar

StartChar: lslash
Encoding: 322 322 131
Width: 233
Flags: HMW
HStem: -10 21G<122.5 165 165 220> 621 20G<34 199 199 199>
VStem: 0 199<158 163 163 284 152 306 152 306> 34 165<152 163 163 179 179 179 432 641> 34 199<132 132 132 179 132 179 327 454>
LayerCount: 2
Fore
SplineSet
34 110 m 2,0,-1
 34 179 l 1,1,-1
 0 158 l 1,2,-1
 0 306 l 1,3,-1
 34 327 l 1,4,-1
 34 641 l 1,5,-1
 199 641 l 1,6,-1
 199 432 l 1,7,-1
 233 454 l 1,8,-1
 233 306 l 1,9,-1
 199 284 l 1,10,-1
 199 163 l 2,11,12
 199 146 199 146 206.5 139 c 128,-1,13
 214 132 214 132 233 132 c 1,14,-1
 220 -10 l 1,15,-1
 165 -10 l 2,16,17
 99 -10 99 -10 66.5 17.5 c 128,-1,18
 34 45 34 45 34 110 c 2,0,-1
EndSplineSet
EndChar

StartChar: nacute
Encoding: 324 324 132
Width: 467
Flags: HMW
HStem: 0 21G<30 198 30 30 267 437 267 267> 337 154<236.5 365> 459 20G<30 183 183 183> 520 140<225 277 162 385>
VStem: 30 168<0 323 0 479 0 479> 267 170<0 312 312 319.5>
LayerCount: 2
Fore
SplineSet
197 444 m 1,0,1
 252 491 252 491 318 491 c 128,-1,2
 384 491 384 491 410.5 460.5 c 128,-1,3
 437 430 437 430 437 369 c 2,4,-1
 437 0 l 1,5,-1
 267 0 l 1,6,-1
 267 312 l 2,7,8
 267 337 267 337 245 337 c 0,9,10
 217 337 217 337 198 323 c 1,11,-1
 198 0 l 1,12,-1
 30 0 l 1,13,-1
 30 479 l 1,14,-1
 183 479 l 1,15,-1
 193 444 l 1,16,-1
 197 444 l 1,0,1
385 660 m 1,17,-1
 277 520 l 1,18,-1
 162 520 l 1,19,-1
 225 660 l 1,20,-1
 385 660 l 1,17,-1
EndSplineSet
EndChar

StartChar: ntilde
Encoding: 241 241 133
Width: 473
Flags: HMW
HStem: 0 21G<33 201 33 33 270 440 270 270> 337 154<239.5 368> 459 20G<33 186 186 186> 522 138<276 328.5>
VStem: 33 168<0 323 0 479 0 479> 270 109 270 170<0 312 312 319.5>
LayerCount: 2
Fore
SplineSet
200 444 m 1,0,1
 255 491 255 491 321 491 c 128,-1,2
 387 491 387 491 413.5 460.5 c 128,-1,3
 440 430 440 430 440 369 c 2,4,-1
 440 0 l 1,5,-1
 270 0 l 1,6,-1
 270 312 l 2,7,8
 270 337 270 337 248 337 c 0,9,10
 220 337 220 337 201 323 c 1,11,-1
 201 0 l 1,12,-1
 33 0 l 1,13,-1
 33 479 l 1,14,-1
 186 479 l 1,15,-1
 196 444 l 1,16,-1
 200 444 l 1,0,1
379 660 m 1,17,-1
 379 652 l 2,18,19
 379 588 379 588 361 555 c 128,-1,20
 343 522 343 522 289 522 c 0,21,22
 253 522 253 522 209 538 c 1,23,-1
 185 546 l 1,24,-1
 185 511 l 1,25,-1
 76 511 l 1,26,-1
 76 521 l 2,27,28
 76 586 76 586 95 618.5 c 128,-1,29
 114 651 114 651 162 651 c 0,30,31
 178 651 178 651 251 632 c 2,32,-1
 271 627 l 1,33,-1
 271 660 l 1,34,-1
 379 660 l 1,17,-1
EndSplineSet
EndChar

StartChar: ograve
Encoding: 242 242 134
Width: 462
Flags: HMW
HStem: -10 125<214.5 250 214.5 305.5> 356 135<214 250> 520 140<206 206 206 256 98 321>
VStem: 24 168<183 228 228 252 183 329.5> 271 167<222 251 251 292>
LayerCount: 2
Fore
SplineSet
74.5 432 m 128,-1,1
 125 491 125 491 232.5 491 c 128,-1,2
 340 491 340 491 389 433 c 128,-1,3
 438 375 438 375 438 242.5 c 128,-1,4
 438 110 438 110 390 50 c 128,-1,5
 342 -10 342 -10 233 -10 c 128,-1,6
 124 -10 124 -10 74 50 c 128,-1,7
 24 110 24 110 24 241.5 c 128,-1,0
 24 373 24 373 74.5 432 c 128,-1,1
232 356 m 128,-1,9
 206 356 206 356 199 336 c 128,-1,10
 192 316 192 316 192 252 c 2,11,-1
 192 228 l 2,12,13
 192 157 192 157 199 136 c 128,-1,14
 206 115 206 115 231.5 115 c 128,-1,15
 257 115 257 115 264 136 c 128,-1,16
 271 157 271 157 271 222 c 2,17,-1
 271 251 l 2,18,19
 271 316 271 316 264.5 336 c 128,-1,8
 258 356 258 356 232 356 c 128,-1,9
206 520 m 1,20,-1
 98 660 l 1,21,-1
 256 660 l 1,22,-1
 321 520 l 1,23,-1
 206 520 l 1,20,-1
EndSplineSet
EndChar

StartChar: ocircumflex
Encoding: 244 244 135
Width: 462
Flags: HMW
HStem: -10 125<214.5 250 214.5 305.5> 356 135<214 250> 520 135<157 198 91 308 268 308 157 374 268 268>
VStem: 24 168<183 228 228 252 183 329.5> 271 167<222 251 251 292>
LayerCount: 2
Fore
SplineSet
74.5 432 m 128,-1,1
 125 491 125 491 232.5 491 c 128,-1,2
 340 491 340 491 389 433 c 128,-1,3
 438 375 438 375 438 242.5 c 128,-1,4
 438 110 438 110 390 50 c 128,-1,5
 342 -10 342 -10 233 -10 c 128,-1,6
 124 -10 124 -10 74 50 c 128,-1,7
 24 110 24 110 24 241.5 c 128,-1,0
 24 373 24 373 74.5 432 c 128,-1,1
232 356 m 128,-1,9
 206 356 206 356 199 336 c 128,-1,10
 192 316 192 316 192 252 c 2,11,-1
 192 228 l 2,12,13
 192 157 192 157 199 136 c 128,-1,14
 206 115 206 115 231.5 115 c 128,-1,15
 257 115 257 115 264 136 c 128,-1,16
 271 157 271 157 271 222 c 2,17,-1
 271 251 l 2,18,19
 271 316 271 316 264.5 336 c 128,-1,8
 258 356 258 356 232 356 c 128,-1,9
308 655 m 1,20,-1
 374 520 l 1,21,-1
 268 520 l 1,22,-1
 233 576 l 1,23,-1
 198 520 l 1,24,-1
 91 520 l 1,25,-1
 157 655 l 1,26,-1
 308 655 l 1,20,-1
EndSplineSet
EndChar

StartChar: oacute
Encoding: 243 243 136
Width: 462
Flags: HMW
HStem: -10 125<214.5 250 214.5 305.5> 356 135<214 250> 520 140<222 274 159 382>
VStem: 24 168<183 228 228 252 183 329.5> 271 167<222 251 251 292>
LayerCount: 2
Fore
SplineSet
74.5 432 m 128,-1,1
 125 491 125 491 232.5 491 c 128,-1,2
 340 491 340 491 389 433 c 128,-1,3
 438 375 438 375 438 242.5 c 128,-1,4
 438 110 438 110 390 50 c 128,-1,5
 342 -10 342 -10 233 -10 c 128,-1,6
 124 -10 124 -10 74 50 c 128,-1,7
 24 110 24 110 24 241.5 c 128,-1,0
 24 373 24 373 74.5 432 c 128,-1,1
232 356 m 128,-1,9
 206 356 206 356 199 336 c 128,-1,10
 192 316 192 316 192 252 c 2,11,-1
 192 228 l 2,12,13
 192 157 192 157 199 136 c 128,-1,14
 206 115 206 115 231.5 115 c 128,-1,15
 257 115 257 115 264 136 c 128,-1,16
 271 157 271 157 271 222 c 2,17,-1
 271 251 l 2,18,19
 271 316 271 316 264.5 336 c 128,-1,8
 258 356 258 356 232 356 c 128,-1,9
382 660 m 1,20,-1
 274 520 l 1,21,-1
 159 520 l 1,22,-1
 222 660 l 1,23,-1
 382 660 l 1,20,-1
EndSplineSet
EndChar

StartChar: odieresis
Encoding: 246 246 137
Width: 462
Flags: HMW
HStem: -10 125<214.5 250 214.5 305.5> 356 135<214 250> 519 117<125.5 165.5 295.5 335.5>
VStem: 24 168<183 228 228 252 183 329.5> 83 127<559.5 596> 252 127<559.5 596> 271 167<222 251 251 292>
LayerCount: 2
Fore
SplineSet
74.5 432 m 128,-1,1
 125 491 125 491 232.5 491 c 128,-1,2
 340 491 340 491 389 433 c 128,-1,3
 438 375 438 375 438 242.5 c 128,-1,4
 438 110 438 110 390 50 c 128,-1,5
 342 -10 342 -10 233 -10 c 128,-1,6
 124 -10 124 -10 74 50 c 128,-1,7
 24 110 24 110 24 241.5 c 128,-1,0
 24 373 24 373 74.5 432 c 128,-1,1
232 356 m 128,-1,9
 206 356 206 356 199 336 c 128,-1,10
 192 316 192 316 192 252 c 2,11,-1
 192 228 l 2,12,13
 192 157 192 157 199 136 c 128,-1,14
 206 115 206 115 231.5 115 c 128,-1,15
 257 115 257 115 264 136 c 128,-1,16
 271 157 271 157 271 222 c 2,17,-1
 271 251 l 2,18,19
 271 316 271 316 264.5 336 c 128,-1,8
 258 356 258 356 232 356 c 128,-1,9
99.5 534.5 m 128,-1,21
 83 550 83 550 83 577.5 c 128,-1,22
 83 605 83 605 99.5 620.5 c 128,-1,23
 116 636 116 636 146 636 c 128,-1,24
 176 636 176 636 193 620.5 c 128,-1,25
 210 605 210 605 210 578 c 0,26,27
 210 519 210 519 144 519 c 0,28,20
 116 519 116 519 99.5 534.5 c 128,-1,21
268.5 534.5 m 128,-1,30
 252 550 252 550 252 577.5 c 128,-1,31
 252 605 252 605 269 620.5 c 128,-1,32
 286 636 286 636 316 636 c 128,-1,33
 346 636 346 636 362.5 620.5 c 128,-1,34
 379 605 379 605 379 577.5 c 128,-1,35
 379 550 379 550 362.5 534.5 c 128,-1,36
 346 519 346 519 315.5 519 c 128,-1,29
 285 519 285 519 268.5 534.5 c 128,-1,30
EndSplineSet
EndChar

StartChar: otilde
Encoding: 245 245 138
Width: 462
Flags: HMW
HStem: -10 125<214.5 250 214.5 305.5> 356 135<214 250> 522 138<278 330.5>
VStem: 24 168<183 228 228 252 183 329.5> 78 114 271 110 271 167<222 251 251 292>
LayerCount: 2
Fore
SplineSet
74.5 432 m 128,-1,1
 125 491 125 491 232.5 491 c 128,-1,2
 340 491 340 491 389 433 c 128,-1,3
 438 375 438 375 438 242.5 c 128,-1,4
 438 110 438 110 390 50 c 128,-1,5
 342 -10 342 -10 233 -10 c 128,-1,6
 124 -10 124 -10 74 50 c 128,-1,7
 24 110 24 110 24 241.5 c 128,-1,0
 24 373 24 373 74.5 432 c 128,-1,1
232 356 m 128,-1,9
 206 356 206 356 199 336 c 128,-1,10
 192 316 192 316 192 252 c 2,11,-1
 192 228 l 2,12,13
 192 157 192 157 199 136 c 128,-1,14
 206 115 206 115 231.5 115 c 128,-1,15
 257 115 257 115 264 136 c 128,-1,16
 271 157 271 157 271 222 c 2,17,-1
 271 251 l 2,18,19
 271 316 271 316 264.5 336 c 128,-1,8
 258 356 258 356 232 356 c 128,-1,9
381 660 m 1,20,-1
 381 652 l 2,21,22
 381 588 381 588 363 555 c 128,-1,23
 345 522 345 522 291 522 c 0,24,25
 255 522 255 522 211 538 c 1,26,-1
 187 546 l 1,27,-1
 187 511 l 1,28,-1
 78 511 l 1,29,-1
 78 521 l 2,30,31
 78 586 78 586 97 618.5 c 128,-1,32
 116 651 116 651 164 651 c 0,33,34
 180 651 180 651 253 632 c 2,35,-1
 273 627 l 1,36,-1
 273 660 l 1,37,-1
 381 660 l 1,20,-1
EndSplineSet
EndChar

StartChar: oslash
Encoding: 248 248 139
Width: 445
Flags: HMW
HStem: -71 21G<35 168 35 35> -10 125<220 243 207.5 298.5> 356 135<207 231.5 154.5 243> 530 20G<282 413 413 413>
VStem: 17 168<192.5 228 228 252 183 329.5> 264 167<222 251 251 292>
LayerCount: 2
Fore
SplineSet
226 491 m 0,0,1
 248 491 248 491 258 490 c 1,2,-1
 282 550 l 1,3,-1
 413 550 l 1,4,-1
 371 444 l 1,5,6
 431 387 431 387 431 248.5 c 0,7,8
 431 110 431 110 383 50 c 128,-1,9
 335 -10 335 -10 226 -10 c 0,10,11
 214 -10 214 -10 192 -8 c 1,12,-1
 168 -71 l 1,13,-1
 35 -71 l 1,14,-1
 78 37 l 1,15,16
 17 95 17 95 17 234 c 0,17,18
 17 373 17 373 67.5 432 c 128,-1,19
 118 491 118 491 226 491 c 0,0,1
225 356 m 128,-1,21
 199 356 199 356 192 336 c 128,-1,22
 185 316 185 316 185 252 c 2,23,-1
 185 228 l 2,24,25
 185 157 185 157 192 136 c 128,-1,26
 199 115 199 115 224.5 115 c 0,27,28
 250 115 250 115 257 136 c 128,-1,29
 264 157 264 157 264 222 c 2,30,-1
 264 251 l 2,31,32
 264 316 264 316 257.5 336 c 128,-1,20
 251 356 251 356 225 356 c 128,-1,21
EndSplineSet
EndChar

StartChar: rcaron
Encoding: 345 345 140
Width: 313
Flags: HMW
HStem: 0 21G<30 196 30 30> 459 20G<30 176 176 176> 471 20G<278.5 313> 518 136<99 99 99 139 195 236>
VStem: 30 166<0 269 0 479>
LayerCount: 2
Fore
SplineSet
196 269 m 2,0,-1
 196 0 l 1,1,-1
 30 0 l 1,2,-1
 30 479 l 1,3,-1
 176 479 l 1,4,-1
 186 450 l 1,5,-1
 190 450 l 1,6,7
 213 476 213 476 236.5 483.5 c 128,-1,8
 260 491 260 491 313 491 c 1,9,-1
 306 331 l 1,10,-1
 260 331 l 2,11,12
 221 331 221 331 208.5 319 c 128,-1,13
 196 307 196 307 196 269 c 2,0,-1
99 518 m 1,14,-1
 41 654 l 1,15,-1
 139 654 l 1,16,-1
 167 603 l 1,17,-1
 195 654 l 1,18,-1
 293 654 l 1,19,-1
 236 518 l 1,20,-1
 99 518 l 1,14,-1
EndSplineSet
EndChar

StartChar: rcommaaccent
Encoding: 343 343 141
Width: 313
Flags: HMW
HStem: -175 21G<142 142> -172 163 -128 119<94.5 98> 0 21G<30 196 30 30> 459 20G<30 176 176 176> 471 20G<278.5 313>
VStem: 30 166<0 269 0 479> 30 189<-98.5 479>
LayerCount: 2
Fore
SplineSet
196 269 m 2,0,-1
 196 0 l 1,1,-1
 30 0 l 1,2,-1
 30 479 l 1,3,-1
 176 479 l 1,4,-1
 186 450 l 1,5,-1
 190 450 l 1,6,7
 213 476 213 476 236.5 483.5 c 128,-1,8
 260 491 260 491 313 491 c 1,9,-1
 306 331 l 1,10,-1
 260 331 l 2,11,12
 221 331 221 331 208.5 319 c 128,-1,13
 196 307 196 307 196 269 c 2,0,-1
35 -76 m 0,14,15
 35 -9 35 -9 127 -9 c 128,-1,16
 219 -9 219 -9 219 -78 c 0,17,18
 219 -132 219 -132 142 -175 c 1,19,-1
 62 -169 l 1,20,-1
 98 -128 l 1,21,22
 70 -128 70 -128 52.5 -114.5 c 128,-1,23
 35 -101 35 -101 35 -76 c 0,14,15
EndSplineSet
EndChar

StartChar: scaron
Encoding: 353 353 142
Width: 371
Flags: HMW
HStem: -10 128<185 207 185 260> 355 136<194 214.5> 518 136<131 131 131 171 227 268>
LayerCount: 2
Fore
SplineSet
74.5 450.5 m 128,-1,1
 119 491 119 491 197 491 c 128,-1,2
 275 491 275 491 355 471 c 1,3,-1
 338 332 l 1,4,5
 236 355 236 355 201 355 c 0,6,7
 180 355 180 355 180 338 c 0,8,9
 180 327 180 327 203 318 c 0,10,11
 283 289 283 289 323.5 252 c 128,-1,12
 364 215 364 215 364 141 c 128,-1,13
 364 67 364 67 326 28.5 c 128,-1,14
 288 -10 288 -10 209.5 -10 c 128,-1,15
 131 -10 131 -10 53 10 c 1,16,-1
 64 145 l 1,17,18
 164 118 164 118 193.5 118 c 128,-1,19
 223 118 223 118 223 132 c 128,-1,20
 223 146 223 146 201 154 c 0,21,22
 112 188 112 188 71 226.5 c 128,-1,23
 30 265 30 265 30 337.5 c 128,-1,0
 30 410 30 410 74.5 450.5 c 128,-1,1
131 518 m 1,24,-1
 73 654 l 1,25,-1
 171 654 l 1,26,-1
 199 603 l 1,27,-1
 227 654 l 1,28,-1
 325 654 l 1,29,-1
 268 518 l 1,30,-1
 131 518 l 1,24,-1
EndSplineSet
EndChar

StartChar: ugrave
Encoding: 249 249 143
Width: 467
Flags: HMW
HStem: -10 148<106 230.5> 459 20G<30 200 200 200 269 437 437 437> 520 140<189 189 189 239 81 304>
VStem: 30 170<155.5 163 163 479> 269 168<152 479 2 479>
LayerCount: 2
Fore
SplineSet
149 -10 m 0,0,1
 30 -10 30 -10 30 122 c 2,2,-1
 30 479 l 1,3,-1
 200 479 l 1,4,-1
 200 163 l 2,5,6
 200 138 200 138 222 138 c 0,7,8
 250 138 250 138 269 152 c 1,9,-1
 269 479 l 1,10,-1
 437 479 l 1,11,-1
 437 2 l 1,12,-1
 278 2 l 1,13,-1
 278 37 l 1,14,-1
 274 37 l 1,15,16
 219 -10 219 -10 149 -10 c 0,0,1
189 520 m 1,17,-1
 81 660 l 1,18,-1
 239 660 l 1,19,-1
 304 520 l 1,20,-1
 189 520 l 1,17,-1
EndSplineSet
EndChar

StartChar: ucircumflex
Encoding: 251 251 144
Width: 467
Flags: HMW
HStem: -10 148<106 230.5> 459 20G<30 200 200 200 269 437 437 437> 520 135<160 201 94 311 271 311 160 377 271 271>
VStem: 30 170<155.5 163 163 479> 269 168<152 479 2 479>
LayerCount: 2
Fore
SplineSet
149 -10 m 0,0,1
 30 -10 30 -10 30 122 c 2,2,-1
 30 479 l 1,3,-1
 200 479 l 1,4,-1
 200 163 l 2,5,6
 200 138 200 138 222 138 c 0,7,8
 250 138 250 138 269 152 c 1,9,-1
 269 479 l 1,10,-1
 437 479 l 1,11,-1
 437 2 l 1,12,-1
 278 2 l 1,13,-1
 278 37 l 1,14,-1
 274 37 l 1,15,16
 219 -10 219 -10 149 -10 c 0,0,1
311 655 m 1,17,-1
 377 520 l 1,18,-1
 271 520 l 1,19,-1
 236 576 l 1,20,-1
 201 520 l 1,21,-1
 94 520 l 1,22,-1
 160 655 l 1,23,-1
 311 655 l 1,17,-1
EndSplineSet
EndChar

StartChar: uacute
Encoding: 250 250 145
Width: 467
Flags: HMW
HStem: -10 148<106 230.5> 459 20G<30 200 200 200 269 437 437 437> 520 140<243 295 180 403>
VStem: 30 170<155.5 163 163 479> 269 168<152 479 2 479>
LayerCount: 2
Fore
SplineSet
149 -10 m 0,0,1
 30 -10 30 -10 30 122 c 2,2,-1
 30 479 l 1,3,-1
 200 479 l 1,4,-1
 200 163 l 2,5,6
 200 138 200 138 222 138 c 0,7,8
 250 138 250 138 269 152 c 1,9,-1
 269 479 l 1,10,-1
 437 479 l 1,11,-1
 437 2 l 1,12,-1
 278 2 l 1,13,-1
 278 37 l 1,14,-1
 274 37 l 1,15,16
 219 -10 219 -10 149 -10 c 0,0,1
403 660 m 1,17,-1
 295 520 l 1,18,-1
 180 520 l 1,19,-1
 243 660 l 1,20,-1
 403 660 l 1,17,-1
EndSplineSet
EndChar

StartChar: udieresis
Encoding: 252 252 146
Width: 467
Flags: HMW
HStem: -10 148<106 230.5> 459 20G<30 200 200 200 269 437 437 437> 519 117<127.5 167.5 297.5 337.5>
VStem: 30 170<155.5 163 163 479> 85 127<559.5 596> 254 127<559.5 596> 269 168<152 479 2 479>
LayerCount: 2
Fore
SplineSet
149 -10 m 0,0,1
 30 -10 30 -10 30 122 c 2,2,-1
 30 479 l 1,3,-1
 200 479 l 1,4,-1
 200 163 l 2,5,6
 200 138 200 138 222 138 c 0,7,8
 250 138 250 138 269 152 c 1,9,-1
 269 479 l 1,10,-1
 437 479 l 1,11,-1
 437 2 l 1,12,-1
 278 2 l 1,13,-1
 278 37 l 1,14,-1
 274 37 l 1,15,16
 219 -10 219 -10 149 -10 c 0,0,1
101.5 534.5 m 128,-1,18
 85 550 85 550 85 577.5 c 128,-1,19
 85 605 85 605 101.5 620.5 c 128,-1,20
 118 636 118 636 148 636 c 128,-1,21
 178 636 178 636 195 620.5 c 128,-1,22
 212 605 212 605 212 578 c 0,23,24
 212 519 212 519 146 519 c 0,25,17
 118 519 118 519 101.5 534.5 c 128,-1,18
270.5 534.5 m 128,-1,27
 254 550 254 550 254 577.5 c 128,-1,28
 254 605 254 605 271 620.5 c 128,-1,29
 288 636 288 636 318 636 c 128,-1,30
 348 636 348 636 364.5 620.5 c 128,-1,31
 381 605 381 605 381 577.5 c 128,-1,32
 381 550 381 550 364.5 534.5 c 128,-1,33
 348 519 348 519 317.5 519 c 128,-1,26
 287 519 287 519 270.5 534.5 c 128,-1,27
EndSplineSet
EndChar

StartChar: yacute
Encoding: 253 253 147
Width: 445
Flags: HMW
HStem: -147 129<44 85 85 98 29 144 44 44> 459 20G<0 178 178 178 281 445 445 445> 520 140<235 287 172 395>
LayerCount: 2
Fore
SplineSet
445 479 m 1,0,-1
 321 -14 l 2,1,2
 302 -88 302 -88 265 -117.5 c 128,-1,3
 228 -147 228 -147 144 -147 c 2,4,-1
 44 -147 l 1,5,-1
 29 -18 l 1,6,-1
 85 -18 l 2,7,8
 119 -18 119 -18 119 9 c 0,9,10
 119 15 119 15 115 35 c 1,11,-1
 0 479 l 1,12,-1
 178 479 l 1,13,-1
 223 180 l 1,14,-1
 232 180 l 1,15,-1
 281 479 l 1,16,-1
 445 479 l 1,0,-1
395 660 m 1,17,-1
 287 520 l 1,18,-1
 172 520 l 1,19,-1
 235 660 l 1,20,-1
 395 660 l 1,17,-1
EndSplineSet
EndChar

StartChar: ydieresis
Encoding: 255 255 148
Width: 445
Flags: HMW
HStem: -147 129<44 85 85 98 29 144 44 44> 459 20G<0 178 178 178 281 445 445 445> 519 117<108.5 148.5 278.5 318.5>
VStem: 66 127<559.5 596> 235 127<559.5 596>
LayerCount: 2
Fore
SplineSet
445 479 m 1,0,-1
 321 -14 l 2,1,2
 302 -88 302 -88 265 -117.5 c 128,-1,3
 228 -147 228 -147 144 -147 c 2,4,-1
 44 -147 l 1,5,-1
 29 -18 l 1,6,-1
 85 -18 l 2,7,8
 119 -18 119 -18 119 9 c 0,9,10
 119 15 119 15 115 35 c 1,11,-1
 0 479 l 1,12,-1
 178 479 l 1,13,-1
 223 180 l 1,14,-1
 232 180 l 1,15,-1
 281 479 l 1,16,-1
 445 479 l 1,0,-1
82.5 534.5 m 128,-1,18
 66 550 66 550 66 577.5 c 128,-1,19
 66 605 66 605 82.5 620.5 c 128,-1,20
 99 636 99 636 129 636 c 128,-1,21
 159 636 159 636 176 620.5 c 128,-1,22
 193 605 193 605 193 578 c 0,23,24
 193 519 193 519 127 519 c 0,25,17
 99 519 99 519 82.5 534.5 c 128,-1,18
251.5 534.5 m 128,-1,27
 235 550 235 550 235 577.5 c 128,-1,28
 235 605 235 605 252 620.5 c 128,-1,29
 269 636 269 636 299 636 c 128,-1,30
 329 636 329 636 345.5 620.5 c 128,-1,31
 362 605 362 605 362 577.5 c 128,-1,32
 362 550 362 550 345.5 534.5 c 128,-1,33
 329 519 329 519 298.5 519 c 128,-1,26
 268 519 268 519 251.5 534.5 c 128,-1,27
EndSplineSet
EndChar

StartChar: zcaron
Encoding: 382 382 149
Width: 393
Flags: HMW
HStem: 0 138<234 381 234 381> 339 140<12 166 12 371> 518 136<134 134 134 174 230 271>
LayerCount: 2
Fore
SplineSet
381 0 m 1,0,-1
 22 0 l 1,1,-1
 18 96 l 1,2,-1
 166 339 l 1,3,-1
 12 339 l 1,4,-1
 12 479 l 1,5,-1
 371 479 l 1,6,-1
 377 390 l 1,7,-1
 234 138 l 1,8,-1
 381 138 l 1,9,-1
 381 0 l 1,0,-1
134 518 m 1,10,-1
 76 654 l 1,11,-1
 174 654 l 1,12,-1
 202 603 l 1,13,-1
 230 654 l 1,14,-1
 328 654 l 1,15,-1
 271 518 l 1,16,-1
 134 518 l 1,10,-1
EndSplineSet
EndChar

StartChar: at
Encoding: 64 64 150
Width: 886
Flags: HMW
HStem: -182 119<359.5 469.5> -10 125<580.5 668.5 605 668.5> 341 150<445 446> 540 124<361.5 546.5>
VStem: 24 139<131.5 324 131.5 351> 250 153<132 161.5 132 191> 464 158 723 139<230 356>
LayerCount: 2
Fore
SplineSet
627 354 m 1,0,-1
 622 151 l 2,1,2
 622 115 622 115 647 115 c 0,3,4
 680 115 680 115 701.5 160.5 c 128,-1,5
 723 206 723 206 723 279 c 0,6,7
 723 397 723 397 654.5 468.5 c 128,-1,8
 586 540 586 540 463 540 c 0,9,10
 316 540 316 540 239.5 456.5 c 128,-1,11
 163 373 163 373 163 228.5 c 128,-1,12
 163 84 163 84 237.5 10.5 c 128,-1,13
 312 -63 312 -63 442 -63 c 0,14,15
 513 -63 513 -63 622 -43 c 1,16,-1
 622 -160 l 1,17,18
 531 -182 531 -182 439 -182 c 128,-1,19
 347 -182 347 -182 274.5 -158 c 128,-1,20
 202 -134 202 -134 145 -85.5 c 128,-1,21
 88 -37 88 -37 56 44 c 128,-1,22
 24 125 24 125 24 230 c 0,23,24
 24 416 24 416 145 540 c 128,-1,25
 266 664 266 664 460 664 c 128,-1,26
 654 664 654 664 758 559 c 128,-1,27
 862 454 862 454 862 276 c 0,28,29
 862 152 862 152 797 71 c 128,-1,30
 732 -10 732 -10 614 -10 c 2,31,-1
 605 -10 l 2,32,33
 521 -10 521 -10 491 41 c 1,34,-1
 486 41 l 1,35,36
 449 -10 449 -10 372 -10 c 0,37,38
 313 -10 313 -10 281.5 28 c 128,-1,39
 250 66 250 66 250 132 c 0,40,41
 250 215 250 215 301.5 247 c 128,-1,42
 353 279 353 279 464 289 c 1,43,-1
 464 313 l 2,44,45
 464 341 464 341 436 341 c 0,46,47
 392 341 392 341 290 312 c 1,48,-1
 266 455 l 1,49,50
 406 491 406 491 482.5 491 c 128,-1,51
 559 491 559 491 593 458 c 128,-1,52
 627 425 627 425 627 354 c 1,0,-1
434 107 m 0,53,54
 471 107 471 107 471 146 c 2,55,-1
 471 195 l 1,56,57
 434 190 434 190 418.5 179.5 c 128,-1,58
 403 169 403 169 403 144 c 0,59,60
 403 107 403 107 434 107 c 0,53,54
EndSplineSet
EndChar

StartChar: registered
Encoding: 174 174 151
Width: 940
Flags: HMW
HStem: -198 143<379 503 379 596.5> 0 21G<314 465 314 314 523 647 523 523> 519 148<380.5 558>
VStem: 40 160<136 330 136 368.5> 314 151<0 146 0 467> 514 140<286 306.5> 735 165<191.5 321.5>
LayerCount: 2
Fore
SplineSet
514 293 m 0,0,1
 514 315 514 315 506.5 325 c 128,-1,2
 499 335 499 335 480 335 c 2,3,-1
 458 335 l 1,4,-1
 458 252 l 1,5,-1
 482 252 l 2,6,7
 514 252 514 252 514 293 c 0,0,1
654 314 m 0,8,9
 654 231 654 231 608 189 c 1,10,-1
 670 28 l 1,11,12
 735 107 735 107 735 238 c 128,-1,13
 735 369 735 369 668 444 c 128,-1,14
 601 519 601 519 466 519 c 0,15,16
 200 519 200 519 200 231 c 0,17,18
 200 89 200 89 267.5 17 c 128,-1,19
 335 -55 335 -55 465 -55 c 0,20,21
 573 -55 573 -55 647 0 c 1,22,-1
 523 0 l 1,23,-1
 473 146 l 1,24,-1
 465 146 l 1,25,-1
 465 0 l 1,26,-1
 314 0 l 1,27,-1
 314 467 l 1,28,-1
 491 467 l 2,29,30
 654 467 654 467 654 314 c 0,8,9
154.5 551 m 128,-1,32
 269 667 269 667 470.5 667 c 128,-1,33
 672 667 672 667 786 551 c 128,-1,34
 900 435 900 435 900 234 c 128,-1,35
 900 33 900 33 782 -82.5 c 128,-1,36
 664 -198 664 -198 463 -198 c 128,-1,37
 262 -198 262 -198 151 -84.5 c 128,-1,38
 40 29 40 29 40 232 c 128,-1,31
 40 435 40 435 154.5 551 c 128,-1,32
EndSplineSet
EndChar

StartChar: copyright
Encoding: 169 169 152
Width: 940
Flags: HMW
HStem: -198 143<379 558 379 596.5> -10 135<467.5 487.5> 336 142<466 493> 519 148<380.5 558>
VStem: 40 160<136 330 136 368.5> 288 151<192 267 192 307> 735 165<137 321.5>
LayerCount: 2
Fore
SplineSet
466 519 m 0,0,1
 200 519 200 519 200 232 c 128,-1,2
 200 -55 200 -55 469 -55 c 0,3,4
 603 -55 603 -55 669 16.5 c 128,-1,5
 735 88 735 88 735 228.5 c 128,-1,6
 735 369 735 369 668 444 c 128,-1,7
 601 519 601 519 466 519 c 0,0,1
154.5 551 m 128,-1,9
 269 667 269 667 470.5 667 c 128,-1,10
 672 667 672 667 786 551 c 128,-1,11
 900 435 900 435 900 234 c 128,-1,12
 900 33 900 33 782 -82.5 c 128,-1,13
 664 -198 664 -198 463 -198 c 128,-1,14
 262 -198 262 -198 151 -84.5 c 128,-1,15
 40 29 40 29 40 232 c 128,-1,8
 40 435 40 435 154.5 551 c 128,-1,9
449 148.5 m 128,-1,17
 459 125 459 125 486.5 125 c 128,-1,18
 514 125 514 125 571 141 c 1,19,-1
 594 15 l 1,20,21
 517 -10 517 -10 465 -10 c 0,22,23
 372 -10 372 -10 330 51 c 128,-1,24
 288 112 288 112 288 231.5 c 128,-1,25
 288 351 288 351 332 414.5 c 128,-1,26
 376 478 376 478 476 478 c 0,27,28
 534 478 534 478 594 449 c 1,29,-1
 570 315 l 1,30,31
 507 336 507 336 482.5 336 c 128,-1,32
 458 336 458 336 448.5 311.5 c 128,-1,33
 439 287 439 287 439 229.5 c 128,-1,16
 439 172 439 172 449 148.5 c 128,-1,17
EndSplineSet
EndChar

StartChar: paragraph
Encoding: 182 182 153
Width: 576
Flags: HMW
HStem: -130 21G<208 350 208 208 381 522 381 381> 614 20G<242 522 522 522>
VStem: 208 142<-130 193 193 193> 381 141<-130 515 515 515>
LayerCount: 2
Fore
SplineSet
522 -130 m 1,0,-1
 381 -130 l 1,1,-1
 381 515 l 1,2,-1
 350 515 l 1,3,-1
 350 -130 l 1,4,-1
 208 -130 l 1,5,-1
 208 193 l 1,6,7
 120 193 120 193 70 248.5 c 128,-1,8
 20 304 20 304 20 409.5 c 0,9,10
 20 515 20 515 79 574.5 c 128,-1,11
 138 634 138 634 242 634 c 2,12,-1
 522 634 l 1,13,-1
 522 -130 l 1,0,-1
EndSplineSet
EndChar

StartChar: section
Encoding: 167 167 154
Width: 440
Flags: HMW
HStem: -147 148<184 208.5 184 257.5> 499 149<234.5 254.5>
VStem: 32 187<193 485.5> 66 153<464 485.5 453.5 531> 226 147<20 41.5 -25 59.5> 226 182<20 333.5>
LayerCount: 2
Fore
SplineSet
273 200 m 1,0,1
 274 203 274 203 274 213.5 c 128,-1,2
 274 224 274 224 272 233 c 128,-1,3
 270 242 270 242 263.5 251 c 128,-1,4
 257 260 257 260 252.5 265.5 c 128,-1,5
 248 271 248 271 235.5 280.5 c 128,-1,6
 223 290 223 290 218 293.5 c 128,-1,7
 213 297 213 297 195 308.5 c 128,-1,8
 177 320 177 320 171 324 c 1,9,10
 170 318 170 318 170 303.5 c 128,-1,11
 170 289 170 289 176 277 c 128,-1,12
 182 265 182 265 198.5 251 c 0,13,14
 221.161825726 231.771784232 221.161825726 231.771784232 273 200 c 1,0,1
388.5 332.5 m 128,-1,16
 408 296 408 296 408 246 c 128,-1,17
 408 196 408 196 397.5 164 c 128,-1,18
 387 132 387 132 362 96 c 1,19,20
 373 68 373 68 373 30 c 0,21,22
 373 -54 373 -54 329 -100.5 c 128,-1,23
 285 -147 285 -147 200 -147 c 0,24,25
 149 -147 149 -147 47 -127 c 1,26,-1
 59 30 l 1,27,28
 167 1 167 1 196.5 1 c 128,-1,29
 226 1 226 1 226 29 c 0,30,31
 226 45 226 45 206 61.5 c 128,-1,32
 186 78 186 78 157.5 95.5 c 128,-1,33
 129 113 129 113 100.5 135 c 128,-1,34
 72 157 72 157 52 193 c 128,-1,35
 32 229 32 229 32 273 c 0,36,37
 32 351 32 351 79 412 c 1,38,39
 66 438 66 438 66 474 c 0,40,41
 66 557 66 557 115 602.5 c 128,-1,42
 164 648 164 648 243 648 c 0,43,44
 275 648 275 648 298 644 c 128,-1,45
 321 640 321 640 344 636 c 128,-1,46
 367 632 367 632 382 629 c 1,47,-1
 360 478 l 1,48,49
 269 499 269 499 244 499 c 128,-1,50
 219 499 219 499 219 479 c 0,51,52
 219 466 219 466 238.5 452.5 c 128,-1,53
 258 439 258 439 286 424 c 128,-1,54
 314 409 314 409 341.5 389 c 128,-1,15
 369 369 369 369 388.5 332.5 c 128,-1,16
EndSplineSet
EndChar

StartChar: asterisk
Encoding: 42 42 155
Width: 424
Flags: HMW
HStem: 257 21G<289 289> 602 20G<159 269 269 269>
LayerCount: 2
Fore
SplineSet
404 446 m 1,0,-1
 307 410 l 1,1,-1
 379 317 l 1,2,-1
 289 257 l 1,3,-1
 216 341 l 1,4,-1
 147 258 l 1,5,-1
 56 318 l 1,6,-1
 115 411 l 1,7,-1
 20 447 l 1,8,-1
 47 545 l 1,9,-1
 149 523 l 1,10,-1
 159 622 l 1,11,-1
 269 622 l 1,12,-1
 278 522 l 1,13,-1
 375 542 l 1,14,-1
 404 446 l 1,0,-1
EndSplineSet
EndChar

StartChar: dagger
Encoding: 8224 8224 156
Width: 405
Flags: HMW
HStem: -149 21G<126 274 126 126> 333 133<30 126 30 126 274 375> 588 20G<126 274 274 274>
VStem: 126 148<-149 333 -149 333 466 608>
LayerCount: 2
Fore
SplineSet
30 333 m 1,0,-1
 30 466 l 1,1,-1
 126 466 l 1,2,-1
 126 608 l 1,3,-1
 274 608 l 1,4,-1
 274 466 l 1,5,-1
 375 466 l 1,6,-1
 375 333 l 1,7,-1
 274 333 l 1,8,-1
 274 -149 l 1,9,-1
 126 -149 l 1,10,-1
 126 333 l 1,11,-1
 30 333 l 1,0,-1
EndSplineSet
EndChar

StartChar: daggerdbl
Encoding: 8225 8225 157
Width: 418
Flags: HMW
HStem: -149 21G<126 274 126 126> 7 134<30 126 30 126 274 374> 333 133<30 126 30 126 274 375> 588 20G<126 274 274 274>
VStem: 126 148<-149 7 -149 7 141 333 466 608>
LayerCount: 2
Fore
SplineSet
30 7 m 1,0,-1
 30 141 l 1,1,-1
 126 141 l 1,2,-1
 126 333 l 1,3,-1
 30 333 l 1,4,-1
 30 466 l 1,5,-1
 126 466 l 1,6,-1
 126 608 l 1,7,-1
 274 608 l 1,8,-1
 274 466 l 1,9,-1
 375 466 l 1,10,-1
 375 333 l 1,11,-1
 274 333 l 1,12,-1
 274 141 l 1,13,-1
 374 141 l 1,14,-1
 374 7 l 1,15,-1
 274 7 l 1,16,-1
 274 -149 l 1,17,-1
 126 -149 l 1,18,-1
 126 7 l 1,19,-1
 30 7 l 1,0,-1
EndSplineSet
EndChar

StartChar: ordfeminine
Encoding: 170 170 158
Width: 380
Flags: HMW
HStem: 288 87<268.5 340> 534 105<186 187>
VStem: 50 107<387.5 408 387.5 428.5> 200 110<389 514 389 519.5>
LayerCount: 2
Fore
SplineSet
314 543 m 1,0,-1
 310 398 l 2,1,2
 310 385 310 385 317 380 c 128,-1,3
 324 375 324 375 340 375 c 1,4,-1
 329 291 l 1,5,6
 299 288 299 288 284 288 c 0,7,8
 232 288 232 288 218 324 c 1,9,-1
 215 324 l 1,10,11
 190 288 190 288 142 288 c 0,12,13
 50 288 50 288 50 387 c 0,14,15
 50 445 50 445 86 467.5 c 128,-1,16
 122 490 122 490 200 497 c 1,17,-1
 200 514 l 2,18,19
 200 534 200 534 180 534 c 0,20,21
 143 534 143 534 75 513 c 1,22,-1
 57 616 l 1,23,24
 151 639 151 639 208.5 639 c 128,-1,25
 266 639 266 639 290 616 c 128,-1,26
 314 593 314 593 314 543 c 1,0,-1
179 370 m 0,27,28
 204 370 204 370 204 397 c 2,29,-1
 204 431 l 1,30,31
 179 428 179 428 168 420.5 c 128,-1,32
 157 413 157 413 157 396 c 0,33,34
 157 370 157 370 179 370 c 0,27,28
EndSplineSet
EndChar

StartChar: ordmasculine
Encoding: 186 186 159
Width: 388
Flags: HMW
HStem: 288 87<181.5 206.5 181.5 245.5> 544 95<181.5 206.5>
VStem: 48 118<423.5 455 455 471 423.5 526> 221 117<450 471 471 499.5>
LayerCount: 2
Fore
SplineSet
83.5 597.5 m 128,-1,1
 119 639 119 639 194 639 c 128,-1,2
 269 639 269 639 303.5 598.5 c 128,-1,3
 338 558 338 558 338 465 c 128,-1,4
 338 372 338 372 304.5 330 c 128,-1,5
 271 288 271 288 194.5 288 c 128,-1,6
 118 288 118 288 83 330 c 128,-1,7
 48 372 48 372 48 464 c 128,-1,0
 48 556 48 556 83.5 597.5 c 128,-1,1
194 544 m 128,-1,9
 176 544 176 544 171 530 c 128,-1,10
 166 516 166 516 166 471 c 2,11,-1
 166 455 l 2,12,13
 166 405 166 405 171 390 c 128,-1,14
 176 375 176 375 194 375 c 128,-1,15
 212 375 212 375 216.5 389.5 c 128,-1,16
 221 404 221 404 221 450 c 2,17,-1
 221 471 l 2,18,19
 221 516 221 516 216.5 530 c 128,-1,8
 212 544 212 544 194 544 c 128,-1,9
EndSplineSet
EndChar

StartChar: trademark
Encoding: 8482 8482 160
Width: 571
Flags: HMW
HStem: 280 21G<85 171 85 85 241 241 241 320 353 353 353 433 467 467 467 547> 538 83<29 85 24 234 171 229 171 171>
VStem: 85 86<280 538 280 538> 247 73 467 74
LayerCount: 2
Fore
SplineSet
229 538 m 1,0,-1
 171 538 l 1,1,-1
 171 280 l 1,2,-1
 85 280 l 1,3,-1
 85 538 l 1,4,-1
 24 538 l 1,5,-1
 29 621 l 1,6,-1
 234 621 l 1,7,-1
 229 538 l 1,0,-1
547 280 m 1,8,-1
 467 280 l 1,9,-1
 467 458 l 1,10,-1
 463 458 l 1,11,-1
 433 280 l 1,12,-1
 353 280 l 1,13,-1
 325 458 l 1,14,-1
 320 458 l 1,15,-1
 320 280 l 1,16,-1
 241 280 l 1,17,-1
 253 621 l 1,18,-1
 365 621 l 1,19,-1
 393 436 l 1,20,-1
 397 436 l 1,21,-1
 424 621 l 1,22,-1
 535 621 l 1,23,-1
 547 280 l 1,8,-1
EndSplineSet
EndChar

StartChar: numbersign
Encoding: 35 35 161
Width: 496
Flags: HMW
HStem: 0 21G<58 190 58 58 224 350 224 224> 154 125<24 81 24 98 24 242 24 213 386 451> 322 123<46 106 46 121 410 472> 576 20G<143 273 273 273 300 430 430 430>
LayerCount: 2
Fore
SplineSet
472 322 m 1,0,-1
 394 322 l 1,1,-1
 386 279 l 1,2,-1
 451 279 l 1,3,-1
 451 154 l 1,4,-1
 370 154 l 1,5,-1
 350 0 l 1,6,-1
 224 0 l 1,7,-1
 242 154 l 1,8,-1
 213 154 l 1,9,-1
 190 0 l 1,10,-1
 58 0 l 1,11,-1
 81 154 l 1,12,-1
 24 154 l 1,13,-1
 24 279 l 1,14,-1
 98 279 l 1,15,-1
 106 322 l 1,16,-1
 46 322 l 1,17,-1
 46 445 l 1,18,-1
 121 445 l 1,19,-1
 143 596 l 1,20,-1
 273 596 l 1,21,-1
 253 445 l 1,22,-1
 280 445 l 1,23,-1
 300 596 l 1,24,-1
 430 596 l 1,25,-1
 410 445 l 1,26,-1
 472 445 l 1,27,-1
 472 322 l 1,0,-1
271 328 m 1,28,-1
 232 328 l 1,29,-1
 223 273 l 1,30,-1
 262 273 l 1,31,-1
 271 328 l 1,28,-1
EndSplineSet
EndChar

StartChar: zero
Encoding: 48 48 162
Width: 473
Flags: HMW
HStem: -10 138<213.5 268 213.5 328> 484 147<211.5 266>
VStem: 23 162<248 306 306 321 248 414.5> 294 160<306 321 321 371.5>
LayerCount: 2
Fore
SplineSet
294 306 m 2,0,-1
 294 321 l 2,1,2
 294 419 294 419 288.5 435.5 c 128,-1,3
 283 452 283 452 277 463.5 c 0,4,5
 266.304347826 484 266.304347826 484 238 484 c 0,6,7
 210.304347826 484 210.304347826 484 200.5 463.5 c 0,8,9
 188.297239915 437.985138004 188.297239915 437.985138004 187.148619958 410.992569002 c 0,10,11
 185 360.5 185 360.5 185 321 c 2,12,-1
 185 306 l 2,13,14
 185 196.571428571 185 196.571428571 190.5 179.285714286 c 128,-1,15
 196 162 196 162 202 149.5 c 0,16,17
 212.32 128 212.32 128 245.16 128 c 128,-1,18
 278 128 278 128 286 165.5 c 128,-1,19
 294 203 294 203 294 306 c 2,0,-1
454 311 m 128,-1,21
 454 228 454 228 445.5 173 c 128,-1,22
 437 118 437 118 414 74.5 c 0,23,24
 369.32183908 -10 369.32183908 -10 238 -10 c 0,25,26
 108.67816092 -10 108.67816092 -10 64 74.5 c 0,27,28
 41 118 41 118 32 173.5 c 128,-1,29
 23 229 23 229 23 311 c 0,30,31
 23 479 23 479 67.5 555 c 128,-1,32
 112 631 112 631 238 631 c 0,33,34
 369.850574713 631 369.850574713 631 414 547.5 c 0,35,36
 437 504 437 504 445.5 449 c 128,-1,20
 454 394 454 394 454 311 c 128,-1,21
EndSplineSet
EndChar

StartChar: one
Encoding: 49 49 163
Width: 320
Flags: HMW
HStem: 0 21G<90 257 90 90> 601 20G<120 257 257 257>
VStem: 90 167<0 462 462 462>
LayerCount: 2
Fore
SplineSet
257 0 m 1,0,-1
 90 0 l 1,1,-1
 90 462 l 1,2,-1
 18 462 l 1,3,-1
 18 567 l 1,4,-1
 120 621 l 1,5,-1
 257 621 l 1,6,-1
 257 0 l 1,0,-1
EndSplineSet
EndChar

StartChar: two
Encoding: 50 50 164
Width: 413
Flags: HMW
HStem: 0 143<251 400 251 400> 466 165<165.5 190.5>
VStem: 228 170<378 424>
LayerCount: 2
Fore
SplineSet
8 579 m 1,0,1
 105 631 105 631 201.5 631 c 128,-1,2
 298 631 298 631 348 582 c 128,-1,3
 398 533 398 533 398 443.5 c 128,-1,4
 398 354 398 354 366.5 297 c 128,-1,5
 335 240 335 240 251 143 c 1,6,-1
 400 143 l 1,7,-1
 400 0 l 1,8,-1
 33 0 l 1,9,-1
 25 102 l 1,10,11
 120.384615385 202.887573964 120.384615385 202.887573964 160.192307692 254.943786982 c 128,-1,12
 200 307 200 307 214 341 c 128,-1,13
 228 375 228 375 228 404.5 c 128,-1,14
 228 434 228 434 213.5 450 c 128,-1,15
 199 466 199 466 176 466 c 128,-1,16
 153 466 153 466 132 460.5 c 0,17,18
 102.791530945 452.850162866 102.791530945 452.850162866 40 424 c 1,19,-1
 8 579 l 1,0,1
EndSplineSet
EndChar

StartChar: three
Encoding: 51 51 165
Width: 428
Flags: HMW
HStem: -10 150<177 206.5 176 278> 248 131<111 173 111 174> 477 154<180.5 196>
VStem: 225 189
LayerCount: 2
Fore
SplineSet
217 631 m 0,0,1
 405 631 405 631 405 468 c 0,2,3
 405 419 405 419 387 387 c 128,-1,4
 369 355 369 355 328 329 c 1,5,-1
 328 325 l 1,6,7
 374 304 374 304 394 269.5 c 128,-1,8
 414 235 414 235 414 180 c 0,9,10
 414 89 414 89 362 39.5 c 128,-1,11
 310 -10 310 -10 211 -10 c 0,12,13
 162 -10 162 -10 127.5 -1.5 c 128,-1,14
 93 7 93 7 39 30 c 1,15,-1
 74 170 l 1,16,17
 157 140 157 140 189 140 c 0,18,19
 236 140 236 140 236 192 c 0,20,21
 236 248 236 248 173 248 c 2,22,-1
 111 248 l 1,23,-1
 111 379 l 1,24,-1
 174 379 l 2,25,26
 202 379 202 379 213.5 391.5 c 128,-1,27
 225 404 225 404 225 429 c 0,28,29
 225 477 225 477 178 477 c 0,30,31
 145 477 145 477 61 443 c 1,32,-1
 22 578 l 1,33,34
 77 608 77 608 120 619.5 c 128,-1,35
 163 631 163 631 217 631 c 0,0,1
EndSplineSet
EndChar

StartChar: four
Encoding: 52 52 166
Width: 492
Flags: HMW
HStem: 0 21G<254 421 254 254> 121 135<171 254 421 491> 601 20G<215 421 421 421>
VStem: 259 162<256 409 409 409>
LayerCount: 2
Fore
SplineSet
491 121 m 1,0,-1
 421 121 l 1,1,-1
 421 0 l 1,2,-1
 254 0 l 1,3,-1
 254 121 l 1,4,-1
 27 121 l 1,5,-1
 10 240 l 1,6,-1
 215 621 l 1,7,-1
 421 621 l 1,8,-1
 421 256 l 1,9,-1
 498 256 l 1,10,-1
 491 121 l 1,0,-1
259 256 m 1,11,-1
 259 409 l 1,12,-1
 253 409 l 1,13,-1
 171 256 l 1,14,-1
 259 256 l 1,11,-1
EndSplineSet
EndChar

StartChar: five
Encoding: 53 53 167
Width: 413
Flags: HMW
HStem: -10 155<165.5 199.5 165.5 272> 256 141<187.5 299.5> 472 149<187 368 187 187>
VStem: 32 155<383 472 383 621 383 621> 233 163<182.5 219.5>
LayerCount: 2
Fore
SplineSet
396 211 m 0,0,1
 396 -10 396 -10 200 -10 c 0,2,3
 109 -10 109 -10 31 21 c 1,4,-1
 43 176 l 1,5,6
 146 145 146 145 182 145 c 0,7,8
 233 145 233 145 233 200.5 c 0,9,10
 233 256 233 256 194 256 c 0,11,12
 175 256 175 256 165 236 c 1,13,-1
 32 256 l 1,14,-1
 32 621 l 1,15,-1
 368 621 l 1,16,-1
 368 472 l 1,17,-1
 187 472 l 1,18,-1
 187 383 l 1,19,20
 213 397 213 397 253 397 c 0,21,22
 396 397 396 397 396 211 c 0,0,1
EndSplineSet
EndChar

StartChar: six
Encoding: 54 54 168
Width: 459
Flags: HMW
HStem: -10 139<225 262.5 225 317.5> 264 131<230.5 331.5> 488 143<334.5 389>
VStem: 23 166<198.5 235.5 198.5 392> 293 155<173 220>
LayerCount: 2
Fore
SplineSet
280.5 248 m 128,-1,1
 268 264 268 264 241.5 264 c 128,-1,2
 215 264 215 264 191 257 c 1,3,4
 189 241 189 241 189 231 c 0,5,6
 189 129 189 129 246 129 c 0,7,8
 271 129 271 129 282 145 c 128,-1,9
 293 161 293 161 293 196.5 c 128,-1,0
 293 232 293 232 280.5 248 c 128,-1,1
280 395 m 0,10,11
 360 395 360 395 404 349.5 c 128,-1,12
 448 304 448 304 448 211 c 0,13,14
 448 -10 448 -10 244 -10 c 0,15,16
 23 -10 23 -10 23 267 c 0,17,18
 23 455 23 455 113.5 543 c 128,-1,19
 204 631 204 631 399 631 c 1,20,-1
 389 488 l 1,21,22
 304 488 304 488 258.5 466 c 128,-1,23
 213 444 213 444 196 388 c 1,24,-1
 198 383 l 1,25,26
 234 395 234 395 280 395 c 0,10,11
EndSplineSet
EndChar

StartChar: seven
Encoding: 55 55 169
Width: 420
Flags: HMW
HStem: 0 21G<45 233 45 45> 462 159<10 212 10 404>
LayerCount: 2
Fore
SplineSet
404 528 m 1,0,-1
 233 0 l 1,1,-1
 45 0 l 1,2,-1
 212 462 l 1,3,-1
 10 462 l 1,4,-1
 10 621 l 1,5,-1
 404 621 l 1,6,-1
 404 528 l 1,0,-1
EndSplineSet
EndChar

StartChar: eight
Encoding: 56 56 170
Width: 464
Flags: HMW
HStem: -10 129<217 251.5 217 298.5> 495 136<218 251>
VStem: 27 157 283 159<153.5 187.5>
LayerCount: 2
Fore
SplineSet
80.5 587 m 128,-1,1
 134 631 134 631 232 631 c 128,-1,2
 330 631 330 631 382.5 587.5 c 128,-1,3
 435 544 435 544 435 466 c 0,4,5
 435 411 435 411 419 383 c 128,-1,6
 403 355 403 355 360 321 c 1,7,-1
 360 317 l 1,8,9
 403 292 403 292 422.5 259.5 c 128,-1,10
 442 227 442 227 442 176 c 0,11,12
 442 -10 442 -10 231 -10 c 0,13,14
 135 -10 135 -10 78.5 35.5 c 128,-1,15
 22 81 22 81 22 173.5 c 128,-1,16
 22 266 22 266 102 310 c 1,17,-1
 102 314 l 1,18,19
 61 350 61 350 44 380 c 128,-1,20
 27 410 27 410 27 467 c 0,21,0
 27 543 27 543 80.5 587 c 128,-1,1
235 119 m 0,22,23
 283 119 283 119 283 170 c 0,24,25
 283 194 283 194 270 209 c 128,-1,26
 257 224 257 224 224 248 c 1,27,28
 198.423076923 224.25 198.423076923 224.25 191.211538462 208.625 c 128,-1,29
 184 193 184 193 184 177 c 0,30,31
 184 119 184 119 235 119 c 0,22,23
234 495 m 0,32,33
 187 495 187 495 187 448 c 0,34,35
 187 416.5 187 416.5 211 396.5 c 0,36,37
 220 389 220 389 241 374 c 1,38,39
 264 393 264 393 274.5 407 c 128,-1,40
 285 421 285 421 285 441 c 0,41,42
 285 495 285 495 234 495 c 0,32,33
EndSplineSet
EndChar

StartChar: nine
Encoding: 57 57 171
Width: 459
Flags: HMW
HStem: -10 142<66 129 66 199> 232 120<199 199.5> 489 142<195 237.5>
VStem: 12 154<399 445 399 493> 270 164<381.5 416>
LayerCount: 2
Fore
SplineSet
183 232 m 0,0,1
 12 232 12 232 12 425 c 0,2,3
 12 631 12 631 215 631 c 0,4,5
 331 631 331 631 382.5 568 c 128,-1,6
 434 505 434 505 434 370 c 0,7,8
 434 177 434 177 348.5 83.5 c 128,-1,9
 263 -10 263 -10 56 -10 c 1,10,-1
 66 132 l 1,11,12
 158 132 158 132 201.5 156.5 c 128,-1,13
 245 181 245 181 260 237 c 1,14,-1
 258 242 l 1,15,16
 220 232 220 232 183 232 c 0,0,1
218 352 m 128,-1,18
 246 352 246 352 269 361 c 1,19,20
 270 369 270 369 270 403.5 c 0,21,22
 270 438 270 438 258.5 463.5 c 128,-1,23
 247 489 247 489 212 489 c 0,24,25
 166 489 166 489 166 423 c 0,26,27
 166 386 166 386 178 369 c 128,-1,17
 190 352 190 352 218 352 c 128,-1,18
EndSplineSet
EndChar

StartChar: onesuperior
Encoding: 185 185 172
Width: 279
Flags: HMW
HStem: 186 21G<94 211 94 94> 601 20G<115 211 211 211>
VStem: 44 167<509 583 583 583>
LayerCount: 2
Fore
SplineSet
211 186 m 1,0,-1
 94 186 l 1,1,-1
 94 509 l 1,2,-1
 44 509 l 1,3,-1
 44 583 l 1,4,-1
 115 621 l 1,5,-1
 211 621 l 1,6,-1
 211 186 l 1,0,-1
EndSplineSet
EndChar

StartChar: twosuperior
Encoding: 178 178 173
Width: 362
Flags: HMW
HStem: 189 100<214 318 214 318> 515 116<154 171>
VStem: 198 119<453.5 485.5>
LayerCount: 2
Fore
SplineSet
44 594 m 1,0,1
 112 631 112 631 179 631 c 128,-1,2
 246 631 246 631 281.5 596.5 c 128,-1,3
 317 562 317 562 317 498 c 0,4,5
 317 455 317 455 303 418.5 c 128,-1,6
 289 382 289 382 272 359 c 128,-1,7
 255 336 255 336 214 289 c 1,8,-1
 318 289 l 1,9,-1
 318 189 l 1,10,-1
 61 189 l 1,11,-1
 55 260 l 1,12,13
 105 312 105 312 130 341 c 128,-1,14
 155 370 155 370 176.5 407 c 128,-1,15
 198 444 198 444 198 468 c 0,16,17
 198 515 198 515 158 515 c 0,18,19
 130 515 130 515 66 486 c 1,20,-1
 44 594 l 1,0,1
EndSplineSet
EndChar

StartChar: threesuperior
Encoding: 179 179 174
Width: 363
Flags: HMW
HStem: 182 105<153 173.5 152 223.5> 363 91<107 150 107 151> 523 108<155.5 166.5>
VStem: 186 133
LayerCount: 2
Fore
SplineSet
181 631 m 0,0,1
 312 631 312 631 312 517 c 0,2,3
 312 454 312 454 259 419 c 1,4,-1
 259 416 l 1,5,6
 319 389 319 389 319 320 c 0,7,8
 319 182 319 182 177 182 c 0,9,10
 123 182 123 182 56 210 c 1,11,-1
 81 308 l 1,12,13
 138 287 138 287 161 287 c 0,14,15
 194 287 194 287 194 323 c 0,16,17
 194 363 194 363 150 363 c 2,18,-1
 107 363 l 1,19,-1
 107 454 l 1,20,-1
 151 454 l 2,21,22
 186 454 186 454 186 488.5 c 128,-1,23
 186 523 186 523 154 523 c 0,24,25
 130 523 130 523 72 499 c 1,26,-1
 44 594 l 1,27,28
 114 631 114 631 181 631 c 0,0,1
EndSplineSet
EndChar

StartChar: onehalf
Encoding: 189 189 175
Width: 776
Flags: HMW
HStem: -10 21G<196 313 196 196> 0 100<628 732 628 732> 326 116<568 585> 601 20G<115 211 211 211> 611 20G<375 493 493 493>
VStem: 44 167<509 583 583 583> 612 119<264.5 296.5>
LayerCount: 2
Fore
SplineSet
493 631 m 1,0,-1
 313 -10 l 1,1,-1
 196 -10 l 1,2,-1
 375 631 l 1,3,-1
 493 631 l 1,0,-1
211 186 m 1,4,-1
 94 186 l 1,5,-1
 94 509 l 1,6,-1
 44 509 l 1,7,-1
 44 583 l 1,8,-1
 115 621 l 1,9,-1
 211 621 l 1,10,-1
 211 186 l 1,4,-1
458 405 m 1,11,12
 526 442 526 442 593 442 c 128,-1,13
 660 442 660 442 695.5 407.5 c 128,-1,14
 731 373 731 373 731 309 c 0,15,16
 731 266 731 266 717 229.5 c 128,-1,17
 703 193 703 193 686 170 c 128,-1,18
 669 147 669 147 628 100 c 1,19,-1
 732 100 l 1,20,-1
 732 0 l 1,21,-1
 475 0 l 1,22,-1
 469 71 l 1,23,24
 519 123 519 123 544 152 c 128,-1,25
 569 181 569 181 590.5 218 c 128,-1,26
 612 255 612 255 612 279 c 0,27,28
 612 326 612 326 572 326 c 0,29,30
 544 326 544 326 480 297 c 1,31,-1
 458 405 l 1,11,12
EndSplineSet
EndChar

StartChar: onequarter
Encoding: 188 188 176
Width: 800
Flags: HMW
HStem: -10 21G<196 313 196 196> 0 21G<585 702 585 585> 85 94<527 585 702 751> 601 20G<115 211 211 211> 611 20G<375 493 493 493>
VStem: 44 167<509 583 583 583> 588 114<179 286 286 286>
LayerCount: 2
Fore
SplineSet
493 631 m 1,0,-1
 313 -10 l 1,1,-1
 196 -10 l 1,2,-1
 375 631 l 1,3,-1
 493 631 l 1,0,-1
751 85 m 1,4,-1
 702 85 l 1,5,-1
 702 0 l 1,6,-1
 585 0 l 1,7,-1
 585 85 l 1,8,-1
 426 85 l 1,9,-1
 414 168 l 1,10,-1
 557 435 l 1,11,-1
 702 435 l 1,12,-1
 702 179 l 1,13,-1
 756 179 l 1,14,-1
 751 85 l 1,4,-1
588 179 m 1,15,-1
 588 286 l 1,16,-1
 584 286 l 1,17,-1
 527 179 l 1,18,-1
 588 179 l 1,15,-1
211 186 m 1,19,-1
 94 186 l 1,20,-1
 94 509 l 1,21,-1
 44 509 l 1,22,-1
 44 583 l 1,23,-1
 115 621 l 1,24,-1
 211 621 l 1,25,-1
 211 186 l 1,19,-1
EndSplineSet
EndChar

StartChar: threequarters
Encoding: 190 190 177
Width: 878
Flags: HMW
HStem: -10 21G<274 391 274 274> 0 21G<663 780 663 663> 85 94<605 663 780 829> 182 105<153 173.5 152 223.5> 363 91<107 150 107 151> 523 108<155.5 166.5>
VStem: 186 133 666 114<179 286 286 286>
LayerCount: 2
Fore
SplineSet
571 631 m 1,0,-1
 391 -10 l 1,1,-1
 274 -10 l 1,2,-1
 453 631 l 1,3,-1
 571 631 l 1,0,-1
181 631 m 0,4,5
 312 631 312 631 312 517 c 0,6,7
 312 454 312 454 259 419 c 1,8,-1
 259 416 l 1,9,10
 319 389 319 389 319 320 c 0,11,12
 319 182 319 182 177 182 c 0,13,14
 123 182 123 182 56 210 c 1,15,-1
 81 308 l 1,16,17
 138 287 138 287 161 287 c 0,18,19
 194 287 194 287 194 323 c 0,20,21
 194 363 194 363 150 363 c 2,22,-1
 107 363 l 1,23,-1
 107 454 l 1,24,-1
 151 454 l 2,25,26
 186 454 186 454 186 488.5 c 128,-1,27
 186 523 186 523 154 523 c 0,28,29
 130 523 130 523 72 499 c 1,30,-1
 44 594 l 1,31,32
 114 631 114 631 181 631 c 0,4,5
829 85 m 1,33,-1
 780 85 l 1,34,-1
 780 0 l 1,35,-1
 663 0 l 1,36,-1
 663 85 l 1,37,-1
 504 85 l 1,38,-1
 492 168 l 1,39,-1
 635 435 l 1,40,-1
 780 435 l 1,41,-1
 780 179 l 1,42,-1
 834 179 l 1,43,-1
 829 85 l 1,33,-1
666 179 m 1,44,-1
 666 286 l 1,45,-1
 662 286 l 1,46,-1
 605 179 l 1,47,-1
 666 179 l 1,44,-1
EndSplineSet
EndChar

StartChar: percent
Encoding: 37 37 178
Width: 811
Flags: HMW
HStem: -10 97<610 648.5 610 691> 182 97<165 203.5 165 246> 336 103<609 647.5> 528 103<164 202.5>
VStem: 32 113<362.5 403 403 414 362.5 479.5> 222 112<403 414 414 449> 477 113<170.5 211 211 222 170.5 287.5> 667 112<211 222 222 257>
LayerCount: 2
Fore
SplineSet
554 631 m 1,0,-1
 374 -10 l 1,1,-1
 257 -10 l 1,2,-1
 436 631 l 1,3,-1
 554 631 l 1,0,-1
222 403 m 2,4,-1
 222 414 l 2,5,6
 222 472.857142857 222 472.857142857 218 493.428571429 c 128,-1,7
 214 514 214 514 205.5 521 c 128,-1,8
 197 528 197 528 183 528 c 128,-1,9
 169 528 169 528 161 521 c 128,-1,10
 153 514 153 514 149.5 496 c 0,11,12
 145 472.857142857 145 472.857142857 145 414 c 2,13,-1
 145 403 l 2,14,15
 145 335.875 145 335.875 149.5 313.9375 c 128,-1,16
 154 292 154 292 162 285.5 c 128,-1,17
 170 279 170 279 184.5 279 c 128,-1,18
 199 279 199 279 206.5 285.5 c 128,-1,19
 214 292 214 292 217.5 311.5 c 0,20,21
 222 336.571428571 222 336.571428571 222 403 c 2,4,-1
334 407 m 128,-1,23
 334 289 334 289 303 235.5 c 128,-1,24
 272 182 272 182 183.5 182 c 128,-1,25
 95 182 95 182 63.5 236 c 128,-1,26
 32 290 32 290 32 407 c 128,-1,27
 32 524 32 524 63 577.5 c 128,-1,28
 94 631 94 631 183 631 c 128,-1,29
 272 631 272 631 303 578 c 128,-1,22
 334 525 334 525 334 407 c 128,-1,23
667 211 m 2,30,-1
 667 222 l 2,31,32
 667 280.857142857 667 280.857142857 663 301.428571429 c 128,-1,33
 659 322 659 322 650.5 329 c 128,-1,34
 642 336 642 336 628 336 c 128,-1,35
 614 336 614 336 606 329 c 128,-1,36
 598 322 598 322 594.5 304 c 0,37,38
 590 280.857142857 590 280.857142857 590 222 c 2,39,-1
 590 211 l 2,40,41
 590 143.875 590 143.875 594.5 121.9375 c 128,-1,42
 599 100 599 100 607 93.5 c 128,-1,43
 615 87 615 87 629.5 87 c 128,-1,44
 644 87 644 87 651.5 93.5 c 128,-1,45
 659 100 659 100 662.5 119.5 c 0,46,47
 667 144.571428571 667 144.571428571 667 211 c 2,30,-1
779 215 m 128,-1,49
 779 97 779 97 748 43.5 c 128,-1,50
 717 -10 717 -10 628.5 -10 c 128,-1,51
 540 -10 540 -10 508.5 44 c 128,-1,52
 477 98 477 98 477 215 c 128,-1,53
 477 332 477 332 508 385.5 c 128,-1,54
 539 439 539 439 628 439 c 128,-1,55
 717 439 717 439 748 386 c 128,-1,48
 779 333 779 333 779 215 c 128,-1,49
EndSplineSet
EndChar

StartChar: perthousand
Encoding: 8240 8240 179
Width: 1133
Flags: HMW
HStem: -10 97<610 648.5 610 691 932 970.5> 182 97<165 203.5 165 246> 336 103<609 647.5 931 969.5> 528 103<164 202.5>
VStem: 32 113<362.5 403 403 414 362.5 479.5> 222 112<403 414 414 449> 477 113<170.5 211 211 222 170.5 287.5> 667 112<211 222 222 257> 799 113<170.5 211 211 222 170.5 287.5> 989 112<211 222 222 257>
LayerCount: 2
Fore
SplineSet
554 631 m 1,0,-1
 374 -10 l 1,1,-1
 257 -10 l 1,2,-1
 436 631 l 1,3,-1
 554 631 l 1,0,-1
222 403 m 2,4,-1
 222 414 l 2,5,6
 222 472.857142857 222 472.857142857 218 493.428571429 c 128,-1,7
 214 514 214 514 205.5 521 c 128,-1,8
 197 528 197 528 183 528 c 128,-1,9
 169 528 169 528 161 521 c 128,-1,10
 153 514 153 514 149.5 496 c 0,11,12
 145 472.857142857 145 472.857142857 145 414 c 2,13,-1
 145 403 l 2,14,15
 145 335.875 145 335.875 149.5 313.9375 c 128,-1,16
 154 292 154 292 162 285.5 c 128,-1,17
 170 279 170 279 184.5 279 c 128,-1,18
 199 279 199 279 206.5 285.5 c 128,-1,19
 214 292 214 292 217.5 311.5 c 0,20,21
 222 336.571428571 222 336.571428571 222 403 c 2,4,-1
334 407 m 128,-1,23
 334 289 334 289 303 235.5 c 128,-1,24
 272 182 272 182 183.5 182 c 128,-1,25
 95 182 95 182 63.5 236 c 128,-1,26
 32 290 32 290 32 407 c 128,-1,27
 32 524 32 524 63 577.5 c 128,-1,28
 94 631 94 631 183 631 c 128,-1,29
 272 631 272 631 303 578 c 128,-1,22
 334 525 334 525 334 407 c 128,-1,23
667 211 m 2,30,-1
 667 222 l 2,31,32
 667 280.857142857 667 280.857142857 663 301.428571429 c 128,-1,33
 659 322 659 322 650.5 329 c 128,-1,34
 642 336 642 336 628 336 c 128,-1,35
 614 336 614 336 606 329 c 128,-1,36
 598 322 598 322 594.5 304 c 0,37,38
 590 280.857142857 590 280.857142857 590 222 c 2,39,-1
 590 211 l 2,40,41
 590 143.875 590 143.875 594.5 121.9375 c 128,-1,42
 599 100 599 100 607 93.5 c 128,-1,43
 615 87 615 87 629.5 87 c 128,-1,44
 644 87 644 87 651.5 93.5 c 128,-1,45
 659 100 659 100 662.5 119.5 c 0,46,47
 667 144.571428571 667 144.571428571 667 211 c 2,30,-1
779 215 m 128,-1,49
 779 97 779 97 748 43.5 c 128,-1,50
 717 -10 717 -10 628.5 -10 c 128,-1,51
 540 -10 540 -10 508.5 44 c 128,-1,52
 477 98 477 98 477 215 c 128,-1,53
 477 332 477 332 508 385.5 c 128,-1,54
 539 439 539 439 628 439 c 128,-1,55
 717 439 717 439 748 386 c 128,-1,48
 779 333 779 333 779 215 c 128,-1,49
989 211 m 2,56,-1
 989 222 l 2,57,58
 989 280.857142857 989 280.857142857 985 301.428571429 c 128,-1,59
 981 322 981 322 972.5 329 c 128,-1,60
 964 336 964 336 950 336 c 128,-1,61
 936 336 936 336 928 329 c 128,-1,62
 920 322 920 322 916.5 304 c 0,63,64
 912 280.857142857 912 280.857142857 912 222 c 2,65,-1
 912 211 l 2,66,67
 912 143.875 912 143.875 916.5 121.9375 c 128,-1,68
 921 100 921 100 929 93.5 c 128,-1,69
 937 87 937 87 951.5 87 c 128,-1,70
 966 87 966 87 973.5 93.5 c 128,-1,71
 981 100 981 100 984.5 119.5 c 0,72,73
 989 144.571428571 989 144.571428571 989 211 c 2,56,-1
1101 215 m 128,-1,75
 1101 97 1101 97 1070 43.5 c 128,-1,76
 1039 -10 1039 -10 950.5 -10 c 128,-1,77
 862 -10 862 -10 830.5 44 c 128,-1,78
 799 98 799 98 799 215 c 128,-1,79
 799 332 799 332 830 385.5 c 128,-1,80
 861 439 861 439 950 439 c 128,-1,81
 1039 439 1039 439 1070 386 c 128,-1,74
 1101 333 1101 333 1101 215 c 128,-1,75
EndSplineSet
EndChar

StartChar: degree
Encoding: 176 176 180
Width: 302
Flags: HMW
HStem: 382 90<140.5 159.5 140.5 191.5> 542 89<140 160>
VStem: 36 89<493 518.5 493 547.5> 176 90<493.5 518.5>
LayerCount: 2
Fore
SplineSet
239 601 m 128,-1,1
 266 571 266 571 266 506.5 c 128,-1,2
 266 442 266 442 239 412 c 128,-1,3
 212 382 212 382 151 382 c 128,-1,4
 90 382 90 382 63 412 c 128,-1,5
 36 442 36 442 36 505.5 c 128,-1,6
 36 569 36 569 63.5 600 c 128,-1,7
 91 631 91 631 151.5 631 c 128,-1,0
 212 631 212 631 239 601 c 128,-1,1
176 506 m 128,-1,9
 176 525 176 525 170.5 533.5 c 128,-1,10
 165 542 165 542 150.5 542 c 128,-1,11
 136 542 136 542 130.5 534 c 128,-1,12
 125 526 125 526 125 506.5 c 128,-1,13
 125 487 125 487 130.5 479.5 c 128,-1,14
 136 472 136 472 150 472 c 128,-1,15
 164 472 164 472 170 479.5 c 128,-1,8
 176 487 176 487 176 506 c 128,-1,9
EndSplineSet
EndChar

StartChar: dollar
Encoding: 36 36 181
Width: 459
Flags: HMW
HStem: -79 21G<168 300 168 168> 698 20G<168 300 300 300>
VStem: 32 177<410 451 410 482.5> 168 132<-79 -7 -7 -7 628 718> 251 176<161.5 210>
LayerCount: 2
Fore
SplineSet
54.5 339 m 128,-1,1
 32 379 32 379 32 443 c 128,-1,2
 32 507 32 507 67.5 557.5 c 128,-1,3
 103 608 103 608 168 624 c 1,4,-1
 168 718 l 1,5,-1
 300 718 l 1,6,-1
 300 628 l 1,7,8
 350 624 350 624 412 613 c 1,9,-1
 392 453 l 1,10,11
 293 476 293 476 256 476 c 0,12,13
 209 476 209 476 209 438 c 0,14,15
 209 423 209 423 231.5 409 c 128,-1,16
 254 395 254 395 286 379.5 c 128,-1,17
 318 364 318 364 350 342.5 c 128,-1,18
 382 321 382 321 404.5 281 c 128,-1,19
 427 241 427 241 427 177.5 c 128,-1,20
 427 114 427 114 394.5 64.5 c 128,-1,21
 362 15 362 15 300 -1 c 1,22,-1
 300 -79 l 1,23,-1
 168 -79 l 1,24,-1
 168 -7 l 1,25,26
 104 0 104 0 49 19 c 1,27,-1
 60 168 l 1,28,29
 167 137 167 137 209 137 c 128,-1,30
 251 137 251 137 251 174 c 0,31,32
 251 193 251 193 228.5 209 c 128,-1,33
 206 225 206 225 174 241 c 128,-1,34
 142 257 142 257 109.5 278 c 128,-1,0
 77 299 77 299 54.5 339 c 128,-1,1
EndSplineSet
EndChar

StartChar: cent
Encoding: 162 162 182
Width: 397
Flags: HMW
HStem: -79 21G<148 280 148 148> 548 20G<148 280 280 280>
VStem: 34 168<202 271.5 202 287.5> 148 132<-79 -5 -79 5 -79 5 487 568>
LayerCount: 2
Fore
SplineSet
212 318.5 m 128,-1,1
 202 292 202 292 202 236 c 128,-1,2
 202 180 202 180 211.5 155 c 128,-1,3
 221 130 221 130 251.5 130 c 128,-1,4
 282 130 282 130 331 141 c 1,5,-1
 349 13 l 1,6,7
 318 2 318 2 280 -5 c 1,8,-1
 280 -79 l 1,9,-1
 148 -79 l 1,10,-1
 148 5 l 1,11,12
 34 53 34 53 34 231 c 0,13,14
 34 318 34 318 63 381.5 c 128,-1,15
 92 445 92 445 148 473 c 1,16,-1
 148 568 l 1,17,-1
 280 568 l 1,18,-1
 280 487 l 1,19,20
 320 483 320 483 357 467 c 1,21,-1
 339 320 l 1,22,23
 281 345 281 345 251.5 345 c 128,-1,0
 222 345 222 345 212 318.5 c 128,-1,1
EndSplineSet
EndChar

StartChar: Euro
Encoding: 8364 8364 183
Width: 499
Flags: HMW
HStem: -10 151<313.5 335> 189 97<24 78 24 85 24 78 263 415 263 263> 317 99<24 78 24 84 261 423> 470 161<310.5 342.5>
LayerCount: 2
Fore
SplineSet
24 416 m 1,0,-1
 84 416 l 1,1,2
 119 631 119 631 319 631 c 0,3,4
 395 631 395 631 464 599 c 1,5,-1
 437 444 l 1,6,7
 359 470 359 470 328 470 c 0,8,9
 277 470 277 470 261 416 c 1,10,-1
 433 416 l 1,11,-1
 423 317 l 1,12,-1
 250 317 l 1,13,-1
 250 286 l 1,14,-1
 421 286 l 1,15,-1
 415 189 l 1,16,-1
 263 189 l 1,17,18
 280 141 280 141 331 141 c 0,19,20
 365 141 365 141 438 160 c 1,21,-1
 464 19 l 1,22,23
 385 -10 385 -10 305 -10 c 0,24,25
 121 -10 121 -10 85 189 c 1,26,-1
 24 189 l 1,27,-1
 24 286 l 1,28,-1
 78 286 l 1,29,-1
 78 317 l 1,30,-1
 24 317 l 1,31,-1
 24 416 l 1,0,-1
EndSplineSet
EndChar

StartChar: sterling
Encoding: 163 163 184
Width: 563
Flags: HMW
HStem: -37 192<397 456> 280 100<100 169 100 193 100 169 363 434 363 363> 611 20G<250 332>
LayerCount: 2
Fore
SplineSet
302 631 m 0,0,1
 364 631 364 631 470 612 c 1,2,-1
 450 451 l 1,3,4
 362 470 362 470 342 470 c 0,5,6
 332 470 332 470 332 455.5 c 0,7,8
 332 441 332 441 351 380 c 1,9,-1
 444 380 l 1,10,-1
 434 280 l 1,11,-1
 363 280 l 1,12,-1
 363 219 l 2,13,14
 363 161 363 161 343 116 c 1,15,-1
 390 96 l 1,16,-1
 397 96 l 1,17,-1
 397 155 l 1,18,-1
 547 155 l 1,19,20
 547 58 547 58 513.5 10.5 c 128,-1,21
 480 -37 480 -37 403 -37 c 0,22,23
 361 -37 361 -37 332.5 -28 c 128,-1,24
 304 -19 304 -19 262 2 c 1,25,-1
 254 2 l 1,26,27
 206 -23 206 -23 146.5 -23 c 0,28,29
 87 -23 87 -23 49.5 9 c 128,-1,30
 12 41 12 41 12 102 c 0,31,32
 12 163 12 163 45 194 c 128,-1,33
 78 225 78 225 120.5 225 c 0,34,35
 163 225 163 225 189 213 c 1,36,-1
 193 213 l 1,37,-1
 193 280 l 1,38,-1
 100 280 l 1,39,-1
 100 380 l 1,40,-1
 169 380 l 1,41,42
 143 458 143 458 143 489 c 0,43,44
 143 631 143 631 302 631 c 0,0,1
133 96 m 128,-1,46
 133 76 133 76 154.5 76 c 0,47,48
 176 76 176 76 191 93 c 1,49,50
 168 116 168 116 150.5 116 c 0,51,45
 133 116 133 116 133 96 c 128,-1,46
EndSplineSet
EndChar

StartChar: florin
Encoding: 402 402 185
Width: 369
Flags: HMW
HStem: -147 21G<81 137.5> 0 21G<56.5 65.5> 324 99<51 99 42 106 276 326> 628 20G<219.5 276.5>
LayerCount: 2
Fore
SplineSet
92 -147 m 0,0,1
 51 -147 51 -147 6 -137 c 1,2,-1
 13 6 l 1,3,4
 49 0 49 0 62 0 c 0,5,6
 72 0 72 0 74 15 c 2,7,-1
 99 324 l 1,8,-1
 42 324 l 1,9,-1
 51 423 l 1,10,-1
 106 423 l 1,11,-1
 112 496 l 2,12,13
 118 568 118 568 158 608 c 128,-1,14
 198 648 198 648 253.5 648 c 0,15,16
 309 648 309 648 363 639 c 1,17,-1
 341 484 l 1,18,19
 301 493 301 493 292 493 c 128,-1,20
 283 493 283 493 281 480 c 2,21,-1
 276 423 l 1,22,-1
 336 423 l 1,23,-1
 326 324 l 1,24,-1
 268 324 l 1,25,-1
 242 7 l 2,26,27
 236 -67 236 -67 198 -107 c 128,-1,28
 160 -147 160 -147 92 -147 c 0,0,1
EndSplineSet
EndChar

StartChar: yen
Encoding: 165 165 186
Width: 504
Flags: HMW
HStem: 0 21G<166 336 166 166> 89 97<52 166 52 166 336 453> 217 99<52 124 52 157 52 124 378 453> 601 20G<20 208 208 208 304 484 484 484>
LayerCount: 2
Fore
SplineSet
484 621 m 1,0,-1
 378 316 l 1,1,-1
 453 316 l 1,2,-1
 453 217 l 1,3,-1
 344 217 l 1,4,-1
 336 192 l 1,5,-1
 336 186 l 1,6,-1
 453 186 l 1,7,-1
 453 89 l 1,8,-1
 336 89 l 1,9,-1
 336 0 l 1,10,-1
 166 0 l 1,11,-1
 166 89 l 1,12,-1
 52 89 l 1,13,-1
 52 186 l 1,14,-1
 166 186 l 1,15,-1
 166 192 l 1,16,-1
 157 217 l 1,17,-1
 52 217 l 1,18,-1
 52 316 l 1,19,-1
 124 316 l 1,20,-1
 20 621 l 1,21,-1
 208 621 l 1,22,-1
 253 419 l 1,23,-1
 261 419 l 1,24,-1
 304 621 l 1,25,-1
 484 621 l 1,0,-1
EndSplineSet
EndChar

StartChar: Omega
Encoding: 937 937 187
AltUni2: 002126.ffffffff.0
Width: 550
Flags: HMW
HStem: 0 133<32 106 32 257 32 106 437 518> 473 158<239 307>
VStem: 32 169<0 365 133 365 314 365 276.5 451.5> 346 170<308.5 365>
LayerCount: 2
Fore
SplineSet
274 631 m 128,-1,1
 516 631 516 631 516 360 c 0,2,3
 516 287 516 287 496.5 235.5 c 128,-1,4
 477 184 477 184 437 137 c 1,5,-1
 437 133 l 1,6,-1
 518 133 l 1,7,-1
 518 0 l 1,8,-1
 291 0 l 1,9,-1
 291 123 l 1,10,11
 346 201 346 201 346 317 c 0,12,13
 346 419.666666667 346 419.666666667 328.5 446.5 c 0,14,15
 311.217391304 473 311.217391304 473 269.108695652 473 c 128,-1,16
 227 473 227 473 214 436.5 c 128,-1,17
 201 400 201 400 201 306.5 c 128,-1,18
 201 213 201 213 257 124 c 1,19,-1
 257 0 l 1,20,-1
 32 0 l 1,21,-1
 32 133 l 1,22,-1
 106 133 l 1,23,-1
 106 137 l 1,24,25
 32 238 32 238 32 367 c 0,26,0
 32 631 32 631 274 631 c 128,-1,1
EndSplineSet
EndChar

StartChar: product
Encoding: 8719 8719 188
Width: 577
Flags: HMW
HStem: 0 21G<73 245 73 73 342 513 342 342> 479 142<9 73 9 568 245 342 245 245 513 568 513 513>
VStem: 73 172<0 479 0 479> 342 171<0 479 0 479>
LayerCount: 2
Fore
SplineSet
568 479 m 1,0,-1
 513 479 l 1,1,-1
 513 0 l 1,2,-1
 342 0 l 1,3,-1
 342 479 l 1,4,-1
 245 479 l 1,5,-1
 245 0 l 1,6,-1
 73 0 l 1,7,-1
 73 479 l 1,8,-1
 9 479 l 1,9,-1
 9 621 l 1,10,-1
 568 621 l 1,11,-1
 568 479 l 1,0,-1
EndSplineSet
EndChar

StartChar: pi
Encoding: 960 960 189
Width: 508
Flags: HMW
HStem: 0 21G<50 218 50 50 287 457 287 287> 337 137<13 50 13 495 218 287 218 218 457 457 457 495>
VStem: 50 168<0 337 0 337> 287 170<0 337>
LayerCount: 2
Fore
SplineSet
457 0 m 1,0,-1
 287 0 l 1,1,-1
 287 337 l 1,2,-1
 218 337 l 1,3,-1
 218 0 l 1,4,-1
 50 0 l 1,5,-1
 50 337 l 1,6,-1
 13 337 l 1,7,-1
 13 474 l 1,8,-1
 495 474 l 1,9,-1
 495 337 l 1,10,-1
 457 337 l 1,11,-1
 457 0 l 1,0,-1
EndSplineSet
EndChar

StartChar: summation
Encoding: 8721 8721 190
Width: 481
Flags: HMW
HStem: 0 143<277 469 277 469> 466 150<293 459 293 293>
LayerCount: 2
Fore
SplineSet
459 466 m 1,0,-1
 293 466 l 1,1,-1
 394 336 l 1,2,-1
 394 290 l 1,3,-1
 277 143 l 1,4,-1
 469 143 l 1,5,-1
 469 0 l 1,6,-1
 31 0 l 1,7,-1
 25 113 l 1,8,-1
 179 307 l 1,9,-1
 15 499 l 1,10,-1
 19 616 l 1,11,-1
 459 616 l 1,12,-1
 459 466 l 1,0,-1
EndSplineSet
EndChar

StartChar: Delta
Encoding: 916 916 191
AltUni2: 002206.ffffffff.0
Width: 498
Flags: HMW
HStem: 0 150<197 299 197 490> 601 20G<124 376 376 376>
LayerCount: 2
Fore
SplineSet
8 0 m 1,0,-1
 124 621 l 1,1,-1
 376 621 l 1,2,-1
 490 0 l 1,3,-1
 8 0 l 1,0,-1
197 150 m 1,4,-1
 299 150 l 1,5,-1
 252 433 l 1,6,-1
 243 433 l 1,7,-1
 197 150 l 1,4,-1
EndSplineSet
EndChar

StartChar: mu
Encoding: 181 181 192
AltUni2: 0003bc.ffffffff.0
Width: 519
Flags: HMW
HStem: -144 21G<30 196 30 30> -10 142<234 263 230.5 266.5> 454 20G<30 198 198 198 295 465 465 465>
VStem: 30 168<167.5 184 184 474> 295 170<184 474>
LayerCount: 2
Fore
SplineSet
242 -10 m 0,0,1
 218 -10 218 -10 196 0 c 1,2,-1
 196 -144 l 1,3,-1
 30 -144 l 1,4,-1
 30 474 l 1,5,-1
 198 474 l 1,6,-1
 198 184 l 2,7,8
 198 132 198 132 246.5 132 c 0,9,10
 295 132 295 132 295 184 c 2,11,-1
 295 474 l 1,12,-1
 465 474 l 1,13,-1
 465 144 l 2,14,15
 465 113 465 113 511 113 c 1,16,-1
 490 -10 l 1,17,-1
 453 -10 l 2,18,19
 384 -10 384 -10 349 28 c 1,20,-1
 345 28 l 1,21,22
 307 -10 307 -10 242 -10 c 0,0,1
EndSplineSet
EndChar

StartChar: infinity
Encoding: 8734 8734 193
Width: 667
Flags: HMW
HStem: 79 121<193 216.5 193 225 448 472> 336 122<193 216 449 472>
VStem: 44 125<244.5 291.5 244.5 327> 497 126<244.5 291.5>
LayerCount: 2
Fore
SplineSet
196 458 m 0,0,1
 277 458 277 458 327 381 c 1,2,-1
 331 381 l 1,3,4
 381 458 381 458 468 458 c 0,5,6
 539 458 539 458 581 408.5 c 128,-1,7
 623 359 623 359 623 268.5 c 128,-1,8
 623 178 623 178 581 128.5 c 128,-1,9
 539 79 539 79 468 79 c 0,10,11
 383 79 383 79 335 159 c 1,12,-1
 330 159 l 1,13,14
 275 79 275 79 200.5 79 c 128,-1,15
 126 79 126 79 85 128 c 128,-1,16
 44 177 44 177 44 266.5 c 128,-1,17
 44 356 44 356 85.5 407 c 128,-1,18
 127 458 127 458 196 458 c 0,0,1
278 268 m 1,19,20
 242 336 242 336 205.5 336 c 128,-1,21
 169 336 169 336 169 268 c 128,-1,22
 169 200 169 200 205 200 c 0,23,24
 245 200 245 200 278 268 c 1,19,20
460 336 m 0,25,26
 443 336 443 336 423.5 317 c 128,-1,27
 404 298 404 298 389 266 c 1,28,29
 421 200 421 200 460 200 c 0,30,31
 497 200 497 200 497 268 c 128,-1,32
 497 336 497 336 460 336 c 0,25,26
EndSplineSet
EndChar

StartChar: plus
Encoding: 43 43 194
Width: 482
Flags: HMW
HStem: 96 21G<174 304 174 174> 231 126<52 174 52 174 304 430> 473 20G<174 304 304 304>
VStem: 174 130<96 231 96 231 357 493>
LayerCount: 2
Fore
SplineSet
430 231 m 1,0,-1
 304 231 l 1,1,-1
 304 96 l 1,2,-1
 174 96 l 1,3,-1
 174 231 l 1,4,-1
 52 231 l 1,5,-1
 52 357 l 1,6,-1
 174 357 l 1,7,-1
 174 493 l 1,8,-1
 304 493 l 1,9,-1
 304 357 l 1,10,-1
 430 357 l 1,11,-1
 430 231 l 1,0,-1
EndSplineSet
EndChar

StartChar: minus
Encoding: 8722 8722 195
Width: 482
Flags: HMW
HStem: 231 126<52 430 52 430>
LayerCount: 2
Fore
SplineSet
430 231 m 1,0,-1
 52 231 l 1,1,-1
 52 357 l 1,2,-1
 430 357 l 1,3,-1
 430 231 l 1,0,-1
EndSplineSet
EndChar

StartChar: plusminus
Encoding: 177 177 196
Width: 482
Flags: HMW
HStem: 0 126<52 430 52 430> 298 126<52 174 52 174 304 430> 534 20G<174 304 304 304>
VStem: 174 130<173 298 173 298 424 554>
LayerCount: 2
Fore
SplineSet
430 298 m 1,0,-1
 304 298 l 1,1,-1
 304 173 l 1,2,-1
 174 173 l 1,3,-1
 174 298 l 1,4,-1
 52 298 l 1,5,-1
 52 424 l 1,6,-1
 174 424 l 1,7,-1
 174 554 l 1,8,-1
 304 554 l 1,9,-1
 304 424 l 1,10,-1
 430 424 l 1,11,-1
 430 298 l 1,0,-1
430 0 m 1,12,-1
 52 0 l 1,13,-1
 52 126 l 1,14,-1
 430 126 l 1,15,-1
 430 0 l 1,12,-1
EndSplineSet
EndChar

StartChar: multiply
Encoding: 215 215 197
Width: 476
Flags: HMW
HStem: 109 21G<144 144> 461 20G<142 142 332 332>
LayerCount: 2
Fore
SplineSet
334 110 m 1,0,-1
 240 209 l 1,1,-1
 144 109 l 1,2,-1
 52 201 l 1,3,-1
 152 297 l 1,4,-1
 52 392 l 1,5,-1
 142 481 l 1,6,-1
 237 382 l 1,7,-1
 332 481 l 1,8,-1
 424 389 l 1,9,-1
 325 294 l 1,10,-1
 423 199 l 1,11,-1
 334 110 l 1,0,-1
EndSplineSet
EndChar

StartChar: divide
Encoding: 247 247 198
Width: 482
Flags: HMW
HStem: 6 158<211.5 273.5> 231 126<52 430 52 430> 420 158<211.5 273.5>
VStem: 154 176<60 110.5 59 111.5 474 524.5>
LayerCount: 2
Fore
SplineSet
430 231 m 1,0,-1
 52 231 l 1,1,-1
 52 357 l 1,2,-1
 430 357 l 1,3,-1
 430 231 l 1,0,-1
154 85 m 0,4,5
 154 125 154 125 175 144.5 c 128,-1,6
 196 164 196 164 242 164 c 0,7,8
 288 164 288 164 309 144.5 c 128,-1,9
 330 125 330 125 330 83 c 0,10,11
 330 6 330 6 242 6 c 0,12,13
 154 6 154 6 154 85 c 0,4,5
154 499 m 0,14,15
 154 539 154 539 175 558.5 c 128,-1,16
 196 578 196 578 242 578 c 0,17,18
 288 578 288 578 309 558.5 c 128,-1,19
 330 539 330 539 330 497 c 0,20,21
 330 420 330 420 242 420 c 0,22,23
 154 420 154 420 154 499 c 0,14,15
EndSplineSet
EndChar

StartChar: equal
Encoding: 61 61 199
Width: 454
Flags: HMW
HStem: 91 136<54 400 54 400> 293 136<54 400 54 400>
LayerCount: 2
Fore
SplineSet
400 293 m 1,0,-1
 54 293 l 1,1,-1
 54 429 l 1,2,-1
 400 429 l 1,3,-1
 400 293 l 1,0,-1
400 91 m 1,4,-1
 54 91 l 1,5,-1
 54 227 l 1,6,-1
 400 227 l 1,7,-1
 400 91 l 1,4,-1
EndSplineSet
EndChar

StartChar: notequal
Encoding: 8800 8800 200
Width: 454
Flags: HMW
HStem: -26 21G<57 208 57 57> 91 136<54 95 54 140 291 400 54 246> 293 136<54 161 54 206 54 312 357 400> 529 20G<246 396 396 396>
LayerCount: 2
Fore
SplineSet
400 91 m 1,0,-1
 246 91 l 1,1,-1
 208 -26 l 1,2,-1
 57 -26 l 1,3,-1
 95 91 l 1,4,-1
 54 91 l 1,5,-1
 54 227 l 1,6,-1
 140 227 l 1,7,-1
 161 293 l 1,8,-1
 54 293 l 1,9,-1
 54 429 l 1,10,-1
 206 429 l 1,11,-1
 246 549 l 1,12,-1
 396 549 l 1,13,-1
 357 429 l 1,14,-1
 400 429 l 1,15,-1
 400 293 l 1,16,-1
 312 293 l 1,17,-1
 291 227 l 1,18,-1
 400 227 l 1,19,-1
 400 91 l 1,0,-1
EndSplineSet
EndChar

StartChar: less
Encoding: 60 60 201
Width: 394
Flags: HMW
HStem: 3 21G<278 278> 512 20G<282 282>
LayerCount: 2
Fore
SplineSet
278 3 m 1,0,-1
 33 232 l 1,1,-1
 33 301 l 1,2,-1
 282 532 l 1,3,-1
 364 419 l 1,4,-1
 198 267 l 1,5,-1
 364 118 l 1,6,-1
 278 3 l 1,0,-1
EndSplineSet
EndChar

StartChar: greater
Encoding: 62 62 202
Width: 394
Flags: HMW
HStem: 3 21G<116 116> 512 20G<112 112>
LayerCount: 2
Fore
SplineSet
361 232 m 1,0,-1
 116 3 l 1,1,-1
 30 118 l 1,2,-1
 196 267 l 1,3,-1
 30 419 l 1,4,-1
 112 532 l 1,5,-1
 361 301 l 1,6,-1
 361 232 l 1,0,-1
EndSplineSet
EndChar

StartChar: partialdiff
Encoding: 8706 8706 203
Width: 468
Flags: HMW
HStem: -10 132<213.5 250 213.5 304.5> 281 119<133 247.5> 480 151<51 100>
VStem: 20 168<172.5 221.5 172.5 272.5> 273 175<184.5 230.5>
LayerCount: 2
Fore
SplineSet
181 400 m 0,0,1
 219 400 219 400 255 394 c 1,2,-1
 258 397 l 1,3,4
 204 480 204 480 51 480 c 1,5,-1
 51 631 l 1,6,7
 448 631 448 631 448 265 c 0,8,9
 448 126 448 126 395 58 c 128,-1,10
 342 -10 342 -10 226 -10 c 0,11,12
 20 -10 20 -10 20 208 c 0,13,14
 20 302 20 302 63.5 351 c 128,-1,15
 107 400 107 400 181 400 c 0,0,1
231 281 m 0,16,17
 206 281 206 281 197 260 c 128,-1,18
 188 239 188 239 188 198.5 c 0,19,20
 188 158 188 158 197 140 c 128,-1,21
 206 122 206 122 231.5 122 c 0,22,23
 257 122 257 122 265 144 c 128,-1,24
 273 166 273 166 273 208 c 0,25,26
 273 281 273 281 231 281 c 0,16,17
EndSplineSet
EndChar

StartChar: logicalnot
Encoding: 172 172 204
Width: 488
Flags: HMW
HStem: 130 21G<288 288 288 430> 231 126<52 288 52 430>
VStem: 288 142<130 231 231 231>
LayerCount: 2
Fore
SplineSet
288 130 m 1,0,-1
 288 231 l 1,1,-1
 52 231 l 1,2,-1
 52 357 l 1,3,-1
 430 357 l 1,4,-1
 430 130 l 1,5,-1
 288 130 l 1,0,-1
EndSplineSet
EndChar

StartChar: radical
Encoding: 8730 8730 205
Width: 598
Flags: HMW
HStem: -130 21G<184 370 184 184> 459 20G<15 197 197 197> 697 135<582 788 582 582>
LayerCount: 2
Fore
SplineSet
288 111 m 1,0,-1
 444 832 l 1,1,-1
 807 832 l 1,2,-1
 788 697 l 1,3,-1
 582 697 l 1,4,-1
 370 -130 l 1,5,-1
 184 -130 l 1,6,-1
 15 479 l 1,7,-1
 197 479 l 1,8,-1
 274 111 l 1,9,-1
 288 111 l 1,0,-1
EndSplineSet
EndChar

StartChar: integral
Encoding: 8747 8747 206
Width: 441
Flags: HMW
HStem: -142 143 705 130<417 468>
VStem: 154 169 164 159
LayerCount: 2
Fore
SplineSet
145 167 m 2,0,-1
 164 592 l 2,1,2
 170 710 170 710 228.5 772.5 c 128,-1,3
 287 835 287 835 417 835 c 2,4,-1
 476 835 l 1,5,-1
 468 705 l 1,6,7
 390 705 390 705 364 670.5 c 128,-1,8
 338 636 338 636 334 552 c 2,9,-1
 313 104 l 2,10,11
 307 -30 307 -30 249 -86 c 128,-1,12
 191 -142 191 -142 46 -142 c 2,13,-1
 -8 -142 l 1,14,15
 -6 -113 -6 -113 -1 -68 c 128,-1,16
 4 -23 4 -23 6 1 c 1,17,18
 39 2 39 2 61.5 5 c 128,-1,19
 84 8 84 8 99.5 18.5 c 128,-1,20
 115 29 115 29 123 37.5 c 128,-1,21
 131 46 131 46 135.5 70.5 c 0,22,23
 141.923664122 105.473282443 141.923664122 105.473282443 145 167 c 2,0,-1
EndSplineSet
EndChar

StartChar: approxequal
Encoding: 8776 8776 207
Width: 492
Flags: HMW
HStem: 97 166<48 452> 288 166<40 444>
LayerCount: 2
Fore
SplineSet
452 263 m 1,0,-1
 452 250 l 2,1,2
 452 179 452 179 427.5 141 c 128,-1,3
 403 103 403 103 329 103 c 0,4,5
 285 103 285 103 201 131 c 1,6,-1
 201 97 l 1,7,-1
 48 97 l 1,8,-1
 48 111 l 2,9,10
 48 183 48 183 74 220 c 128,-1,11
 100 257 100 257 166 257 c 0,12,13
 201 257 201 257 299 229 c 1,14,-1
 299 263 l 1,15,-1
 452 263 l 1,0,-1
444 454 m 1,16,-1
 444 441 l 2,17,18
 444 370 444 370 419.5 332 c 128,-1,19
 395 294 395 294 321 294 c 0,20,21
 277 294 277 294 193 322 c 1,22,-1
 193 288 l 1,23,-1
 40 288 l 1,24,-1
 40 302 l 2,25,26
 40 374 40 374 66 411.5 c 128,-1,27
 92 449 92 449 158 449 c 0,28,29
 191 449 191 449 291 421 c 1,30,-1
 291 454 l 1,31,-1
 444 454 l 1,16,-1
EndSplineSet
EndChar

StartChar: lessequal
Encoding: 8804 8804 208
Width: 474
Flags: HMW
HStem: 0 127<48 426 48 426> 580 20G<426 426>
LayerCount: 2
Fore
SplineSet
426 157 m 1,0,-1
 48 299 l 1,1,-1
 48 453 l 1,2,-1
 426 600 l 1,3,-1
 426 440 l 1,4,-1
 204 377 l 1,5,-1
 426 316 l 1,6,-1
 426 157 l 1,0,-1
426 0 m 1,7,-1
 48 0 l 1,8,-1
 48 127 l 1,9,-1
 426 127 l 1,10,-1
 426 0 l 1,7,-1
EndSplineSet
EndChar

StartChar: greaterequal
Encoding: 8805 8805 209
Width: 474
Flags: HMW
HStem: 0 127<48 426 48 426> 580 20G<48 48>
LayerCount: 2
Fore
SplineSet
426 299 m 1,0,-1
 48 157 l 1,1,-1
 48 316 l 1,2,-1
 270 377 l 1,3,-1
 48 440 l 1,4,-1
 48 600 l 1,5,-1
 426 453 l 1,6,-1
 426 299 l 1,0,-1
426 0 m 1,7,-1
 48 0 l 1,8,-1
 48 127 l 1,9,-1
 426 127 l 1,10,-1
 426 0 l 1,7,-1
EndSplineSet
EndChar

StartChar: lozenge
Encoding: 9674 9674 210
Width: 577
Flags: HMW
HStem: -57 21G<233 351 233 233> 633 20G<235 351 351 351>
LayerCount: 2
Fore
SplineSet
541 298 m 1,0,-1
 351 -57 l 1,1,-1
 233 -57 l 1,2,-1
 46 298 l 1,3,-1
 235 653 l 1,4,-1
 351 653 l 1,5,-1
 541 298 l 1,0,-1
386 298 m 1,6,-1
 293 487 l 1,7,-1
 202 298 l 1,8,-1
 293 108 l 1,9,-1
 386 298 l 1,6,-1
EndSplineSet
EndChar

StartChar: period
Encoding: 46 46 211
Width: 296
Flags: HMW
HStem: -11 158<132.5 194.5>
VStem: 75 176<43 93.5 42 94.5>
LayerCount: 2
Fore
SplineSet
75 68 m 0,0,1
 75 108 75 108 96 127.5 c 128,-1,2
 117 147 117 147 163 147 c 0,3,4
 209 147 209 147 230 127.5 c 128,-1,5
 251 108 251 108 251 66 c 0,6,7
 251 -11 251 -11 163 -11 c 0,8,9
 75 -11 75 -11 75 68 c 0,0,1
EndSplineSet
EndChar

StartChar: comma
Encoding: 44 44 212
Width: 304
Flags: HMW
HStem: -113 21G<134 134> 128 20G<138.5 198.5>
VStem: 82 177<48.5 84.5 19 94>
LayerCount: 2
Fore
SplineSet
166 148 m 0,0,1
 259 148 259 148 259 56 c 0,2,3
 259 21 259 21 239 -11.5 c 128,-1,4
 219 -44 219 -44 197 -63.5 c 128,-1,5
 175 -83 175 -83 134 -113 c 1,6,-1
 75 -91 l 1,7,-1
 138 -8 l 1,8,-1
 136 -3 l 1,9,10
 82 12 82 12 82 68 c 0,11,12
 82 148 82 148 166 148 c 0,0,1
EndSplineSet
EndChar

StartChar: colon
Encoding: 58 58 213
Width: 296
Flags: HMW
HStem: -11 158<132.5 194.5> 282 158<132.5 194.5>
VStem: 75 176<43 93.5 42 94.5 336 386.5>
LayerCount: 2
Fore
SplineSet
75 68 m 0,0,1
 75 108 75 108 96 127.5 c 128,-1,2
 117 147 117 147 163 147 c 0,3,4
 209 147 209 147 230 127.5 c 128,-1,5
 251 108 251 108 251 66 c 0,6,7
 251 -11 251 -11 163 -11 c 0,8,9
 75 -11 75 -11 75 68 c 0,0,1
75 361 m 0,10,11
 75 401 75 401 96 420.5 c 128,-1,12
 117 440 117 440 163 440 c 0,13,14
 209 440 209 440 230 420.5 c 128,-1,15
 251 401 251 401 251 359 c 0,16,17
 251 282 251 282 163 282 c 0,18,19
 75 282 75 282 75 361 c 0,10,11
EndSplineSet
EndChar

StartChar: semicolon
Encoding: 59 59 214
Width: 304
Flags: HMW
HStem: -113 21G<127 127> 147 135<133.5 194> 282 158<132.5 194.5>
VStem: 75 178<48.5 86.5 21 94>
LayerCount: 2
Fore
SplineSet
164 147 m 128,-1,1
 253 147 253 147 253 56.5 c 0,2,3
 253 -34 253 -34 127 -113 c 1,4,-1
 68 -91 l 1,5,-1
 130 -10 l 1,6,-1
 128 -5 l 1,7,8
 75 6 75 6 75 68 c 0,9,0
 75 147 75 147 164 147 c 128,-1,1
75 361 m 0,10,11
 75 401 75 401 96 420.5 c 128,-1,12
 117 440 117 440 163 440 c 0,13,14
 209 440 209 440 230 420.5 c 128,-1,15
 251 401 251 401 251 359 c 0,16,17
 251 282 251 282 163 282 c 0,18,19
 75 282 75 282 75 361 c 0,10,11
EndSplineSet
EndChar

StartChar: ellipsis
Encoding: 8230 8230 215
Width: 782
Flags: HMW
HStem: -11 158<123.5 185.5 358.5 420.5 597.5 659.5>
VStem: 66 176<43 93.5 42 94.5> 301 176<43 93.5 42 94.5> 540 176<43 93.5 42 94.5>
LayerCount: 2
Fore
SplineSet
66 68 m 0,0,1
 66 108 66 108 87 127.5 c 128,-1,2
 108 147 108 147 154 147 c 0,3,4
 200 147 200 147 221 127.5 c 128,-1,5
 242 108 242 108 242 66 c 0,6,7
 242 -11 242 -11 154 -11 c 0,8,9
 66 -11 66 -11 66 68 c 0,0,1
301 68 m 0,10,11
 301 108 301 108 322 127.5 c 128,-1,12
 343 147 343 147 389 147 c 0,13,14
 435 147 435 147 456 127.5 c 128,-1,15
 477 108 477 108 477 66 c 0,16,17
 477 -11 477 -11 389 -11 c 0,18,19
 301 -11 301 -11 301 68 c 0,10,11
540 68 m 0,20,21
 540 108 540 108 561 127.5 c 128,-1,22
 582 147 582 147 628 147 c 0,23,24
 674 147 674 147 695 127.5 c 128,-1,25
 716 108 716 108 716 66 c 0,26,27
 716 -11 716 -11 628 -11 c 0,28,29
 540 -11 540 -11 540 68 c 0,20,21
EndSplineSet
EndChar

StartChar: periodcentered
Encoding: 183 183 216
Width: 346
Flags: HMW
HStem: 216 179<145 209.5>
VStem: 81 192<275.5 335 275.5 335.5>
LayerCount: 2
Fore
SplineSet
177 216 m 128,-1,1
 81 216 81 216 81 305.5 c 128,-1,2
 81 395 81 395 177 395 c 128,-1,3
 273 395 273 395 273 305.5 c 128,-1,0
 273 216 273 216 177 216 c 128,-1,1
EndSplineSet
EndChar

StartChar: exclamdown
Encoding: 161 161 217
Width: 298
Flags: HMW
HStem: -137 21G<58 228 58 58> 337 158<110.5 172.5>
VStem: 65 157
LayerCount: 2
Fore
SplineSet
217 294 m 1,0,-1
 228 -137 l 1,1,-1
 58 -137 l 1,2,-1
 72 294 l 1,3,-1
 217 294 l 1,0,-1
230 416 m 0,4,5
 230 376 230 376 209 356.5 c 128,-1,6
 188 337 188 337 142 337 c 0,7,8
 96 337 96 337 75 356.5 c 128,-1,9
 54 376 54 376 54 418 c 0,10,11
 54 495 54 495 142 495 c 0,12,13
 230 495 230 495 230 416 c 0,4,5
EndSplineSet
EndChar

StartChar: exclam
Encoding: 33 33 218
Width: 298
Flags: HMW
HStem: -11 158<135.5 197.5> 601 20G<80 250 250 250>
VStem: 85 158
LayerCount: 2
Fore
SplineSet
91 190 m 1,0,-1
 80 621 l 1,1,-1
 250 621 l 1,2,-1
 236 190 l 1,3,-1
 91 190 l 1,0,-1
78 68 m 0,4,5
 78 108 78 108 99 127.5 c 128,-1,6
 120 147 120 147 166 147 c 0,7,8
 212 147 212 147 233 127.5 c 128,-1,9
 254 108 254 108 254 66 c 0,10,11
 254 -11 254 -11 166 -11 c 0,12,13
 78 -11 78 -11 78 68 c 0,4,5
EndSplineSet
EndChar

StartChar: questiondown
Encoding: 191 191 219
Width: 387
Flags: HMW
HStem: -163 149<206 214.5> 338 154<188 249.5>
VStem: 30 145<18.5 53.5 18.5 76.5> 135 172<392 441.5>
LayerCount: 2
Fore
SplineSet
30 21 m 0,0,1
 30 96 30 96 60 137 c 128,-1,2
 90 178 90 178 148 213 c 2,3,-1
 158 219 l 1,4,-1
 158 280 l 1,5,-1
 289 280 l 1,6,-1
 289 179 l 2,7,8
 289 148 289 148 279 132 c 128,-1,9
 269 116 269 116 243.5 103.5 c 0,10,11
 218 91 218 91 207 85 c 128,-1,12
 196 79 196 79 185.5 65.5 c 128,-1,13
 175 52 175 52 175 30.5 c 0,14,15
 175 9 175 9 186 -2.5 c 128,-1,16
 197 -14 197 -14 222 -14 c 0,17,18
 247 -14 247 -14 335 9 c 1,19,-1
 335 -142 l 1,20,21
 251 -163 251 -163 193 -163 c 0,22,23
 30 -163 30 -163 30 21 c 0,0,1
307 417 m 0,24,25
 307 338 307 338 221 338 c 0,26,27
 135 338 135 338 135 417 c 0,28,29
 135 455 135 455 154.5 473.5 c 128,-1,30
 174 492 174 492 218 492 c 0,31,32
 307 492 307 492 307 417 c 0,24,25
EndSplineSet
EndChar

StartChar: question
Encoding: 63 63 220
Width: 387
Flags: HMW
HStem: -11 154<139.5 201 139.5 201.5> 495 149<174.5 183>
VStem: 82 172<39.5 89 39.5 89> 214 145<427.5 462.5>
LayerCount: 2
Fore
SplineSet
320 601 m 128,-1,1
 359 558 359 558 359 473 c 128,-1,2
 359 388 359 388 329 345.5 c 128,-1,3
 299 303 299 303 241 268 c 2,4,-1
 231 262 l 1,5,-1
 231 201 l 1,6,-1
 100 201 l 1,7,-1
 100 296 l 2,8,9
 100 328 100 328 110.5 346.5 c 128,-1,10
 121 365 121 365 146 377.5 c 128,-1,11
 171 390 171 390 182 396 c 128,-1,12
 193 402 193 402 203.5 415.5 c 128,-1,13
 214 429 214 429 214 450.5 c 128,-1,14
 214 472 214 472 203 483.5 c 128,-1,15
 192 495 192 495 167 495 c 128,-1,16
 142 495 142 495 54 472 c 1,17,-1
 54 623 l 1,18,19
 138 644 138 644 196 644 c 0,20,0
 281 644 281 644 320 601 c 128,-1,1
82 64 m 0,21,22
 82 143 82 143 168 143 c 128,-1,23
 254 143 254 143 254 64 c 0,24,25
 254 26 254 26 234.5 7.5 c 128,-1,26
 215 -11 215 -11 171 -11 c 0,27,28
 82 -11 82 -11 82 64 c 0,21,22
EndSplineSet
EndChar

StartChar: quotedbl
Encoding: 34 34 221
Width: 437
Flags: HMW
HStem: 381 21G<97 97 297 297> 621 20G<103.5 164 303.5 364>
VStem: 45 178<542.5 580.5 515 588> 245 178<542.5 580.5 515 588>
LayerCount: 2
Fore
SplineSet
134 641 m 128,-1,1
 223 641 223 641 223 550.5 c 0,2,3
 223 460 223 460 97 381 c 1,4,-1
 38 403 l 1,5,-1
 100 484 l 1,6,-1
 98 489 l 1,7,8
 45 500 45 500 45 562 c 0,9,0
 45 641 45 641 134 641 c 128,-1,1
334 641 m 128,-1,11
 423 641 423 641 423 550.5 c 0,12,13
 423 460 423 460 297 381 c 1,14,-1
 238 403 l 1,15,-1
 300 484 l 1,16,-1
 298 489 l 1,17,18
 245 500 245 500 245 562 c 0,19,10
 245 641 245 641 334 641 c 128,-1,11
EndSplineSet
EndChar

StartChar: quotesingle
Encoding: 39 39 222
Width: 237
Flags: HMW
HStem: 381 21G<97 97> 621 20G<103.5 164>
VStem: 45 178<542.5 580.5 515 588>
LayerCount: 2
Fore
SplineSet
134 641 m 128,-1,1
 223 641 223 641 223 550.5 c 0,2,3
 223 460 223 460 97 381 c 1,4,-1
 38 403 l 1,5,-1
 100 484 l 1,6,-1
 98 489 l 1,7,8
 45 500 45 500 45 562 c 0,9,0
 45 641 45 641 134 641 c 128,-1,1
EndSplineSet
EndChar

StartChar: quotedblleft
Encoding: 8220 8220 223
Width: 437
Flags: HMW
HStem: 388 21G<73 133.5 273 333.5> 628 20G<140 140 340 340>
VStem: 14 178<448.5 486.5 441 514> 214 178<448.5 486.5 441 514>
LayerCount: 2
Fore
SplineSet
303 388 m 128,-1,1
 214 388 214 388 214 478.5 c 0,2,3
 214 569 214 569 340 648 c 1,4,-1
 399 626 l 1,5,-1
 337 545 l 1,6,-1
 339 540 l 1,7,8
 392 529 392 529 392 467 c 0,9,0
 392 388 392 388 303 388 c 128,-1,1
103 388 m 128,-1,11
 14 388 14 388 14 478.5 c 0,12,13
 14 569 14 569 140 648 c 1,14,-1
 199 626 l 1,15,-1
 137 545 l 1,16,-1
 139 540 l 1,17,18
 192 529 192 529 192 467 c 0,19,10
 192 388 192 388 103 388 c 128,-1,11
EndSplineSet
EndChar

StartChar: quotedblright
Encoding: 8221 8221 224
Width: 437
Flags: HMW
HStem: 381 21G<73 73 273 273> 621 20G<79.5 140 279.5 340>
VStem: 21 178<542.5 580.5 515 588> 221 178<542.5 580.5 515 588>
LayerCount: 2
Fore
SplineSet
110 641 m 128,-1,1
 199 641 199 641 199 550.5 c 0,2,3
 199 460 199 460 73 381 c 1,4,-1
 14 403 l 1,5,-1
 76 484 l 1,6,-1
 74 489 l 1,7,8
 21 500 21 500 21 562 c 0,9,0
 21 641 21 641 110 641 c 128,-1,1
310 641 m 128,-1,11
 399 641 399 641 399 550.5 c 0,12,13
 399 460 399 460 273 381 c 1,14,-1
 214 403 l 1,15,-1
 276 484 l 1,16,-1
 274 489 l 1,17,18
 221 500 221 500 221 562 c 0,19,10
 221 641 221 641 310 641 c 128,-1,11
EndSplineSet
EndChar

StartChar: quoteleft
Encoding: 8216 8216 225
Width: 237
Flags: HMW
HStem: 388 21G<73 133.5> 628 20G<140 140>
VStem: 14 178<448.5 486.5 441 514>
LayerCount: 2
Fore
SplineSet
103 388 m 128,-1,1
 14 388 14 388 14 478.5 c 0,2,3
 14 569 14 569 140 648 c 1,4,-1
 199 626 l 1,5,-1
 137 545 l 1,6,-1
 139 540 l 1,7,8
 192 529 192 529 192 467 c 0,9,0
 192 388 192 388 103 388 c 128,-1,1
EndSplineSet
EndChar

StartChar: quoteright
Encoding: 8217 8217 226
Width: 237
Flags: HMW
HStem: 381 21G<97 97> 621 20G<103.5 164>
VStem: 45 178<542.5 580.5 515 588>
LayerCount: 2
Fore
SplineSet
134 641 m 128,-1,1
 223 641 223 641 223 550.5 c 0,2,3
 223 460 223 460 97 381 c 1,4,-1
 38 403 l 1,5,-1
 100 484 l 1,6,-1
 98 489 l 1,7,8
 45 500 45 500 45 562 c 0,9,0
 45 641 45 641 134 641 c 128,-1,1
EndSplineSet
EndChar

StartChar: quotesinglbase
Encoding: 8218 8218 227
Width: 237
Flags: HMW
HStem: -119 21G<97 97> 121 20G<103.5 164>
VStem: 45 178<42.5 80.5 15 88>
LayerCount: 2
Fore
SplineSet
134 141 m 128,-1,1
 223 141 223 141 223 50.5 c 0,2,3
 223 -40 223 -40 97 -119 c 1,4,-1
 38 -97 l 1,5,-1
 100 -16 l 1,6,-1
 98 -11 l 1,7,8
 45 0 45 0 45 62 c 0,9,0
 45 141 45 141 134 141 c 128,-1,1
EndSplineSet
EndChar

StartChar: quotedblbase
Encoding: 8222 8222 228
Width: 437
Flags: HMW
HStem: -119 21G<97 97 297 297> 121 20G<103.5 164 303.5 364>
VStem: 45 178<42.5 80.5 15 88> 245 178<42.5 80.5 15 88>
LayerCount: 2
Fore
SplineSet
134 141 m 128,-1,1
 223 141 223 141 223 50.5 c 0,2,3
 223 -40 223 -40 97 -119 c 1,4,-1
 38 -97 l 1,5,-1
 100 -16 l 1,6,-1
 98 -11 l 1,7,8
 45 0 45 0 45 62 c 0,9,0
 45 141 45 141 134 141 c 128,-1,1
334 141 m 128,-1,11
 423 141 423 141 423 50.5 c 0,12,13
 423 -40 423 -40 297 -119 c 1,14,-1
 238 -97 l 1,15,-1
 300 -16 l 1,16,-1
 298 -11 l 1,17,18
 245 0 245 0 245 62 c 0,19,10
 245 141 245 141 334 141 c 128,-1,11
EndSplineSet
EndChar

StartChar: guillemotleft
Encoding: 171 171 229
Width: 527
Flags: HMW
HStem: 4 21G<194 194 401 401> 457 20G<200 200 407 407>
LayerCount: 2
Fore
SplineSet
24 207 m 1,0,-1
 24 269 l 1,1,-1
 200 477 l 1,2,-1
 275 417 l 1,3,-1
 170 242 l 1,4,-1
 276 67 l 1,5,-1
 194 4 l 1,6,-1
 24 207 l 1,0,-1
234 207 m 1,7,-1
 234 269 l 1,8,-1
 407 477 l 1,9,-1
 484 417 l 1,10,-1
 379 242 l 1,11,-1
 485 67 l 1,12,-1
 401 4 l 1,13,-1
 234 207 l 1,7,-1
EndSplineSet
EndChar

StartChar: guillemotright
Encoding: 187 187 230
Width: 527
Flags: HMW
HStem: 4 21G<126 126 333 333> 457 20G<120 120 327 327>
LayerCount: 2
Fore
SplineSet
503 269 m 1,0,-1
 503 207 l 1,1,-1
 333 4 l 1,2,-1
 251 67 l 1,3,-1
 357 242 l 1,4,-1
 252 417 l 1,5,-1
 327 477 l 1,6,-1
 503 269 l 1,0,-1
293 269 m 1,7,-1
 293 207 l 1,8,-1
 126 4 l 1,9,-1
 42 67 l 1,10,-1
 148 242 l 1,11,-1
 43 417 l 1,12,-1
 120 477 l 1,13,-1
 293 269 l 1,7,-1
EndSplineSet
EndChar

StartChar: guilsinglleft
Encoding: 8249 8249 231
Width: 318
Flags: HMW
HStem: 4 21G<194 194> 457 20G<200 200>
LayerCount: 2
Fore
SplineSet
24 207 m 1,0,-1
 24 269 l 1,1,-1
 200 477 l 1,2,-1
 275 417 l 1,3,-1
 170 242 l 1,4,-1
 276 67 l 1,5,-1
 194 4 l 1,6,-1
 24 207 l 1,0,-1
EndSplineSet
EndChar

StartChar: guilsinglright
Encoding: 8250 8250 232
Width: 317
Flags: HMW
HStem: 4 21G<126 126> 457 20G<120 120>
LayerCount: 2
Fore
SplineSet
293 269 m 1,0,-1
 293 207 l 1,1,-1
 126 4 l 1,2,-1
 42 67 l 1,3,-1
 148 242 l 1,4,-1
 43 417 l 1,5,-1
 120 477 l 1,6,-1
 293 269 l 1,0,-1
EndSplineSet
EndChar

StartChar: hyphen
Encoding: 45 45 233
Width: 403
Flags: HMW
HStem: 193 134<48 355 48 355>
LayerCount: 2
Fore
SplineSet
355 193 m 1,0,-1
 48 193 l 1,1,-1
 48 327 l 1,2,-1
 355 327 l 1,3,-1
 355 193 l 1,0,-1
EndSplineSet
EndChar

StartChar: endash
Encoding: 8211 8211 234
Width: 429
Flags: HMW
HStem: 186 134<48 381 48 381>
LayerCount: 2
Fore
SplineSet
381 186 m 1,0,-1
 48 186 l 1,1,-1
 48 320 l 1,2,-1
 381 320 l 1,3,-1
 381 186 l 1,0,-1
EndSplineSet
EndChar

StartChar: emdash
Encoding: 8212 8212 235
Width: 639
Flags: HMW
HStem: 186 134<48 591 48 591>
LayerCount: 2
Fore
SplineSet
591 186 m 1,0,-1
 48 186 l 1,1,-1
 48 320 l 1,2,-1
 591 320 l 1,3,-1
 591 186 l 1,0,-1
EndSplineSet
EndChar

StartChar: underscore
Encoding: 95 95 236
Width: 402
Flags: HMW
HStem: -137 104<0 402 0 402>
LayerCount: 2
Fore
SplineSet
402 -137 m 1,0,-1
 0 -137 l 1,1,-1
 0 -33 l 1,2,-1
 402 -33 l 1,3,-1
 402 -137 l 1,0,-1
EndSplineSet
EndChar

StartChar: parenleft
Encoding: 40 40 237
Width: 330
Flags: HMW
HStem: -135 21G<186 186> 629 20G<190 190>
VStem: 24 187<193 318.5 193 338>
LayerCount: 2
Fore
SplineSet
190 649 m 1,0,-1
 314 596 l 1,1,2
 211 440 211 440 211 260 c 0,3,4
 211 80 211 80 314 -92 c 1,5,-1
 186 -135 l 1,6,7
 106 -47 106 -47 65 41 c 128,-1,8
 24 129 24 129 24 255 c 0,9,10
 24 491 24 491 190 649 c 1,0,-1
EndSplineSet
EndChar

StartChar: parenright
Encoding: 41 41 238
Width: 330
Flags: HMW
HStem: -135 21G<144 144> 629 20G<140 140>
VStem: 119 187<193 318.5>
LayerCount: 2
Fore
SplineSet
16 596 m 1,0,-1
 140 649 l 1,1,2
 306 491 306 491 306 255 c 0,3,4
 306 129 306 129 265 41 c 128,-1,5
 224 -47 224 -47 144 -135 c 1,6,-1
 16 -92 l 1,7,8
 119 80 119 80 119 260 c 0,9,10
 119 440 119 440 16 596 c 1,0,-1
EndSplineSet
EndChar

StartChar: bracketleft
Encoding: 91 91 239
Width: 316
Flags: HMW
HStem: -137 21G<48 284 48 48> -9 21G<218 284 284 284> 621 20G<48 284 284 284>
VStem: 48 170<-9 512 -9 641 -9 641>
LayerCount: 2
Fore
SplineSet
284 -137 m 1,0,-1
 48 -137 l 1,1,-1
 48 641 l 1,2,-1
 284 641 l 1,3,-1
 284 512 l 1,4,-1
 218 512 l 1,5,-1
 218 -9 l 1,6,-1
 284 -9 l 1,7,-1
 284 -137 l 1,0,-1
EndSplineSet
EndChar

StartChar: bracketright
Encoding: 93 93 240
Width: 316
Flags: HMW
HStem: -137 21G<32 268 32 32> -9 21G<32 98 98 98> 621 20G<32 268 268 268>
VStem: 98 170<-9 512 512 512>
LayerCount: 2
Fore
SplineSet
268 -137 m 1,0,-1
 32 -137 l 1,1,-1
 32 -9 l 1,2,-1
 98 -9 l 1,3,-1
 98 512 l 1,4,-1
 32 512 l 1,5,-1
 32 641 l 1,6,-1
 268 641 l 1,7,-1
 268 -137 l 1,0,-1
EndSplineSet
EndChar

StartChar: braceleft
Encoding: 123 123 241
Width: 335
Flags: HMW
HStem: -137 21G<140 183 183 293> -10 21G<225 293 293 293> 621 20G<183 293 293 293>
VStem: 62 163<-8 156 156 167 -10 175 359 504 504 508>
LayerCount: 2
Fore
SplineSet
293 -137 m 1,0,-1
 183 -137 l 2,1,2
 118 -137 118 -137 90 -107 c 128,-1,3
 62 -77 62 -77 62 -8 c 2,4,-1
 62 156 l 2,5,6
 62 183 62 183 53 188.5 c 128,-1,7
 44 194 44 194 8 194 c 1,8,-1
 8 322 l 1,9,10
 44 322 44 322 53 327 c 128,-1,11
 62 332 62 332 62 359 c 2,12,-1
 62 504 l 2,13,14
 62 580 62 580 89 610.5 c 128,-1,15
 116 641 116 641 183 641 c 2,16,-1
 293 641 l 1,17,-1
 293 508 l 1,18,-1
 225 508 l 1,19,-1
 225 348 l 2,20,21
 225 308 225 308 214 290.5 c 128,-1,22
 203 273 203 273 177 260 c 1,23,-1
 177 253 l 1,24,25
 203 242 203 242 214 223.5 c 128,-1,26
 225 205 225 205 225 167 c 2,27,-1
 225 -10 l 1,28,-1
 293 -10 l 1,29,-1
 293 -137 l 1,0,-1
EndSplineSet
EndChar

StartChar: braceright
Encoding: 125 125 242
Width: 335
Flags: HMW
HStem: -137 21G<42 152 42 42> -10 21G<42 110 110 110> 621 20G<42 152 152 196.5>
VStem: 110 163<-10 -8 -8 156 348 359 359 504>
LayerCount: 2
Fore
SplineSet
152 -137 m 2,0,-1
 42 -137 l 1,1,-1
 42 -10 l 1,2,-1
 110 -10 l 1,3,-1
 110 167 l 2,4,5
 110 205 110 205 121 223.5 c 128,-1,6
 132 242 132 242 158 253 c 1,7,-1
 158 260 l 1,8,9
 132 273 132 273 121 290.5 c 128,-1,10
 110 308 110 308 110 348 c 2,11,-1
 110 508 l 1,12,-1
 42 508 l 1,13,-1
 42 641 l 1,14,-1
 152 641 l 2,15,16
 219 641 219 641 246 610.5 c 128,-1,17
 273 580 273 580 273 504 c 2,18,-1
 273 359 l 2,19,20
 273 332 273 332 281.5 327 c 128,-1,21
 290 322 290 322 327 322 c 1,22,-1
 327 194 l 1,23,24
 292 194 292 194 282.5 188.5 c 128,-1,25
 273 183 273 183 273 156 c 2,26,-1
 273 -8 l 2,27,28
 273 -77 273 -77 245 -107 c 128,-1,29
 217 -137 217 -137 152 -137 c 2,0,-1
EndSplineSet
EndChar

StartChar: slash
Encoding: 47 47 243
Width: 361
Flags: HMW
HStem: -147 21G<-10 155 -10 -10> 601 20G<205 371 371 371>
LayerCount: 2
Fore
SplineSet
371 621 m 1,0,-1
 155 -147 l 1,1,-1
 -10 -147 l 1,2,-1
 205 621 l 1,3,-1
 371 621 l 1,0,-1
EndSplineSet
EndChar

StartChar: backslash
Encoding: 92 92 244
Width: 361
Flags: HMW
HStem: -147 21G<206 206 206 371> 601 20G<-10 156 156 156>
LayerCount: 2
Fore
SplineSet
206 -147 m 1,0,-1
 -10 621 l 1,1,-1
 156 621 l 1,2,-1
 371 -147 l 1,3,-1
 206 -147 l 1,0,-1
EndSplineSet
EndChar

StartChar: bar
Encoding: 124 124 245
Width: 337
Flags: HMW
HStem: -147 21G<90 247 90 90> 601 20G<90 247 247 247>
VStem: 90 157<-147 621>
LayerCount: 2
Fore
SplineSet
247 -147 m 1,0,-1
 90 -147 l 1,1,-1
 90 621 l 1,2,-1
 247 621 l 1,3,-1
 247 -147 l 1,0,-1
EndSplineSet
EndChar

StartChar: brokenbar
Encoding: 166 166 246
Width: 337
Flags: HMW
HStem: -147 21G<90 247 90 90> 601 20G<90 247 247 247>
VStem: 90 157<-147 177 325 621>
LayerCount: 2
Fore
SplineSet
247 -147 m 1,0,-1
 90 -147 l 1,1,-1
 90 177 l 1,2,-1
 247 177 l 1,3,-1
 247 -147 l 1,0,-1
247 621 m 1,4,-1
 247 325 l 1,5,-1
 90 325 l 1,6,-1
 90 621 l 1,7,-1
 247 621 l 1,4,-1
EndSplineSet
EndChar

StartChar: fraction
Encoding: 8260 8260 247
Width: 361
Flags: HMW
HStem: -147 21G<-10 155 -10 -10> 601 20G<205 371 371 371>
LayerCount: 2
Fore
SplineSet
371 621 m 1,0,-1
 155 -147 l 1,1,-1
 -10 -147 l 1,2,-1
 205 621 l 1,3,-1
 371 621 l 1,0,-1
EndSplineSet
EndChar

StartChar: grave
Encoding: 96 96 248
Width: 500
Flags: HMW
HStem: 520 140<223 223 223 273 115 338>
LayerCount: 2
Fore
SplineSet
223 520 m 1,0,-1
 115 660 l 1,1,-1
 273 660 l 1,2,-1
 338 520 l 1,3,-1
 223 520 l 1,0,-1
EndSplineSet
EndChar

StartChar: circumflex
Encoding: 710 710 249
Width: 500
Flags: HMW
HStem: 520 135<181 222 115 332 292 332 181 398 292 292>
LayerCount: 2
Fore
SplineSet
332 655 m 1,0,-1
 398 520 l 1,1,-1
 292 520 l 1,2,-1
 257 576 l 1,3,-1
 222 520 l 1,4,-1
 115 520 l 1,5,-1
 181 655 l 1,6,-1
 332 655 l 1,0,-1
EndSplineSet
EndChar

StartChar: acute
Encoding: 180 180 250
Width: 500
Flags: HMW
HStem: 520 140<216 268 153 376>
LayerCount: 2
Fore
SplineSet
376 660 m 1,0,-1
 268 520 l 1,1,-1
 153 520 l 1,2,-1
 216 660 l 1,3,-1
 376 660 l 1,0,-1
EndSplineSet
EndChar

StartChar: dieresis
Encoding: 168 168 251
Width: 500
Flags: HMW
HStem: 519 117<151.5 191.5 321.5 361.5>
VStem: 109 127<559.5 596> 278 127<559.5 596>
LayerCount: 2
Fore
SplineSet
125.5 534.5 m 128,-1,1
 109 550 109 550 109 577.5 c 128,-1,2
 109 605 109 605 125.5 620.5 c 128,-1,3
 142 636 142 636 172 636 c 128,-1,4
 202 636 202 636 219 620.5 c 128,-1,5
 236 605 236 605 236 578 c 0,6,7
 236 519 236 519 170 519 c 0,8,0
 142 519 142 519 125.5 534.5 c 128,-1,1
294.5 534.5 m 128,-1,10
 278 550 278 550 278 577.5 c 128,-1,11
 278 605 278 605 295 620.5 c 128,-1,12
 312 636 312 636 342 636 c 128,-1,13
 372 636 372 636 388.5 620.5 c 128,-1,14
 405 605 405 605 405 577.5 c 128,-1,15
 405 550 405 550 388.5 534.5 c 128,-1,16
 372 519 372 519 341.5 519 c 128,-1,9
 311 519 311 519 294.5 534.5 c 128,-1,10
EndSplineSet
EndChar

StartChar: tilde
Encoding: 732 732 252
Width: 500
Flags: HMW
HStem: 511 21G<105 214 105 105> 522 138<305 357.5>
LayerCount: 2
Fore
SplineSet
408 660 m 1,0,-1
 408 652 l 2,1,2
 408 588 408 588 390 555 c 128,-1,3
 372 522 372 522 318 522 c 0,4,5
 282 522 282 522 238 538 c 1,6,-1
 214 546 l 1,7,-1
 214 511 l 1,8,-1
 105 511 l 1,9,-1
 105 521 l 2,10,11
 105 586 105 586 124 618.5 c 128,-1,12
 143 651 143 651 191 651 c 0,13,14
 207 651 207 651 280 632 c 2,15,-1
 300 627 l 1,16,-1
 300 660 l 1,17,-1
 408 660 l 1,0,-1
EndSplineSet
EndChar

StartChar: caron
Encoding: 711 711 253
Width: 500
Flags: HMW
HStem: 518 136<182 182 182 222 278 319>
LayerCount: 2
Fore
SplineSet
182 518 m 1,0,-1
 124 654 l 1,1,-1
 222 654 l 1,2,-1
 250 603 l 1,3,-1
 278 654 l 1,4,-1
 376 654 l 1,5,-1
 319 518 l 1,6,-1
 182 518 l 1,0,-1
EndSplineSet
EndChar

StartChar: ring
Encoding: 730 730 254
Width: 500
Flags: HMW
HStem: 513 50<249.5 264.5 249.5 283.5> 513 158<232.5 283.5> 602 20G<249.5 264.5>
VStem: 171 172<568.5 616> 279 64<583.5 600.5>
LayerCount: 2
Fore
SplineSet
195 649.5 m 128,-1,1
 219 671 219 671 258 671 c 128,-1,2
 297 671 297 671 320 650.5 c 128,-1,3
 343 630 343 630 343 593 c 128,-1,4
 343 556 343 556 320 534.5 c 128,-1,5
 297 513 297 513 258 513 c 128,-1,6
 219 513 219 513 195 534 c 128,-1,7
 171 555 171 555 171 591.5 c 128,-1,0
 171 628 171 628 195 649.5 c 128,-1,1
257 622 m 128,-1,9
 235 622 235 622 235 592.5 c 128,-1,10
 235 563 235 563 257 563 c 128,-1,11
 279 563 279 563 279 592.5 c 128,-1,8
 279 622 279 622 257 622 c 128,-1,9
EndSplineSet
EndChar

StartChar: dotaccent
Encoding: 729 729 255
Width: 500
Flags: HMW
HStem: 494 154<227 292>
VStem: 169 180<544.5 596.5 544.5 596.5>
LayerCount: 2
Fore
SplineSet
169 570 m 128,-1,1
 169 610 169 610 190 629 c 128,-1,2
 211 648 211 648 259 648 c 0,3,4
 307 648 307 648 328 629 c 128,-1,5
 349 610 349 610 349 570.5 c 0,6,7
 349 531 349 531 328 512.5 c 128,-1,8
 307 494 307 494 259 494 c 0,9,10
 211 494 211 494 190 512 c 128,-1,0
 169 530 169 530 169 570 c 128,-1,1
EndSplineSet
EndChar

StartChar: hungarumlaut
Encoding: 733 733 256
Width: 500
Flags: HMW
HStem: 508 151<170 181 93 291 241 241 241 291 319 331>
LayerCount: 2
Fore
SplineSet
291 659 m 1,0,-1
 181 508 l 1,1,-1
 93 508 l 1,2,-1
 170 659 l 1,3,-1
 291 659 l 1,0,-1
451 659 m 1,4,-1
 331 508 l 1,5,-1
 241 508 l 1,6,-1
 319 659 l 1,7,-1
 451 659 l 1,4,-1
EndSplineSet
EndChar

StartChar: cedilla
Encoding: 184 184 257
Width: 500
Flags: HMW
HStem: -171 21G<242.5 288.5> -28 20G<232 297 297 297>
LayerCount: 2
Fore
SplineSet
336 -62.5 m 128,-1,1
 352 -77 352 -77 352 -104.5 c 128,-1,2
 352 -132 352 -132 327.5 -151.5 c 128,-1,3
 303 -171 303 -171 254.5 -171 c 128,-1,4
 206 -171 206 -171 163 -142 c 1,5,-1
 197 -79 l 1,6,7
 238 -110 238 -110 254 -110 c 128,-1,8
 270 -110 270 -110 270 -100.5 c 128,-1,9
 270 -91 270 -91 257 -84 c 2,10,-1
 240 -74 l 1,11,12
 217 -62 217 -62 217 -41.5 c 128,-1,13
 217 -21 217 -21 232 -8 c 1,14,-1
 297 -8 l 1,15,16
 288 -17 288 -17 288 -24.5 c 128,-1,17
 288 -32 288 -32 304 -40 c 128,-1,0
 320 -48 320 -48 336 -62.5 c 128,-1,1
EndSplineSet
EndChar

StartChar: ogonek
Encoding: 731 731 258
Width: 500
Flags: HMW
HStem: -163 163<232 272>
LayerCount: 2
Fore
SplineSet
176 -93 m 0,0,1
 176 -46 176 -46 232 0 c 1,2,-1
 316 0 l 1,3,4
 273 -50 273 -50 273 -74 c 0,5,6
 273 -83 273 -83 285.5 -83 c 0,7,8
 298 -83 298 -83 317 -64 c 1,9,-1
 349 -120 l 1,10,11
 304 -163 304 -163 251 -163 c 0,12,13
 218 -163 218 -163 197 -145.5 c 128,-1,14
 176 -128 176 -128 176 -93 c 0,0,1
EndSplineSet
EndChar

StartChar: macron
Encoding: 175 175 259
Width: 500
Flags: HMW
HStem: 530 115<125 395 125 395>
LayerCount: 2
Fore
SplineSet
395 530 m 1,0,-1
 125 530 l 1,1,-1
 125 645 l 1,2,-1
 395 645 l 1,3,-1
 395 530 l 1,0,-1
EndSplineSet
EndChar

StartChar: breve
Encoding: 728 728 260
Width: 500
Flags: HMW
HStem: 506 110<258 280 258 310.5> 506 157<222.5 242 296 310.5>
LayerCount: 2
Fore
SplineSet
269 616 m 128,-1,1
 296 616 296 616 296 663 c 1,2,-1
 405 663 l 1,3,4
 402 506 402 506 266.5 506 c 0,5,6
 131 506 131 506 131 663 c 1,7,-1
 242 663 l 1,8,0
 242 616 242 616 269 616 c 128,-1,1
EndSplineSet
EndChar

StartChar: asciicircum
Encoding: 94 94 261
Width: 500
Flags: HMW
HStem: 520 135<175 216 109 326 286 326 175 391 286 286>
LayerCount: 2
Fore
SplineSet
326 655 m 1,0,-1
 391 520 l 1,1,-1
 286 520 l 1,2,-1
 251 576 l 1,3,-1
 216 520 l 1,4,-1
 109 520 l 1,5,-1
 175 655 l 1,6,-1
 326 655 l 1,0,-1
EndSplineSet
EndChar

StartChar: asciitilde
Encoding: 126 126 262
Width: 500
Flags: HMW
HStem: 511 21G<108 217 108 108> 522 138<308 360.5>
LayerCount: 2
Fore
SplineSet
411 660 m 1,0,-1
 411 652 l 2,1,2
 411 588 411 588 393 555 c 128,-1,3
 375 522 375 522 321 522 c 0,4,5
 285 522 285 522 241 538 c 1,6,-1
 217 546 l 1,7,-1
 217 511 l 1,8,-1
 108 511 l 1,9,-1
 108 521 l 2,10,11
 108 586 108 586 127 618.5 c 128,-1,12
 146 651 146 651 194 651 c 0,13,14
 210 651 210 651 283 632 c 2,15,-1
 303 627 l 1,16,-1
 303 660 l 1,17,-1
 411 660 l 1,0,-1
EndSplineSet
EndChar

StartChar: bullet
Encoding: 8226 8226 265
Width: 413
Flags: HMW
HStem: 171 21G<169 250> 410 20G<164 251.5>
LayerCount: 2
Fore
SplineSet
209 171 m 0,0,1
 82 171 82 171 82 300.5 c 128,-1,2
 82 430 82 430 209 430 c 0,3,4
 331 430 331 430 331 300.5 c 128,-1,5
 331 171 331 171 209 171 c 0,0,1
EndSplineSet
EndChar

StartChar: commaaccent
Encoding: 65538 -1 266
Width: 500
Flags: HMW
HStem: -175 21G<268 268> -172 163 -128 119<220.5 224>
VStem: 161 184<-93.5 -53.5>
LayerCount: 2
Fore
SplineSet
161 -76 m 0,0,1
 161 -9 161 -9 253 -9 c 128,-1,2
 345 -9 345 -9 345 -78 c 0,3,4
 345 -132 345 -132 268 -175 c 1,5,-1
 188 -169 l 1,6,-1
 224 -128 l 1,7,8
 196 -128 196 -128 178.5 -114.5 c 128,-1,9
 161 -101 161 -101 161 -76 c 0,0,1
EndSplineSet
EndChar

StartChar: dotaccentcmb
Encoding: 775 775 267
Width: 500
Flags: HMW
HStem: 494 154<227 292>
VStem: 169 180<544.5 596.5 544.5 596.5>
LayerCount: 2
Fore
SplineSet
169 570 m 128,-1,1
 169 610 169 610 190 629 c 128,-1,2
 211 648 211 648 259 648 c 0,3,4
 307 648 307 648 328 629 c 128,-1,5
 349 610 349 610 349 570.5 c 0,6,7
 349 531 349 531 328 512.5 c 128,-1,8
 307 494 307 494 259 494 c 0,9,10
 211 494 211 494 190 512 c 128,-1,0
 169 530 169 530 169 570 c 128,-1,1
EndSplineSet
EndChar

StartChar: currency
Encoding: 164 164 268
Width: 779
Flags: HMW
HStem: 72 50<351 430> 490 52<349 434.5 349 450.5>
VStem: 161 58<289 321.5> 565 62<288.5 323 288.5 363>
LayerCount: 2
Fore
SplineSet
84 76 m 1,0,-1
 54 126 l 1,1,-1
 178 198 l 1,2,3
 161 252 161 252 161 301 c 128,-1,4
 161 350 161 350 173 395 c 1,5,-1
 48 468 l 1,6,-1
 79 521 l 1,7,-1
 199 452 l 1,8,9
 268 542 268 542 393.5 542 c 128,-1,10
 519 542 519 542 587 454 c 1,11,-1
 701 521 l 1,12,-1
 731 468 l 1,13,-1
 614 400 l 1,14,15
 627 355 627 355 627 305 c 128,-1,16
 627 255 627 255 607 197 c 1,17,-1
 727 126 l 1,18,-1
 695 75 l 1,19,-1
 575 146 l 1,20,21
 506 72 506 72 390 72 c 128,-1,22
 274 72 274 72 206 148 c 1,23,24
 163.454545455 124.363636364 163.454545455 124.363636364 84 76 c 1,0,-1
391 122 m 0,25,26
 565 122 565 122 565 306 c 0,27,28
 565 394 565 394 521.5 442 c 128,-1,29
 478 490 478 490 391 490 c 0,30,31
 219 490 219 490 219 305 c 0,32,33
 219 214 219 214 264 168 c 128,-1,34
 309 122 309 122 391 122 c 0,25,26
EndSplineSet
EndChar

